<svg xmlns="http://www.w3.org/2000/svg" width="280" height="238" viewBox="0 0 280 238">
    <g fill="none" fill-rule="evenodd">
        <ellipse cx="26.107" cy="202.827" fill="#2EC6FF" opacity=".1" rx="11.877" ry="1.827"/>
        <ellipse cx="197.411" cy="205.313" fill="#2EC6FF" opacity=".1" rx="11.877" ry="1.827"/>
        <ellipse cx="168.152" cy="222.244" fill="#2EC6FF" opacity=".1" rx="11.877" ry="1.827"/>
        <ellipse cx="64.592" cy="189.191" fill="#2EC6FF" opacity=".1" rx="11.877" ry="1.827"/>
        <ellipse cx="68.127" cy="223.032" fill="#2EC6FF" opacity=".1" rx="68.127" ry="14.732"/>
        <path fill="#2EC6FF" d="M270.318 164.007c-1.84 4.446-4.252 8.708-7.629 11.978-4.114 3.983-9.223 6.156-14.694 7.194-1.613.302-3.24.513-4.877.634-4.323.333-8.75.112-12.996-.352a153.237 153.237 0 0 1-35.488-8.242 148.654 148.654 0 0 1-7.25-2.823c-9.753-4.09-19.837-9.304-30.214-7.687-5.029.786-9.754 3.166-14.795 3.874-3.537.466-7.132.21-10.568-.754a36.24 36.24 0 0 1-4.877-1.69 55.449 55.449 0 0 1-10.133-5.755c-7.603-5.33-14.425-11.938-22.429-16.554-8.825-5.09-18.593-7.511-28.545-9.315a287.28 287.28 0 0 0-4.877-.84c-4.605-.763-9.22-1.468-13.77-2.303-4.384-.812-8.845-1.804-12.66-4.245-2.723-1.741-5.013-4.153-7.113-6.694a79.886 79.886 0 0 1-10.325-16.18c-4.214-8.673-7.048-18.13-8.787-27.915-.052-.287-.1-.575-.15-.863-1.634-9.592-2.231-19.509-2.05-29.354l.017-.864c.112-4.86.413-9.7.86-14.472.322-3.356.752-6.838 2.485-9.659 1.733-2.82 4.556-4.63 7.367-6.138 12.434-6.64 24.342-8.487 37.705-5.27 2.146.516 4.284 1.071 6.42 1.647 1.628.437 3.254.889 4.878 1.344 11.226 3.14 22.423 6.48 34.027 7.482 1.121.098 2.243.173 3.366.225 2.22.103 4.44.126 6.661.069 5.72-.161 11.42-.75 17.053-1.762 1.629-.282 3.255-.594 4.877-.938 7-1.465 13.936-3.419 20.761-5.58 1.395-.441 2.787-.89 4.177-1.347 3.133-1.027 6.266-2.075 9.405-3.094 9.37-3.047 18.785-5.83 28.484-6.952.83-.094 1.66-.178 2.49-.25.795-.07 1.593-.125 2.387-.165 15.048-.806 30.267 2.835 43.607 10.286a82.013 82.013 0 0 1 11.312 7.61c4.257 3.409 8.242 7.291 11.277 11.956 2.958 4.544 4.877 9.647 5.982 15.011.06.288.118.576.17.864 1.62 8.66 1.115 17.946-.704 26.623-.192.91-.396 1.822-.608 2.73-.066.289-.135.577-.204.864-1.962 8.205-4.47 16.387-3.815 24.776.083 1.056.215 2.104.387 3.14.049.287.098.575.152.863 1.28 6.844 4.189 13.336 5.933 20.113a62.149 62.149 0 0 1-2.682 38.774z" opacity=".1"/>
        <path fill="#2EC6FF" fill-rule="nonzero" d="M247.995 46.124h23.866a30.553 30.553 0 0 0-.17-.864h-23.696V13.63a83.168 83.168 0 0 0-4.877-2.947V45.26h-43.607V.397c-.794.04-1.592.095-2.386.164-.795.07-1.661.156-2.49.25v44.45H132.38l-.149-.165L166.15 7.762c-3.139 1.018-6.272 2.066-9.405 3.093l-24.938 27.452V17.782c-1.624.342-3.25.655-4.877.939v20.533l-17.053-18.772c-2.22.054-4.44.03-6.661-.07l22.423 24.684-.15.164H65.817V12.71c-1.624-.455-3.25-.907-4.877-1.344V45.26H6.102l-.017.864h54.86v29.354H8.137c.049.288.098.576.15.863h52.66v27.916H17.073c.137.287.278.575.421.863h43.452v28.566c1.63.268 3.255.548 4.877.84V105.12h61.107v61.01a36.24 36.24 0 0 0 4.877 1.69v-62.7h62.827v70.096c1.618.587 3.244 1.145 4.877 1.672V105.12h43.607v78.69a44.126 44.126 0 0 0 4.877-.633V105.12h19.072a45.333 45.333 0 0 1-.152-.863h-18.934V76.34h22.348c.069-.287.138-.575.204-.863h-22.538V46.124zm-4.877 0v29.354h-43.607V46.124h43.607zm-48.484 29.354h-62.827V46.124h62.827v29.354zM65.823 46.124h60.246l.86.785v28.569H65.824V46.124zm0 58.133V76.34h61.107v27.916H65.823zm65.984 0V76.34h62.827v27.916h-62.827zm111.311 0h-43.607V76.34h43.607v27.916z" opacity=".1"/>
        <path fill="#2EC6FF" d="M222.152 25.91h-.378a.93.93 0 0 0 .462-.755c0-.592-.726-1.079-1.613-1.079H209.32c-.886 0-1.615.487-1.615 1.08 0 .595.729 1.082 1.615 1.082h.379a.933.933 0 0 0-.462.754c0 .506.528.935 1.233 1.05h-3.259c-.889 0-1.615.486-1.615 1.08 0 .592.726 1.081 1.615 1.081h11.307c.889 0 1.615-.486 1.615-1.082 0-.506-.528-.932-1.237-1.047h3.256c.887 0 1.613-.487 1.613-1.082 0-.596-.726-1.083-1.613-1.083zM99.607 36.204h-.38a.944.944 0 0 0 .463-.754c0-.596-.726-1.082-1.615-1.082H86.768c-.889 0-1.615.486-1.615 1.082 0 .592.726 1.079 1.615 1.079h.376a.941.941 0 0 0-.459.754c0 .51.528.935 1.234 1.05h-3.253c-.89 0-1.616.487-1.616 1.082 0 .596.726 1.08 1.616 1.08h11.306c.89 0 1.615-.487 1.615-1.08 0-.51-.53-.935-1.237-1.05h3.257c.886 0 1.612-.486 1.612-1.082 0-.596-.726-1.08-1.612-1.08zM239.498 80.252h-.38a.944.944 0 0 0 .463-.754c0-.593-.726-1.079-1.615-1.079h-11.307c-.889 0-1.615.486-1.615 1.08 0 .592.726 1.079 1.615 1.079h.376a.939.939 0 0 0-.459.754c0 .506.528.935 1.234 1.05h-3.256c-.887 0-1.613.486-1.613 1.08 0 .592.726 1.081 1.613 1.081h11.309c.886 0 1.615-.486 1.615-1.082 0-.506-.53-.932-1.237-1.047h3.257c.886 0 1.612-.487 1.612-1.082 0-.596-.726-1.08-1.612-1.08z" opacity=".1"/>
        <path fill="#EAECF0" d="M65.223 173.383l132.188 14.902v4.227L64.888 177.104zM65.023 189.09h-2.508v-62.472l1.805.55.02 1.873z"/>
        <path fill="#D3DAE1" d="M66.127 188.083l-1.104 1.008-.683-60.05-.02-1.874h1.305l.017 1.986zM26.632 186.472l36.586-12.787v1.209L26.632 187.58z"/>
        <path fill="#EAECF0" d="M27.286 190.498l-.654-2.918 36.586-12.686v2.515zM197.411 122.638v82.56h-1.907l-.098-76.589-.003-2.449z"/>
        <path fill="#D3DAE1" d="M198.814 122.235v82.258l-1.403.705v-82.56zM168.152 203.388l27.329-15.322 1.93 1.125-29.259 16.007z"/>
        <path fill="#EAECF0" d="M169.007 208.623l-.855-3.425 29.26-16.007v3.321zM164.89 135.827l.1 87.194h2.712l-.402-88.201z"/>
        <path fill="#D3DAE1" d="M169.007 134.014v88.302l-1.305.705-.402-88.201.16-.075z"/>
        <path fill="#EAECF0" d="M26.282 203.489h-2.31l-.792-77.997-.011-1.343h2.209l.017 1.533z"/>
        <path fill="#D3DAE1" d="M27.885 202.884l-1.603.605-.887-77.807-.017-1.533h1.707l.014 1.683z"/>
        <path fill="#000" d="M167.46 134.745l1.547-.731v3.425l-1.506.503zM198.814 122.235v5.235l-1.403.472-2.005.667-.003-2.449 2.008-3.522z" opacity=".1"/>
        <path fill="#D48A9B" d="M198.814 112.165v14.499l-31.313 10.472-.201-15.506z"/>
        <path fill="#EFC6CD" d="M22.767 111.158l41.154-7.851 134.893 8.858-31.514 9.465z"/>
        <path fill="#000" d="M27.085 124.149l.014 1.683-1.704-.15-2.215-.19-.011-1.343zM65.642 129.153l-1.302-.112-1.825-.156v-2.267l1.805.55h1.305z" opacity=".1"/>
        <path fill="#D48A9B" d="M22.767 111.158v13.494l144.734 12.484-.201-15.506z"/>
        <path fill="#D48A9B" d="M137.524 127.202h-18.903v-6.881l18.903 1.335z"/>
        <path fill="#000" d="M137.524 127.202h-18.903v-6.881l18.903 1.335z" opacity=".1"/>
        <path fill="#000" d="M93.226 118.813v10.873l72.568 5.537v-11.578l-28.304-1.612-2.812 2.518-11.541-.805-4.114-3.022z" opacity=".1"/>
        <path fill="#FFF" d="M92.825 118.407v10.876l72.567 5.537v-11.578l-28.304-1.612-2.808 2.519-11.545-.806-4.114-3.022z"/>
        <path fill="#D48A9B" d="M48.062 115.489l17.161 1.209-.2 5.47H53.817l-7.497-2.955z"/>
        <path fill="#000" d="M48.062 115.489l17.161 1.209-.2 5.47H53.817l-7.497-2.955z" opacity=".1"/>
        <path fill="#000" d="M25.177 113.978v9.768l65.843 5.234V118.61L65.625 117.1l-2.708 2.011-10.24-.601-4.213-2.62z" opacity=".1"/>
        <path fill="#FFF" d="M24.775 113.575v9.768l65.843 5.235v-10.37l-25.395-1.51-2.708 2.014-10.239-.604-4.214-2.619z"/>
        <path fill="#000" d="M27.727 187.2l.45-.156-.226 3.212-.224.08zM165.802 113.613l9.23.607-15.294 4.593-7.79-.567z" opacity=".1"/>
        <path fill="#FFF" d="M165.802 113.21l9.23.607-15.294 4.59-7.79-.564z"/>
        <path fill="#D3DAE1" d="M164.698 114.249c.364-.156.752.138 1.147.213.221.043.45 0 .672.043.453.06.903.365 1.334.21M164.222 114.528c.361-.158.751.135 1.147.21.221.043.45 0 .674.043.454.06.901.366 1.332.21M163.132 115.08c.364-.155.754.138 1.147.213.221.043.45 0 .674.043.454.06.901.366 1.331.21"/>
        <ellipse cx="14.344" cy="212.462" fill="#535461" rx="2.694" ry="2.702"/>
        <ellipse cx="19.164" cy="223.032" fill="#535461" rx="2.694" ry="2.702"/>
        <ellipse cx="67.226" cy="224.946" fill="#535461" rx="2.694" ry="2.702"/>
        <ellipse cx="77.964" cy="211.152" fill="#535461" rx="2.694" ry="2.702"/>
        <path fill="#535461" d="M44.195 164.738h3.374v21.144h-3.374z"/>
        <path fill="#000" d="M44.195 182.457h3.374v3.425h-3.374z" opacity=".1"/>
        <path fill="#3A3768" d="M43.543 183.263h4.676v23.46h-4.676z"/>
        <path fill="#3A3768" d="M77.382 206.57l-30.617-1.257v4.941h35.53a5.43 5.43 0 0 0-4.913-3.683zM16.149 206.57l30.616-1.257v4.941h-35.53a5.427 5.427 0 0 1 4.914-3.683z"/>
        <path fill="#3A3768" d="M43.543 205.817l-24.442 12.087a6.218 6.218 0 0 0-3.443 5.569v.368l28.545-12.484 4.017-.303 23.737 15.204a6.219 6.219 0 0 0-2.557-5.9l-21.18-15.042-4.677.5z"/>
        <path fill="#000" d="M47.568 164.735v2.28a42.87 42.87 0 0 1-1.807.037c-.53 0-1.053 0-1.566-.029v-2.288h3.373z" opacity=".1"/>
        <ellipse cx="45.761" cy="162.594" fill="#3A3768" rx="12.448" ry="3.652"/>
        <path fill="#000" d="M58.1 162.594c-.024.41-.216.793-.53 1.056-1.538 1.502-6.292 2.59-11.915 2.59-5.5 0-10.162-1.047-11.811-2.495a1.584 1.584 0 0 1-.64-1.151c0-2.015 5.574-3.652 12.45-3.652 6.878 0 12.446 1.635 12.446 3.652z" opacity=".1"/>
        <path fill="#000" d="M58.206 162.594c-.024.41-.216.793-.53 1.056a68.128 68.128 0 0 1-2.68-.725s-10.973.616-21.046.826a1.584 1.584 0 0 1-.64-1.151c0-2.015 5.574-3.652 12.451-3.652 6.877 0 12.445 1.629 12.445 3.646z" opacity=".1"/>
        <path fill="#3A3768" d="M14.344 114.493s4.117 11.279 3.916 18.024c-.2 6.746-3.414 19.432-3.414 19.432s-3.21 10.27 5.02 11.177c8.232.907 35.13-.604 35.13-.604s10.04 3.019 13.248 1.71c1.248-.507 2.33-1.624 3.185-2.8a5.87 5.87 0 0 0-1.515-8.36 17.362 17.362 0 0 0-4.84-2.084 3.876 3.876 0 0 0-1.104-.136l-35.072.694s-3.913-.605-3.21-4.53c.703-3.925 1.905-16.01 1.905-16.01s.2-14.7-6.825-18.827c-7.026-4.126-6.424 2.314-6.424 2.314z"/>
        <path fill="#000" d="M14.344 114.459s4.117 11.275 3.916 18.021c-.2 6.746-3.414 19.434-3.414 19.434s-3.21 10.268 5.02 11.175c8.232.907 35.13-.607 35.13-.607s10.04 3.022 13.248 1.726c1.248-.509 2.33-1.626 3.185-2.8a5.874 5.874 0 0 0-1.515-8.363 17.534 17.534 0 0 0-4.84-2.083 3.773 3.773 0 0 0-1.104-.133l-35.072.682s-3.913-.604-3.21-4.532c.703-3.929 1.905-16.007 1.905-16.007s.2-14.7-6.825-18.83c-7.026-4.13-6.424 2.317-6.424 2.317z" opacity=".1"/>
        <path fill="#3A3768" d="M15.148 114.09s4.116 11.279 3.916 18.024c-.201 6.746-3.414 19.432-3.414 19.432s-3.21 10.271 5.017 11.178c8.228.906 35.13-.605 35.13-.605s10.04 3.019 13.25 1.727c1.248-.51 2.33-1.626 3.185-2.803a5.87 5.87 0 0 0-1.515-8.36 17.363 17.363 0 0 0-4.84-2.098 3.876 3.876 0 0 0-1.104-.136l-35.072.694s-3.913-.604-3.21-4.53c.703-3.925 1.905-16.01 1.905-16.01s.2-14.7-6.825-18.826c-7.026-4.127-6.423 2.313-6.423 2.313z"/>
        <path fill="#434175" d="M86.364 211.04v3.64s17.336.314 21.155.314c3.818 0 9.074-1.882 9.387-3.39.312-1.508-4.381-2.763-6.134-2.823-1.753-.06-1.813-.754-4.068-1.948-1.27-.674-3.202-2.628-4.642-4.202-1.11-1.215-1.928-2.202-1.928-2.202s-9.326-.187-12.017 1.318c-.62.349-1.047 1.028-1.34 1.871-.97 2.812-.413 7.422-.413 7.422z"/>
        <path fill="#000" d="M86.777 203.618c1.957-.682 13.403-.947 15.285-.987-1.11-1.215-1.928-2.202-1.928-2.202s-9.326-.187-12.017 1.318c-.62.349-1.047 1.025-1.34 1.871z" opacity=".1"/>
        <path fill="#565387" d="M36.483 145.557l1.01.613.379.23 1.471.887c7.867 4.757 29.323 17.647 30.5 17.555.306-.026 1.23-.164 2.507-.375.338-.054.702-.112 1.084-.178 4.914-.82 13.082-2.302 13.994-2.71 1.251-.576 1.002 1.945.5 4.08-.503 2.135-.876 12.375-.313 13.687.562 1.312.312 3.454.312 3.454l-.748 11.488.502 2.44s-1.69 1.382-1.001 2.196c.688.815.063 4.334.063 4.334 2.008-.754 15.583-1.004 15.583-1.004s-.574-5.025-.063-6.216c.51-1.192.126-8.289.126-8.289s.313-5.398-.25-6.653c-.562-1.255.187-9.293.187-9.293s.502-4.771.626-14.504c.123-9.733-5.509-10.044-5.509-10.044s-.748-.06-1.89-.17c-2.23-.216-5.947-.624-8.432-1.151a14.494 14.494 0 0 1-1.506-.403c-3.067-1.047-13.392-1.088-15.081-.334-1.627.725-3.254.055-3.374 0l-1.314-2.135-12.554 1.073-1.328.115-12.36 1.057-.86.074-2.26.176z"/>
        <path fill="#000" d="M86.803 155.186c3.646 1.785 7.126-4.538 8.747-8.104-2.23-.216-5.947-.624-8.432-1.15-1.632 2.736-3.812 7.548-.315 9.254z" opacity=".1"/>
        <path fill="#EE8E9E" d="M75.85 112.47c.075.431.225.846.441 1.226 1.349 2.74 5.253 8.38 5.253 8.38a9.063 9.063 0 0 1 2.87 2.878c1.063 1.822 1.376 6.09 1.376 6.09s2.378 9.48 3.503 10.8c.574.66.313 1.051-.077 1.278a5.581 5.581 0 0 0-1.974 1.857c-1.641 2.644-4.26 7.896-.574 9.698 5.006 2.449 9.702-10.386 9.702-10.386s-.94-9.103-1.19-10.671c-.25-1.569-1.753-8.038-1.753-8.038s-1.064-2.763-1.69-4.709c-.625-1.945-2.501-4.207-2.501-4.207s-3.383-6.78-4.32-7.785a37.07 37.07 0 0 0-1.576-1.548c-.61-.575-1.116-1.024-1.116-1.024s-6.438 4.659-6.374 6.161z"/>
        <path fill="#434175" d="M33.416 210.286l11.39 5.085s14.76.314 17.342-.377c2.582-.69 2.008-3.577-1.377-4.144-3.385-.567-4.191-2.069-5.319-2.76-.76-.466-3.46-3.48-5.132-5.387a210.996 210.996 0 0 1-1.377-1.583s-2.192-5.84-8.263-4.521a6.228 6.228 0 0 0-2.957 1.568c-3.274 3.04-3.558 9.051-3.558 9.051l-.749 3.068z"/>
        <path fill="#000" d="M37.872 146.4l1.471.887c7.867 4.757 29.323 17.647 30.5 17.555.306-.026 1.23-.164 2.507-.375.338-.054.702-.112 1.084-.178l.043-.072a14.415 14.415 0 0 0 1.434-3.52c1.314-5.021-5.195-8.852-5.195-8.852l-1.377-1.073c-1.564-2.642-12.83-5.14-12.83-5.14l-1.451-.993-.778-.524-.203-.135-1.762-1.189-8.824.628-2.623 1.69-.286.177-.959.63-.751.484zM37.723 198.167c2.395 8.315 12.402 5.598 12.402 5.598l.189-1.053c-.806-.919-1.377-1.583-1.377-1.583s-2.192-5.84-8.262-4.521a6.228 6.228 0 0 0-2.952 1.56z" opacity=".1"/>
        <path fill="#565387" d="M35.106 160.436c3.692 0 13.197 4.457 13.197 4.457 1.94 1.508 4.567 1.005 4.567 1.005s-4.622 4.708-4.493 6.656c.13 1.949-2.63 5.149-2.63 5.149l-8.512 16.887c.628 11.992 12.892 8.665 12.892 8.665l.503-2.826c.751-.377 1.879-4.144 1.879-4.144s0-1.505.748-1.945c.75-.44 2.316-4.962 2.316-4.962s3.379-5.712 3.19-6.463c-.19-.751 2.441-4.582 2.441-4.582s4.444-4.394 4.255-5.18c-.19-.786 3.574-4.806 3.574-4.806a12.623 12.623 0 0 0 3.322-3.891 14.452 14.452 0 0 0 1.435-3.517c1.058-4.046-2.958-7.318-4.562-8.438-.387-.27-.634-.414-.634-.414l-1.377-1.074c-.711-1.203-3.428-2.377-6.182-3.295a72.352 72.352 0 0 0-6.647-1.847l-1.452-.979-.51-.345-.468-.314-1.765-1.188-3.924.287-4.9.349-2.62 1.692-1.25.806-4.892 3.165s-.129 1.206-.169 2.83v.382c-.066 3.26.287 7.88 2.668 7.88z"/>
        <path fill="#EE8E9E" d="M53.943 90.118l1.32 4.708s2.318 8.101 2.567 8.665c.25.564 6.312 6.28 6.573 6.403.26.124 3.554 2.015 3.554 2.015s.261-10.36 0-13.37a8.625 8.625 0 0 1 .164-1.975c.399-2.363 1.409-5.825 2.246-8.492.7-2.237 1.283-3.912 1.283-3.912s-14.646-.63-14.144.815c.19.547.126 1.459-.054 2.374-.304 1.508-.933 3.016-1.323 2.901a5.131 5.131 0 0 0-1.162-.13c-.533-.022-1.024-.002-1.024-.002z"/>
        <path fill="#000" d="M57.457 87.343a10.806 10.806 0 0 0 12.91.723c.7-2.236 1.283-3.911 1.283-3.911s-14.646-.63-14.144.814c.195.547.132 1.46-.049 2.374z" opacity=".1"/>
        <path fill="#EE8E9E" d="M53.567 78.63a10.864 10.864 0 0 0 6.684 10.038 10.805 10.805 0 0 0 11.803-2.353 10.889 10.889 0 0 0 2.349-11.84 10.83 10.83 0 0 0-10.006-6.707 10.761 10.761 0 0 0-7.672 3.166 10.83 10.83 0 0 0-3.158 7.695z"/>
        <path fill="#000" d="M53.943 90.118l1.32 4.708s2.318 8.101 2.567 8.665c.25.564 6.312 6.28 6.573 6.403.26.124 3.554 2.015 3.554 2.015s.261-10.36 0-13.37a8.625 8.625 0 0 1 .164-1.975l-.86 3.48.062 6.97.5.377-1.125 1.695v-1.258s-4.016-3.89-4.633-5.525c-.617-1.635-2.87-4.588-2.87-4.588s-2.581-4.317-2.627-5.08c-.049-.575-1.127-1.945-1.6-2.514-.534-.023-1.025-.003-1.025-.003zM75.85 112.47c.075.431.225.846.441 1.226 1.369-.138 6.025-1.013 7.058-6.354a58.896 58.896 0 0 0-1.116-1.025s-6.447 4.65-6.383 6.153zM32.424 152.536c1.262-.898 2.464-2.121 3.181-2.458 1.065-.503 2.691-2.135 2.691-2.135s.413-.288 1.047-.656c1.162-.682 3.067-1.672 4.525-1.793 1.305-.11 5.648-.389 9.062-.602l4.456-.288s4.068-1.439 5.82-.503a18.427 18.427 0 0 0 3.942 1.439v-.374l-1.314-2.136-13.882 1.189-1.764-1.189-8.825.628-2.62 1.692-2.26.193 1.01.613-4.891 3.165s-.15 1.405-.178 3.215z" opacity=".1"/>
        <path fill="#DFE5EE" d="M30.59 153.091a5.694 5.694 0 0 0 1.834-.938c1.26-.895 2.458-2.115 3.173-2.452 1.064-.503 2.69-2.135 2.69-2.135s3.32-2.262 5.572-2.45c.614-.051 1.9-.14 3.443-.241l5.11-.328 2.65-.167 2.315-.141s4.068-1.439 5.821-.504a18.427 18.427 0 0 0 3.942 1.44s.063-4.395.574-6.217c.51-1.822 1.187-5.148 1.187-5.148s.574-4.582 1.128-6.654c.553-2.072 2.754-13.624 3.881-14.39 1.128-.765 1.75.576 1.75.576s7.51-.127 7.637-8.412c0 0-3.506-3.517-3.755-4.394-.25-.878-3.566-4.145-3.566-4.145s-1.88-3.516-4.017-3.58a16.8 16.8 0 0 0-3.012.095l-1.807 7.376.063 6.97.502.378-1.128 1.695v-1.235s-4.016-3.894-4.63-5.526c-.614-1.631-2.869-4.59-2.869-4.59s-2.564-4.317-2.628-5.08c-.063-.762-1.816-2.77-1.816-2.77a4.433 4.433 0 0 0-1.064 0 1.144 1.144 0 0 1-.465-.067 6.267 6.267 0 0 0-3.127-.178c-2.163.452-5.45 1.275-6.357 2.262-1.377 1.508-3.38 2.953-5.635 9.23l12.141 4.394-1.038 1.983-9.662 18.418s-.322.524-.755 1.206c-.574.886-1.317 2.046-1.813 2.682-.875 1.13-.625 4.708-.625 4.708s-.187 1.695-.812 2.325c-.626.63-.505 2.947-.505 2.947l-1.627 6.09s-1.503 1.381-1.503 2.014c0 .634-1.188 2.386-1.188 2.386s-1.816 3.005-.008 2.567z"/>
        <path fill="#000" d="M38.67 127.372c.083.346.147.697.191 1.05 0 0 4.944 11.615 5.569 12.306.192.213.92 1.258 1.833 2.59l1.047 1.551c1.89 2.818 4.017 6.018 4.017 6.018l4.63 4.08s10.075.81 13.277-2.471c-.387-.271-.634-.415-.634-.415l-1.377-1.073c-.712-1.203-3.428-2.377-6.182-3.295-2.536.017-4.61.224-4.61.224l-.66-1.744-.689-1.819-3.512-9.232s-2.257-11.676-3.009-12.242c-.752-.567-.574-2.323-.574-2.323s1.377-4.958.875-5.65c-.502-.69.815-5.778.815-5.778a5.22 5.22 0 0 0-.602-1.407l-9.663 18.418s-.31.521-.743 1.212z" opacity=".1"/>
        <path fill="#EE8E9E" d="M49.812 108.766s-1.314 5.085-.812 5.776c.502.69-.878 5.65-.878 5.65s-.186 1.758.574 2.322c.76.564 3.01 12.242 3.01 12.242l4.848 12.81s15.173-1.508 13.61 3.263c-1.564 4.772-14.084 3.767-14.084 3.767l-4.63-4.08s-6.26-9.48-6.885-10.17c-.626-.692-5.572-12.307-5.572-12.307s-.25-2.322-1.313-3.516c-1.065-1.195-.25-3.21-.25-3.21s-1.314-15.186.063-17.005c1.377-1.818 10.884-1.004 12.319 4.458z"/>
        <path fill="#000" d="M94.69 157.61s-3.945 1.32-5.001 3.203c-1.056 1.882 5-3.203 5-3.203zM92.684 153.468c-.123.187-5.4 5.497-5.07 6.78.33 1.284 5.07-6.78 5.07-6.78zM63.709 157.235s-5.884 2.783-6.386 3.995c-.503 1.211 6.386-3.995 6.386-3.995zM63.333 160.813s-5.31 2.259-6.025 2.826c-.714.567 6.025-2.826 6.025-2.826zM60.891 165.647s-2.352 1.759-3.649.377c-1.297-1.381 3.65-.377 3.65-.377zM69.716 119.814c-.126.19-7.95 14.315-10.015 15.383-2.066 1.067 10.015-15.383 10.015-15.383zM69.34 125.153c0 .314-7.637 16.692-8.893 16.887-1.257.196 8.893-16.887 8.893-16.887zM40.299 135.7s-3.684 7.9-5.118 8.363c-1.435.464 5.118-8.363 5.118-8.363zM39.673 132.184s-1.27 2.762-2.042 2.762c-.772 0 2.042-2.762 2.042-2.762zM53.567 78.63c0 1.297.232 2.585.686 3.8a10.274 10.274 0 0 1 3.05-7.604c2.027-2 4.791-3.062 7.63-2.934.526.023 1.148.147 1.36.625.084.256.127.524.13.794.157 1.22 1.39 1.983 2.55 2.38 1.159.397 2.45.65 3.29 1.545.77.82.987 1.998 1.366 3.06.213.65.575 1.241 1.056 1.726a10.887 10.887 0 0 0-3.022-11.45 10.804 10.804 0 0 0-11.66-1.874 10.865 10.865 0 0 0-6.436 9.931z" opacity=".1"/>
        <path fill="#603556" d="M73.79 68.796c-.89-1.212-2.467-1.632-3.839-2.242a12.208 12.208 0 0 1-6.825-8.32 4.298 4.298 0 0 0 .42 5.347c-2.494-.17-5.248-.458-6.938-2.302-.384 1.33.766 2.84.138 4.072-.54 1.059-2.008 1.15-2.958 1.87-1.013.754-1.348 2.121-1.411 3.385-.063 1.263.068 2.558-.304 3.767-.287.918-.861 1.761-.918 2.72-.007.713.15 1.42.459 2.063a18.643 18.643 0 0 0 2.845 4.743c-.65-3.107.168-6.341 2.217-8.76a10.227 10.227 0 0 1 8.258-3.615c.525.023 1.147.15 1.36.627.083.257.127.525.129.794.157 1.218 1.39 1.98 2.55 2.378 1.159.397 2.45.653 3.29 1.545.77.82.987 1.997 1.366 3.06.379 1.061 1.11 2.172 2.226 2.301.256-1.577.514-3.165.356-4.765-.172-1.713-1.32-2.683-1.721-4.173-.436-1.563.39-3.01-.7-4.495z"/>
        <path fill="#000" d="M42.066 99.223l-3.942 2.386s-1.127 3.828-2.008 4.317c0 0 7.886-4.395 13.83 5.712 0 0-.186-1.318.626-1.945s.626-3.327.626-3.327c.218-.428.41-.869.573-1.32.545-1.368-2.395-9.276-9.705-5.823z" opacity=".1"/>
        <path fill="#DFE5EE" d="M41.928 98.97l-3.944 2.386s-1.128 3.83-2.009 4.334c0 0 7.887-4.398 13.831 5.712 0 0-.186-1.318.628-1.945.815-.627.626-3.33.626-3.33.22-.426.412-.866.574-1.318.556-1.381-2.396-9.292-9.706-5.839z"/>
        <g fill="#000" opacity=".1">
            <path d="M56.935 64.444c-.014-1.024-.622-2.152-.327-3.165l.052.054c.072 1.048.651 2.15.275 3.111zM52.503 69.846c-.06 1.151.043 2.302-.215 3.422.094-.878.043-1.782.089-2.668.019-.42.073-.838.163-1.249a7.764 7.764 0 0 0-.037.495zM51.155 77.087c.016-.229.057-.454.123-.674a4.81 4.81 0 0 0 .462 1.983 18.599 18.599 0 0 0 2.553 4.374c.034.377.09.752.166 1.123a18.643 18.643 0 0 1-2.845-4.743 4.674 4.674 0 0 1-.46-2.063zM63.671 62.827a32.37 32.37 0 0 1-.731-.052 4.436 4.436 0 0 1-.416-3.243 4.25 4.25 0 0 0 1.147 3.295zM56.798 74.376a10.393 10.393 0 0 1 8.259-3.615c.525.026 1.148.15 1.363.627.082.257.126.525.129.795.158 1.217 1.388 1.983 2.55 2.377 1.162.394 2.447.653 3.288 1.548.772.82.99 1.997 1.368 3.056.379 1.06 1.108 2.17 2.22 2.303l-.12.754c-1.116-.121-1.847-1.232-2.226-2.302-.379-1.071-.597-2.24-1.365-3.06-.841-.892-2.132-1.15-3.291-1.545-1.16-.394-2.393-1.151-2.55-2.377a2.598 2.598 0 0 0-.13-.795c-.223-.477-.834-.604-1.36-.627-5.039-.236-9.492 3.263-10.47 8.228.249-1.977 1.06-3.84 2.335-5.367z"/>
        </g>
        <path fill="#3A3768" d="M123.877 98.035v11.26l-10.74-.863V98.035z"/>
        <path fill="#000" d="M123.877 108.375v.92l-10.74-.863v-.92z" opacity=".1"/>
        <path fill="#3A3768" d="M127.159 110.104l-16.708-.863c0-.906.732-1.64 1.635-1.64l13.438.863c.903 0 1.635.735 1.635 1.64zM147.565 101.128l-57.793-1.726c-.467 0-.914-.185-1.244-.516a1.764 1.764 0 0 1-.514-1.248V63.39c0-.468.185-.916.515-1.247.33-.33.777-.515 1.243-.514l57.793 1.726c.97 0 1.757.788 1.759 1.762v34.246c0 .975-.788 1.764-1.759 1.764z"/>
        <path fill="#2EC6FF" d="M147.904 98.625l-58.6-1.727V66.04l58.6 1.727z"/>
        <ellipse cx="118.604" cy="64.447" fill="#FFF" rx="1" ry="1"/>
        <path fill="#000" d="M123.866 100.167l-10.707-.172v.365h10.707zM104.369 110.764l14.663.964-3.125 4.503-16.12-1.726z" opacity=".1"/>
        <path fill="#3A3768" d="M104.082 110.476l14.663.964-3.125 4.504-16.12-1.727z"/>
        <path fill="#D5E1F4" d="M104.73 110.81l12.787.782-2.723 3.67-14.06-1.408z"/>
        <ellipse cx="253.443" cy="228.894" fill="#2EC6FF" opacity=".1" rx="18.418" ry="2.835"/>
        <path fill="#2EC6FF" d="M263.794 161.99s2.045 2.685-.947 6.74-5.45 7.482-4.46 10.003c0 0 4.515-7.531 8.187-7.635 3.672-.103 1.27-4.587-2.78-9.108z"/>
        <path fill="#000" d="M263.794 161.99c.177.259.317.542.416.84 3.586 4.228 5.497 8.17 2.051 8.268-3.21.092-7.06 5.848-7.984 7.304.03.112.067.223.11.331 0 0 4.515-7.531 8.187-7.635 3.672-.103 1.27-4.587-2.78-9.108z" opacity=".1"/>
        <path fill="#FFD037" d="M267.598 165.411c0 .944-.106 1.727-.235 1.727-.13 0-.238-.768-.238-1.727 0-.958.132-.5.264-.5.131 0 .209-.444.209.5z"/>
        <path fill="#FFD037" d="M268.903 166.54c-.826.451-1.549.725-1.61.61-.06-.115.557-.576 1.384-1.028.826-.452.502-.12.573 0 .072.121.482-.034-.347.418z"/>
        <path fill="#2EC6FF" d="M252.981 161.99s-2.048 2.685.944 6.74 5.45 7.482 4.461 10.003c0 0-4.513-7.531-8.188-7.635-3.675-.103-1.26-4.587 2.783-9.108z"/>
        <path fill="#000" d="M252.981 161.99a3.31 3.31 0 0 0-.419.84c-3.583 4.228-5.494 8.17-2.048 8.268 3.21.092 7.06 5.848 7.981 7.304a2.79 2.79 0 0 1-.109.331s-4.513-7.531-8.188-7.635c-3.675-.103-1.26-4.587 2.783-9.108z" opacity=".1"/>
        <path fill="#FFD037" d="M249.177 165.411c0 .944.103 1.727.235 1.727s.236-.768.236-1.727c0-.958-.132-.5-.262-.5-.129 0-.209-.444-.209.5z"/>
        <path fill="#FFD037" d="M247.869 166.54c.829.451 1.549.725 1.612.61.063-.115-.574-.576-1.386-1.028-.811-.452-.499-.12-.573 0-.075.121-.48-.034.347.418z"/>
        <ellipse cx="258.386" cy="195.98" fill="#2EC6FF" opacity=".1" rx="21.402" ry="3.295"/>
        <path fill="#65617D" d="M269.402 175.113l-.103.84-.143 1.183-.06.495-.144 1.183-.06.495-.144 1.182-1.638 13.469c-.146 1.203-2.105 2.138-4.47 2.138h-8.508c-2.364 0-4.318-.935-4.464-2.138l-1.641-13.469-.144-1.182-.06-.495-.146-1.183-.06-.495-.144-1.183-.1-.84c-.084-.68.975-1.255 2.312-1.255h17.405c1.328 0 2.396.576 2.312 1.255z"/>
        <path fill="#9D9CB5" d="M269.3 175.953l-.144 1.183h-21.537l-.143-1.183zM269.095 177.63l-.143 1.187h-21.129l-.146-1.186zM268.892 179.309l-.144 1.185h-20.721l-.144-1.185z"/>
    </g>
</svg>
