<svg xmlns="http://www.w3.org/2000/svg" width="280" height="238" viewBox="0 0 280 238">
    <defs>
        <linearGradient id="a" x1="49.998%" x2="49.998%" y1="100.006%" y2="-.002%">
            <stop offset="0%" stop-color="gray" stop-opacity=".25"/>
            <stop offset="54%" stop-color="gray" stop-opacity=".12"/>
            <stop offset="100%" stop-color="gray" stop-opacity=".1"/>
        </linearGradient>
    </defs>
    <g fill="none" fill-rule="evenodd">
        <path fill="#2EC6FF" d="M164.185 40.18c-17.715-.659-34.589-6.766-50.699-13.45C97.376 20.046 81.42 12.64 64.13 9.099c-11.12-2.278-23.84-2.6-32.798 3.769-8.624 6.14-11.41 16.71-12.908 26.528-1.128 7.385-1.79 15.157 1.3 22.072 2.143 4.8 5.95 8.836 8.58 13.45 9.162 15.999 2.689 35.729-7.239 51.35-4.653 7.33-10.058 14.327-13.65 22.122-3.59 7.795-5.254 16.74-2.112 24.698 3.117 7.894 10.543 13.812 18.584 17.979 16.338 8.464 35.582 10.885 54.36 12.256 41.557 3.038 83.333 1.722 124.999.407 15.42-.489 30.907-.983 46.075-3.53 8.425-1.414 17.12-3.657 23.238-9.078 7.762-6.88 9.686-18.531 4.486-27.156-8.728-14.47-32.845-18.064-38.954-33.595-3.355-8.547.093-18.067 4.97-25.996 10.467-17.005 28.009-31.925 28.934-51.363.635-13.353-7.8-26.72-20.84-33.04-13.666-6.645-32.623-5.803-42.7 5.158-10.385 11.295-28.63 15.628-44.27 15.05z" opacity=".1"/>
        <path fill="#2EC6FF" d="M119.185 201.89l-93.684-.488-9.309-23.323 32.916-2.553-5.737-25.571 65.104-9.015-62.342-23.15 5.507-1.398 100.244 17.47-5.52 39.907-7.891 21.932z"/>
        <path fill="#2EC6FF" d="M26.938 191.634s5.748-.983 9.197 3.356c0 0-2.53 2.129-7.97-.818l-1.227-2.538zM26.336 191.537s-3.668 4.822-1.861 10.19c0 0 2.989-1.278 3.314-7.786l-1.453-2.404zM23.04 183.61s2.3-4.505 11.496 1.802c0 0-1.226 3.029-5.288 2.783-4.062-.245-5.135-2.21-6.208-4.584zM22.447 183.286s-4.771-.584-5.234 11.082c0 0 3.025.67 5.173-3.02 2.149-3.69 1.268-5.76.06-8.062zM19.668 173.98s2.683-7.941 12.416-2.293c0 0-2.223 7.287-11.42 4.994l-.996-2.701zM16.68 162.109s5.058-8.023 14.024-.585c0 0-3.142 7.532-13.258 3.439l-.766-2.854zM15.607 150.811s5.9-7.37 14.78 0c0 0-5.595 6.468-14.78 1.883v-1.883zM14.687 139.838s5.978-7.695 14.484-.41c0 0-6.744 6.796-14.484 2.211v-1.8zM15.223 130.096s6.296-9.906 14.255-3.193c0 0-6.744 8.514-14.255 5.076v-1.883zM16.68 118.716s6.667-9.824 14.407-2.292c0 0-7.893 8.514-14.407 4.093v-1.8zM18.902 108.544s7.894-9.233 14.78-5.555c0 0-8.225 9.807-15.125 8.006l.345-2.45zM21.661 98.902s9.109-11.31 14.408-7.532c0 0-6.711 8.771-15.054 9.648l.646-2.116zM25.643 87.718s7.973-9.234 13.798-6.941c0 0-6.82 9.578-14.868 9.824l1.07-2.883zM29.248 77.256s8.813-8.841 12.645-7.286c0 0-6.36 9.824-13.028 9.251l.383-1.965zM32.773 67.596s7.588-10.564 11.729-9.745c0 0-4.601 9.418-11.729 10.818v-1.073zM36.6 54.57s6.706-8.096 10.33-8.078c0 0-5.294 10.818-10.607 10.719l.277-2.64zM38.866 45.898l6.479-16.864s.323 15.245-7.303 19.993l.824-3.129zM41.496 27.3s1.073-14.084.384-15.23c0 0 4.63 11.71-.427 21.452l.043-6.222zM19.417 173.793s-6.717-4.448-11.066 6.432c0 0 5.977 4.24 11.857-3.658l-.791-2.774zM16.463 161.656S8.225 157.64 4.23 169c0 0 6.363 4.679 12.984-4.473l-.75-2.871zM15.223 151.487s-5.9-7.371-14.78 0c0 0 5.595 6.467 14.78 1.883v-1.883zM14.484 139.838s-5.977-7.695-14.484-.41c0 0 6.744 6.796 14.484 2.211v-1.8zM15.223 130.377s-4.193-11.096-13.307-6.325c0 0 4.927 9.84 12.935 8.167l.372-1.842z"/>
        <path fill="#2EC6FF" d="M17.208 118.66s-4.169-11.288-13.412-6.054c0 0 5.66 10.347 13.001 7.797l.41-1.742zM19.792 108.6s-1.643-12.377-9.306-13.485c0 0 1.625 13.052 8.274 15.716l1.032-2.231zM21.855 98.925s-.64-14.912-6.976-15.432c0 0 .213 11.318 6.262 17.543l.714-2.111zM26.3 87.3s-1.888-12.4-7.937-13.915c0 0 .75 12.008 7.338 16.959l.6-3.044zM29.965 77.359s-.063-12.918-3.758-14.815c0 0-2.29 11.695 2.688 16.464l1.07-1.65zM33.055 67.45s-.517-13.3-4.343-15.175c0 0-1.309 10.526 3.771 16.046l.572-.871zM37.134 55.632s-.022-10.818-2.754-13.356c0 0-2.715 11.85 1.328 15.531l1.426-2.175z"/>
        <path fill="#2EC6FF" d="M38.546 45.366l-2.658-18.005s-3.61 14.754 2.784 21.256l-.126-3.25zM39.063 27.47s-6.82-12.105-6.681-13.45c0 0 .725 12.686 9.306 19.005l-2.625-5.556zM39.862 23.894S33.425 6.7 30.512 5.31c0 0 9.197 4.994 9.887 18.092l-.537.492z"/>
        <path fill="#444053" d="M36.29 57.313l-.44-.143c5.433-18.926 6.788-30.993 3.818-34.02l.315-.356c3.15 3.193 1.872 15.128-3.692 34.519z"/>
        <path fill="#444053" d="M21.33 101.627l-.652-.249a147.159 147.159 0 0 1 1.85-5.228c5.672-15.098 10.5-29.145 13.596-39.928l.566-.292c-3.1 10.804-7.844 25.388-13.52 40.507a120.385 120.385 0 0 0-1.84 5.19z"/>
        <path fill="#444053" d="M35.037 205.797c-.088-.102-8.893-10.695-15.032-28.78a112.914 112.914 0 0 1-5.931-32.974c-.422-14.073 2.343-29.785 7.078-44.06l.514.644c-10.63 32.036-6.407 59.488-.804 76.02 6.073 17.92 14.78 28.396 14.865 28.5l-.69.65z"/>
        <path fill="#D5D6DB" d="M172.634 183.307s-6.205 8.09-1.278 20.32l-49.54 22.953-4.755 1.064-2.19-10.234 1.464-12.914v-7.058l56.299-14.131z"/>
        <path fill="#2EC6FF" d="M16.192 178.079l68.569-13.353 90.856 15.461-56.432 21.704z"/>
        <path fill="#2EC6FF" d="M16.192 178.079l68.569-13.353 90.856 15.461-56.432 21.704z"/>
        <path fill="#2EC6FF" d="M16.192 178.076s-6.413 12.979.978 24.967l101.68 23.537s-6.31-10.34.327-24.69L16.192 178.077z"/>
        <path fill="#000" d="M16.192 178.076s-6.413 12.979.978 24.967l101.68 23.537s-6.31-10.34.327-24.69L16.192 178.077zM19.222 182.576s-3.665 9.496 0 15.642" opacity=".1"/>
        <path fill="#2EC6FF" d="M118.85 226.58l56.767-25.876s3.175.73 1.122 3.216c-2.052 2.485-56.793 25.145-56.793 25.145L17.17 203.043l101.68 23.537z"/>
        <path fill="#000" d="M118.85 226.58l56.767-25.876s3.175.73 1.122 3.216c-2.052 2.485-56.793 25.145-56.793 25.145L17.17 203.043l101.68 23.537zM114.198 204.505s-5.474 7.017 0 17.543" opacity=".1"/>
        <path fill="#000" d="M116.146 213.137l24.554-8.751.087.277-24.554 8.751zM116.138 215.49l29.48-11.975.097.273-29.48 11.975zM116.303 218.266l33.832-14.793.103.27-33.831 14.794zM116.698 220.712l38.348-18.506.113.267-38.349 18.505zM117.001 221.903l42.171-19.69.11.267-42.171 19.691zM117.637 223.903l50.56-23.328.11.268-50.561 23.328z" opacity=".1"/>
        <path fill="#FFF" d="M41.666 179.506l48.172-10.818 29.347 5.993-39.474 13.596z" opacity=".3"/>
        <path fill="#2EC6FF" d="M175.617 180.187s2.49 1.073 1.03 2.73c-1.462 1.659-57.47 18.974-57.47 18.974l56.44-21.704z"/>
        <path fill="#D5D6DB" d="M199.81 155.185s-6.202 8.088-1.275 20.321l-49.541 22.952-4.754 1.07-2.19-10.233 1.486-12.912v-7.067l56.274-14.13z"/>
        <path fill="#3A3768" d="M43.371 149.955l68.566-13.35 90.86 15.46-56.433 21.704z"/>
        <path fill="#3A3768" d="M43.36 149.955s-6.415 12.979.975 24.966l101.681 23.537s-6.309-10.347.337-24.692L43.36 149.955z"/>
        <path fill="#000" d="M43.36 149.955s-6.415 12.979.975 24.966l101.681 23.537s-6.309-10.347.337-24.692l-32.155-7.435-70.838-16.376zM46.398 154.454s-3.662 9.494 0 15.643" opacity=".1"/>
        <path fill="#3A3768" d="M146.027 198.458l56.77-25.876s3.171.731 1.119 3.216c-2.053 2.486-56.794 25.145-56.794 25.145L44.346 174.921l101.681 23.537z"/>
        <path fill="#000" d="M146.027 198.458l56.77-25.876s3.171.731 1.119 3.216c-2.053 2.486-56.794 25.145-56.794 25.145L44.346 174.921l101.681 23.537zM141.374 176.383s-5.474 7.017 0 17.543" opacity=".1"/>
        <path fill="#000" d="M143.324 185.018l24.554-8.75.087.277-24.554 8.75zM143.32 187.37l29.48-11.975.097.274-29.48 11.975zM143.48 190.142l33.832-14.793.104.271-33.832 14.793zM143.879 192.588l38.348-18.505.113.267-38.349 18.505zM144.178 193.776l42.171-19.69.11.267-42.171 19.691zM144.816 195.776l50.56-23.328.11.269-50.561 23.327z" opacity=".1"/>
        <path fill="#FFF" d="M68.845 151.384l48.172-10.818 29.347 5.994-39.474 13.596z" opacity=".45"/>
        <path fill="#3A3768" d="M202.796 152.066s2.488 1.073 1.03 2.728c-1.46 1.654-57.462 18.972-57.462 18.972l56.432-21.7z"/>
        <path fill="#D5D6DB" d="M202.383 123.014s-6.205 14.523-1.278 26.753l-49.541 16.52-4.743 1.073-2.19-10.233 1.464-12.915v-7.067l56.288-14.13z"/>
        <path fill="#2EC6FF" d="M45.952 117.787l68.569-13.354 90.859 15.462-56.435 21.703z"/>
        <path fill="#2EC6FF" d="M45.952 117.784s-6.424 12.979.966 24.966L148.6 166.287s-6.312-10.347.334-24.689L45.952 117.784z"/>
        <path fill="#000" d="M45.952 117.784s-6.424 12.979.966 24.966L148.6 166.287s-6.312-10.347.334-24.689L45.952 117.784zM48.982 122.283s-3.665 9.497 0 15.643" opacity=".1"/>
        <path fill="#2EC6FF" d="M148.61 166.287l56.767-19.443s3.175.73 1.122 3.216c-2.052 2.485-56.793 18.712-56.793 18.712L46.929 142.75l101.682 23.537z"/>
        <path fill="#000" d="M148.61 166.287l56.767-19.443s3.175.73 1.122 3.216c-2.052 2.485-56.793 18.712-56.793 18.712L46.929 142.75l101.682 23.537zM143.958 144.212s-5.474 7.017 0 17.543" opacity=".1"/>
        <path fill="#000" d="M145.909 152.847l24.554-8.75.086.276-24.553 8.751zM145.903 155.2l29.48-11.975.097.274L146 155.474zM146.06 157.974l33.832-14.793.104.27-33.832 14.793zM146.463 160.417l38.348-18.505.113.266-38.349 18.506zM146.764 161.608l42.17-19.69.11.267-42.17 19.69zM147.4 163.61l50.561-23.328.109.268-50.56 23.328z" opacity=".1"/>
        <path fill="#FFF" d="M71.426 119.213l48.172-10.818 29.347 5.994-39.474 13.596z" opacity=".3"/>
        <path fill="#2EC6FF" d="M205.377 119.895s2.49 1.073 1.03 2.73c-1.462 1.658-57.462 18.973-57.462 18.973l56.432-21.703zM84.963 31.139s-10.4-.67-9.185 7.125c0 0-.244 1.377.925 2.003 0 0 .02-.585 1.067-.383.375.069.755.088 1.134.058.51-.037.995-.25 1.382-.608 0 0 2.926-1.292 4.064-6.403 0 0 .843-1.114.821-1.4l-1.762.8s.6 1.354.128 2.48c0 0-.057-2.43-.396-2.374-.069 0-.912.47-.912.47s1.032 2.36.252 4.074c0 0 .296-2.907-.575-3.904l-1.237.772s1.207 2.436.389 4.424c0 0 .21-3.05-.649-4.237l-1.122.936s1.136 2.4.443 4.05c0 0-.09-3.55-.684-3.82 0 0-.983.925-1.13 1.305 0 0 .777 1.754.292 2.664 0 0-.292-2.366-.547-2.377 0 0-.977 1.567-1.078 2.631a5.962 5.962 0 0 1 .84-2.79 2.872 2.872 0 0 0-1.495.828s.151-1.108 1.738-1.205c0 0 .808-1.19 1.024-1.26 0 0-1.58-.143-2.534.31 0 0 .843-1.044 2.822-.585l1.094-.964s-2.074-.293-2.956.032c0 0 1.016-.924 3.255-.252l1.207-.769s-1.771-.406-2.825-.26c0 0 1.111-.64 3.178.053l.86-.413s-1.295-.271-1.676-.315c-.38-.044-.4-.155-.4-.155a4.252 4.252 0 0 1 2.437.292s1.847-.71 1.811-.833z"/>
        <path fill="#2EC6FF" d="M231.286 63.178s-10.4-.67-9.186 7.126c0 0-.243 1.377.926 2.002 0 0 .019-.584 1.067-.383.374.067.755.087 1.133.059.506-.04.986-.253 1.369-.608 0 0 2.928-1.293 4.064-6.404 0 0 .843-1.113.821-1.4l-1.757.801s.6 1.354.129 2.48c0 0-.058-2.43-.394-2.375-.069 0-.915.471-.915.471s1.032 2.36.255 4.073c0 0 .296-2.906-.577-3.903l-1.238.772s1.207 2.435.389 4.423c0 0 .21-3.05-.649-4.236l-1.12.935s1.134 2.4.442 4.05c0 0-.09-3.55-.685-3.819 0 0-.98.924-1.13 1.304 0 0 .777 1.755.296 2.664 0 0-.296-2.365-.548-2.377 0 0-.977 1.567-1.078 2.631a5.943 5.943 0 0 1 .843-2.789 2.885 2.885 0 0 0-1.497.827s.153-1.108 1.738-1.204c0 0 .807-1.19 1.023-1.263 0 0-1.576-.14-2.534.313 0 0 .843-1.044 2.822-.585l1.094-.965s-2.077-.292-2.956.032c0 0 1.013-.924 3.255-.251l1.204-.77s-1.77-.406-2.825-.26c0 0 1.112-.64 3.178.053l.862-.412s-1.297-.272-1.677-.316c-.38-.044-.4-.155-.4-.155a4.221 4.221 0 0 1 2.436.292s1.853-.71 1.82-.833zM102.48 79.294s-4.532-10.037-10.302-5.09c0 0-1.245.444-1.185 1.839 0 0 .48-.266.821.81.128.38.297.743.504 1.082.28.458.692.807 1.174.994 0 0 2.483 2.1 7.215.667 0 0 1.322.242 1.538.073l-1.51-1.249s-.822 1.22-1.966 1.328c0 0 1.96-1.237 1.75-1.524-.045-.058-.822-.623-.822-.623s-1.426 2.114-3.205 2.223c0 0 2.518-1.14 2.907-2.442l-1.232-.778s-1.404 2.316-3.427 2.52c0 0 2.595-1.289 3.145-2.669l-1.308-.584s-1.41 2.228-3.096 2.388c0 0 2.858-1.815 2.786-2.502 0 0-1.234-.462-1.617-.419 0 0-1.046 1.576-2.031 1.576 0 0 1.787-1.43 1.678-1.66 0 0-1.757-.147-2.683.292a5.041 5.041 0 0 1 2.691-.585 2.941 2.941 0 0 0-1.407-.991s.98-.398 1.831 1.032c0 0 1.369.173 1.53.34 0 0-.654-1.539-1.489-2.208 0 0 1.265.272 1.842 2.339l1.328.561s-.764-2.081-1.467-2.74c0 0 1.248.495 1.792 2.924l1.216.749s-.529-1.85-1.164-2.76c0 0 1.065.725 1.506 2.988l.758.602s-.41-1.342-.547-1.716c-.137-.374-.069-.45-.069-.45.52.694.85 1.53.953 2.412 0 0 1.464 1.34 1.563 1.251zM207.523 48.998s-4.53-10.038-10.302-5.09c0 0-1.243.444-1.185 1.838 0 0 .481-.263.82.81.128.382.298.746.507 1.085.28.458.69.806 1.172.991 0 0 2.485 2.1 7.214.67 0 0 1.322.24 1.541.07l-1.502-1.252s-.821 1.223-1.963 1.33c0 0 1.957-1.239 1.746-1.525-.043-.059-.82-.623-.82-.623s-1.424 2.114-3.206 2.222c0 0 2.521-1.14 2.91-2.439l-1.251-.771s-1.401 2.312-3.427 2.52c0 0 2.595-1.292 3.148-2.673l-1.311-.584s-1.41 2.23-3.093 2.388c0 0 2.855-1.815 2.783-2.5 0 0-1.231-.464-1.614-.418 0 0-1.046 1.574-2.034 1.574 0 0 1.79-1.43 1.68-1.661 0 0-1.757-.146-2.685.292a5.039 5.039 0 0 1 2.69-.585 2.925 2.925 0 0 0-1.403-.99s.98-.398 1.83 1.031c0 0 1.37.176 1.53.342 0 0-.653-1.54-1.49-2.21 0 0 1.264.275 1.841 2.354l1.33.561s-.763-2.085-1.467-2.742c0 0 1.249.494 1.79 2.923l1.218.749s-.53-1.848-1.166-2.76c0 0 1.068.725 1.506 2.988l.758.602s-.408-1.342-.547-1.716c-.14-.374-.069-.447-.069-.447.52.694.848 1.53.95 2.412 0 0 1.486 1.327 1.571 1.234zM222 98.647s-4.53-10.04-10.311-5.093c0 0-1.243.444-1.185 1.839 0 0 .481-.263.82.81.127.382.296.746.504 1.085.28.457.69.805 1.172.99 0 0 2.485 2.103 7.217.67 0 0 1.32.243 1.539.07l-1.511-1.248s-.821 1.222-1.965 1.33c0 0 1.957-1.24 1.746-1.526-.044-.058-.821-.623-.821-.623s-1.424 2.114-3.205 2.225c0 0 2.52-1.143 2.91-2.441l-1.235-.778s-1.402 2.316-3.427 2.52c0 0 2.595-1.292 3.148-2.672l-1.312-.585s-1.41 2.228-3.092 2.39c0 0 2.857-1.816 2.786-2.504 0 0-1.234-.464-1.618-.418 0 0-1.045 1.573-2.033 1.573 0 0 1.79-1.43 1.68-1.66 0 0-1.757-.147-2.685.292a5.054 5.054 0 0 1 2.693-.585 2.92 2.92 0 0 0-1.406-.99s.98-.402 1.83 1.031c0 0 1.37.173 1.53.34 0 0-.653-1.539-1.488-2.211 0 0 1.264.275 1.842 2.354l1.327.561s-.763-2.085-1.467-2.74c0 0 1.248.492 1.79 2.924l1.218.746s-.53-1.848-1.166-2.76c0 0 1.068.725 1.508 2.99l.758.586s-.41-1.343-.547-1.717c-.137-.374-.068-.447-.068-.447.52.694.849 1.53.95 2.412 0 0 1.488 1.348 1.573 1.26z" opacity=".1"/>
        <ellipse cx="55.275" cy="228.524" fill="#2EC6FF" opacity=".1" rx="6.292" ry="1"/>
        <ellipse cx="14.025" cy="215.753" fill="#2EC6FF" opacity=".1" rx="6.292" ry="1"/>
        <ellipse cx="86.718" cy="237.006" fill="#2EC6FF" opacity=".1" rx="6.292" ry="1"/>
        <ellipse cx="247.848" cy="218.53" fill="#2EC6FF" opacity=".1" rx="6.292" ry="1"/>
        <ellipse cx="195.485" cy="214.884" fill="#2EC6FF" opacity=".1" rx="6.292" ry="1"/>
        <ellipse cx="161.612" cy="232.053" fill="#2EC6FF" opacity=".1" rx="7.442" ry="1.365"/>
        <path fill="#2EC6FF" d="M164.932 218.328s-10.363 5.72-5.009 12.456c0 0 .504 1.462 1.96 1.36 0 0-.29-.568.82-1.02a5.234 5.234 0 0 0 1.12-.635 2.8 2.8 0 0 0 1.002-1.43s2.119-3.03.476-8.634c0 0 .214-1.585.028-1.842l-1.26 1.845s1.3.932 1.451 2.304c0 0-1.368-2.301-1.642-2.047-.06.053-.624 1.009-.624 1.009s2.255 1.634 2.422 3.757c0 0-1.27-2.974-2.641-3.398l-.786 1.497s2.464 1.603 2.738 4.012c0 0-1.432-3.055-2.894-3.672l-.577 1.581s2.376 1.614 2.595 3.62c0 0-1.987-3.354-2.702-3.248 0 0-.449 1.485-.388 1.944 0 0 1.677 1.199 1.707 2.377 0 0-1.549-2.09-1.787-1.953 0 0-.098 2.102.378 3.196 0 0-.821-1.562-.687-3.196a3.551 3.551 0 0 0-.994 1.708s-.446-1.155 1.024-2.22c0 0 .14-1.634.31-1.836 0 0-1.591.83-2.267 1.848 0 0 .25-1.517 2.406-2.272l.547-1.602s-2.157.977-2.822 1.836c0 0 .48-1.506 2.992-2.228l.744-1.462s-1.916.69-2.852 1.462c0 0 .726-1.295 3.082-1.892l.605-.92s-1.39.529-1.779.719c-.389.19-.465.096-.465.096a4.892 4.892 0 0 1 2.493-1.21s1.372-1.81 1.276-1.91z"/>
        <path fill="url(#a)" fill-rule="nonzero" d="M195.688 110.313c-1.79-5.195-11.643-5.684-15.919-4.36-3.038.945-9.443 2.01-12.864 2.545l-.222-.226c.444-.14.455-.485.4-.997-.032-.674-.023-1.35.027-2.023 2.097.696 3.964-.95 3.964-.95 2.463-1.17 1.8-6.175 2.271-7.544.354-1.023.734-7.052.904-10.058h.035l.02-1.008c.024-.436.035-.69.035-.69s.24-7.35.712-8.84c.438-1.367.793-8.262.848-9.355v-.144l-.035-.637c.024-.465.035-.982.032-1.526 0-2.5-.243-5.65-.273-6.158v-.266c.019-1.067-.107-6.412-4.363-8.432-1.569-.749-3.454-1.64-5.28-2.509-.47-4.342-1.546-8.66-1.453-13.034 0-.658.054-1.316.115-1.971 0 .19-.02.383-.022.585v1.275c.161-5.47 2.096-10.97 1.916-16.324-.017.523-.052 1.05-.099 1.576a18.106 18.106 0 0 0-.525-5.377c-.165-.617-.386-1.255-.86-1.667a3.413 3.413 0 0 0-1.5-.634 28.443 28.443 0 0 0-3.938-.784 6.669 6.669 0 0 0-.887-1.839c-2.775-4.07-6.887-7.894-11.748-8.771-2.438-.439-5.244-.074-6.902 1.789-.174.164-.336.34-.488.526-.892 1.138-1.275 2.632-2.19 3.766-.06.076-.128.146-.194.22-1.79 1.71-4.579 2.067-6.568 3.602-.351.275-.68.581-.983.915a17.608 17.608 0 0 0-2.146 2.786c-.895 1.345-1.815 2.746-2.1 4.35-.571 3.217 1.479 6.267 1.86 9.503.848 7.243-6.655 13.67-5.234 20.815a9.724 9.724 0 0 0 2.414 4.628c-2.926 2.83-5.417 5.576-5.417 5.576v.164h-.462l.046.585h-.046l.254 3.172-.254 4.62V67.622h.016c.085 1.693.422 7.78.821 9.064.471 1.489.71 8.839.71 8.839s.52 10.388.996 11.763c.476 1.374-.2 6.365 2.271 7.543.723.593 1.58.972 2.483 1.1-.126 1.093-.047 1.885.361 2.134.175.11.373.17.575.175a6.646 6.646 0 0 0-.446.834 10.98 10.98 0 0 1-2.869-.723c-2.655-1.17-11.465-3.8-14.024-1.95-2.56 1.851-8.718 3.53-5.874 10.98 2.844 7.45 4.169 7.636 4.169 7.636a10.506 10.506 0 0 1 2.274 2.442c.854 1.37 8.81 4.508 10.8 4.508.846-.014 1.692.031 2.532.135 0 0-2.16 2.023-1.872 3.198.287 1.176-.657 10.585-.657 10.585s2.19 2.356 3.126-.734l.033.047c.175.254 1.122 1.403 2.904-.047a16.175 16.175 0 0 1 2.315-1.567l8.627-1.304c.9-.06 1.802-.067 2.702-.02 1.368.119 2.712-.746 3.558-1.416 1.787.725 3.796 1.517 4.752 1.807 1.937.585 10.844 3.137 12.927 2.339a2.905 2.905 0 0 0 1.122-.854l1.987.067-.93.2s1.811.031 4.275.067l-.104.064 3.09-.03c4.521.044 9.601.06 10.27-.102 1.045-.248 6.478-.073 8.079 0h.446s5.97-1.272 3.506-7.742c-1.894-4.97-7.716-6.415-10.3-6.813a45.234 45.234 0 0 1 1.772-.345c1.803-.292 5.307-2.046 5.591-2.646.285-.599 3.222-2.339 3.98-3.33.758-.991 2.923-8.017 1.125-13.213zm-49.445 14.54l-.293.103-.197.07-.377.398a74.394 74.394 0 0 0-.961-.679c.594.038 1.204.076 1.828.109z"/>
        <path fill="#BE6F72" d="M163.695 94.025s4.187 11.695 6.569 10.525c2.38-1.17 1.735-6.14 2.19-7.502.454-1.363.957-11.695.957-11.695s.23-7.31.684-8.79c.422-1.36.764-8.215.822-9.294v-.144l-.452-8.479-2.556-.681-5.929 2.34-.821 5.008-.32 1.956-.137.833-1.007 25.923z"/>
        <path fill="#000" d="M165.074 92.066s3.996 3.494 5.2 3.8c1.205.308 1.944 3.033 1.944 3.033" opacity=".1"/>
        <path fill="#BE6F72" d="M130.946 94.536s-4.188 11.696-6.57 10.526c-2.38-1.17-1.734-6.14-2.189-7.502-.454-1.363-.958-11.696-.958-11.696s-.23-7.31-.684-8.789c-.421-1.36-.764-8.216-.821-9.295v-.143l.454-8.48 2.557-.68 5.928 2.339.821 5.008.32 1.956.137.834 1.005 25.922z"/>
        <path fill="#3E373A" d="M148.868 31.949h9.347v15.564h-9.347z"/>
        <path fill="#000" d="M148.868 31.949h9.347v15.564h-9.347z" opacity=".1"/>
        <path fill="#4B4B5B" d="M129.304 106.185s-3.195 3.751-2.01 4.432c1.186.682 8.852 13.45 8.852 13.45s25.181 3.313 29.93-1.658c4.749-4.97 4.653-13.85 4.653-13.85s-3.816.877-4.232.4c-.416-.476-2.701-2.774-2.701-2.774s-32.303-2.094-34.492 0z"/>
        <path fill="#000" d="M129.304 106.185s-3.195 3.751-2.01 4.432c1.186.682 8.852 13.45 8.852 13.45s25.181 3.313 29.93-1.658c4.749-4.97 4.653-13.85 4.653-13.85s-3.816.877-4.232.4c-.416-.476-2.701-2.774-2.701-2.774s-32.303-2.094-34.492 0z" opacity=".02"/>
        <path fill="#BE6F72" d="M174.635 58.769l-8.212 7.017-2.482.193-.911.07-15.309 1.2-15.875-1.24-2.362-.185-3.01-.234-6.296-6.432s4.456-5.1 8.36-8.54c1.537-1.36 2.99-2.46 4.05-2.892l.18-.068a4.515 4.515 0 0 0 1.736-1.292c3.082-3.394 5.931-11.771 5.931-11.771s13.595-7.503 11.953 2.339c-1.642 9.841 6.112 7.409 6.112 7.409l2.556 1.245 1.01.495 2.576 1.26 5.81 2.848c4.56 2.242 4.183 8.578 4.183 8.578z"/>
        <ellipse cx="147.083" cy="29.548" fill="#000" opacity=".1" rx="12.226" ry="13.061"/>
        <path fill="#000" d="M174.654 68.073h-54.93v-.144l.454-8.479s4.456-5.099 8.36-8.54l34.486-1.462 1.604-1.807 5.81 2.848c4.563 2.24 4.197 8.575 4.197 8.575s.624 7.342.019 9.009z" opacity=".1"/>
        <path fill="#E7C7CA" d="M174.654 67.78h-54.93v-.143l.454-8.48s4.456-5.098 8.36-8.54l34.486-1.462 1.604-1.806 5.81 2.847c4.563 2.24 4.197 8.576 4.197 8.576s.624 7.342.019 9.008z"/>
        <path fill="#000" d="M138.278 44.004s8.666 11.794 20.208-.243c11.542-12.037 1.278 26.85 1.278 26.85l-24.907 3.157 3.421-29.764z" opacity=".1"/>
        <path fill="#E7C7CA" d="M138.278 44.588s8.666 11.795 20.208-.242c11.542-12.038 1.278 26.85 1.278 26.85l-24.907 3.157 3.421-29.765z"/>
        <path fill="#000" d="M162.052 46.659l.917 14.937.983 4.97.75 3.802s1.916 29.238 1.368 30.7c-.547 1.462.274 2.632.389 3.41.115.777-.115 2.73-.025 3.607.09.877 0 1.266-2.096.954-2.097-.313-5.02-.857-5.02-.857s-7.39.585-9.944-.39c-2.553-.973-7.39-.976-7.39-.976s-7.3.196-9.67-.096c-2.37-.292-3.65 3.12-5.2 2.143-1.55-.976 1.823-10.426 2.918-13.157 1.094-2.731-1.46-9.649-1.46-9.649l3.285-19.464.731-4.412v-13.87l.18-.068a4.515 4.515 0 0 0 1.736-1.292l.821 13.958 25.728.977v-15.71" opacity=".1"/>
        <path fill="#E7C7CA" d="M162.052 46.074l.917 14.938.983 4.97.75 3.801s1.916 29.238 1.368 30.7c-.547 1.462.274 2.632.389 3.41.115.777-.115 2.73-.025 3.608.09.877 0 1.266-2.096.953-2.097-.313-5.02-.857-5.02-.857s-7.39.585-9.944-.389c-2.553-.973-7.39-.976-7.39-.976s-7.3.196-9.67-.097c-2.37-.292-3.65 3.12-5.2 2.143-1.55-.976 1.823-10.426 2.918-13.157 1.094-2.73-1.46-9.649-1.46-9.649l3.285-19.464.731-4.412v-13.87l.18-.068a4.515 4.515 0 0 0 1.736-1.292l.821 13.959 25.728.976v-15.71"/>
        <path fill="#000" d="M165.011 14.9c-.156-.611-.372-1.246-.821-1.655a3.247 3.247 0 0 0-1.445-.632 26.934 26.934 0 0 0-3.8-.777 6.696 6.696 0 0 0-.82-1.822c-2.683-4.046-6.651-7.862-11.32-8.725-2.445-.453-5.278-.046-6.843 2.012-.86 1.132-1.23 2.631-2.097 3.743-1.672 2.157-4.691 2.423-6.799 4.093-1.125.877-1.94 2.149-2.737 3.383-.862 1.336-1.749 2.728-2.022 4.324-.548 3.19 1.426 6.23 1.79 9.45.82 7.201-6.405 13.59-5.04 20.695.797 4.143 4.38 7.06 8.086 8.54 1.305.524 2.797 1.044 3.408 2.383.273.585.32 1.26.577 1.851.865 1.97 3.709 2.047 5.236.611 1.527-1.435 2.009-3.757 2.19-5.924.733-9.461-2.814-18.809-2.4-28.293.122-2.869.878-6.123 3.284-7.421 3.238-1.754 7.132 1.17 10.696.61a24.116 24.116 0 0 1 1.024 13.834c-.567 2.523-1.547 4.97-1.618 7.572-.107 3.962 1.894 7.582 3.624 11.085.371.655.62 1.38.73 2.137a5.461 5.461 0 0 1-.39 2.237c-.978 2.81-2.664 5.417-2.855 8.409-.056.349.017.707.205 1 .193.194.442.314.706.339 2.956.54 5.513-2.258 6.955-5.067a24.976 24.976 0 0 0 2.742-10.093c.299-5.953-1.7-11.81-1.576-17.769.142-6.774 3.008-13.595 1.33-20.13z" opacity=".1"/>
        <path fill="#3E373A" d="M165.285 14.607c-.156-.61-.372-1.245-.821-1.654a3.247 3.247 0 0 0-1.445-.632 26.934 26.934 0 0 0-3.8-.778 6.696 6.696 0 0 0-.82-1.821c-2.683-4.047-6.652-7.862-11.321-8.725-2.444-.453-5.277-.047-6.843 2.012-.859 1.131-1.229 2.631-2.096 3.742-1.673 2.158-4.691 2.424-6.799 4.093-1.125.878-1.94 2.15-2.737 3.383-.862 1.337-1.749 2.728-2.023 4.325-.547 3.19 1.426 6.23 1.79 9.45.821 7.2-6.404 13.59-5.039 20.694.797 4.144 4.38 7.061 8.086 8.541 1.305.523 2.797 1.044 3.407 2.383.274.585.32 1.26.578 1.85.865 1.971 3.708 2.047 5.236.612 1.527-1.436 2.009-3.757 2.19-5.924.733-9.461-2.814-18.809-2.401-28.294.123-2.868.879-6.122 3.284-7.42 3.238-1.755 7.133 1.169 10.697.61a24.116 24.116 0 0 1 1.023 13.833c-.566 2.523-1.546 4.97-1.617 7.573-.107 3.962 1.894 7.581 3.624 11.084.37.655.62 1.381.73 2.137a5.461 5.461 0 0 1-.39 2.237c-.978 2.81-2.664 5.418-2.856 8.41-.056.348.018.707.206 1 .193.194.441.314.706.338 2.956.541 5.512-2.257 6.955-5.067a24.976 24.976 0 0 0 2.742-10.093c.299-5.953-1.7-11.81-1.576-17.768.142-6.774 3.008-13.596 1.33-20.13z"/>
        <path fill="#C3C7D9" d="M159.239 144.066l10.858.371-1.558-8.602-8.318.845z"/>
        <path fill="#4B4B5B" d="M192.883 123.678c-.731.974-3.559 2.728-3.832 3.313-.274.585-3.649 2.339-5.384 2.631-1.735.293-7.207 1.562-8.211 2.243-.72.491-6.498 2.047-10.294 2.91-1.029.259-2.07.459-3.118.598-1.642.097-19.614-6.432-19.614-6.432l3.466-3.801.191-.07c.98-.354 5.507-1.988 8.02-2.766 2.83-.877 6.114-4.482 6.114-4.482s4.834-1.755 5.474-1.95c.64-.196-1.642-6.822-1.642-6.822s10.491-1.555 14.597-2.874c4.105-1.319 13.595-.83 15.327 4.336 1.733 5.167-.353 12.192-1.094 13.166z"/>
        <path fill="#E7C7CA" d="M145.074 140.148s-2.096 2.34-4.195 2.146c-2.1-.193-9.44.585-9.44.585a14.522 14.522 0 0 0-3.698 2.29c-1.716 1.444-2.628.292-2.797.046l-.03-.047c-.915 3.073-3.011.731-3.011.731s.911-9.356.632-10.526c-.28-1.17 1.804-3.178 1.804-3.178l2.463-.67 6.24-1.707 8.942 3.313 3.09 7.017z"/>
        <path fill="#000" d="M126.791 131.526l-1.847 13.69-.03-.048c-.915 3.073-3.011.731-3.011.731s.911-9.356.632-10.526c-.28-1.17 1.804-3.178 1.804-3.178l2.452-.67zM139.704 92.586s4.834 1.754 9.033 0M156.206 95.902s2.006 1.07 3.558 0M156.206 98.44s3.375.482 4.015-.492M155.111 103.893s6.34-.878 7.913-2.047M135.769 101.846s3.558 2.143 6.204 2.047M165.159 134.774c-1.028.26-2.069.46-3.118.6-1.642.096-19.613-6.433-19.613-6.433l3.465-3.801.191-.07c.548.412.997.766 1.317 1.035 1.508 1.269 2.964-.389 3.512-.389.547 0 5.29 4.19 5.29 4.19s4.38 1.073 5.11 2.047c.731.973 3.285.78 3.74 1.461.136.211.152.729.106 1.36z" opacity=".1"/>
        <path fill="#4B4B5B" d="M131.439 109.448s-4.429.272-6.983-.877c-2.553-1.15-11.038-3.801-13.502-1.939-2.463 1.863-8.394 3.509-5.657 10.918 2.737 7.409 4.015 7.602 4.015 7.602a10.282 10.282 0 0 1 2.19 2.427c.821 1.365 8.485 4.482 10.4 4.482 1.917 0 5.291 0 10.035 3.508 4.743 3.509 9.032 3.9 9.032 3.9s6.021 2.632 7.896 3.217 10.442 3.117 12.451 2.339c2.01-.778 3.285-5.655 3.285-5.655s.911-4.385.454-5.067c-.457-.68-3.01-.488-3.739-1.462-.728-.973-5.11-2.046-5.11-2.046s-4.732-4.193-5.28-4.193c-.547 0-2.003 1.655-3.511.389a79.632 79.632 0 0 0-9.446-6.433c-3.465-1.95-6.53-11.11-6.53-11.11z"/>
        <path fill="#000" d="M122.535 112.275c1.598-.349 3.257.12 4.486 1.266 2.19 1.95 9.558 5.865 9.558 5.865M177.281 112.152s-9.763 1.58-11.586 3.722" opacity=".1"/>
        <path fill="#E7C7CA" d="M188.503 144.437h-.43c-1.543-.058-6.774-.234-7.78 0-1.186.293-16.88 0-16.88 0l3.068-.68s-1.139-4.264-.416-4.618c0 0-4.106-2.888-1.01-4.839 3.096-1.95 6.432-1.128 6.432-1.128l7.77-2.813 1.492-.54s8.759.487 11.129 6.92c2.37 6.432-3.375 7.698-3.375 7.698z"/>
        <path fill="#000" d="M188.503 144.437h-.43c2.549-2.245 8.313-9.081-8.816-14.063l1.492-.541s8.759.488 11.129 6.92c2.37 6.433-3.375 7.684-3.375 7.684z" opacity=".1"/>
        <ellipse cx="172.401" cy="136.347" fill="#4B4B5B" rx="1" ry="1"/>
        <ellipse cx="169.618" cy="137.192" fill="#4B4B5B" rx="1" ry="1"/>
        <g fill="#000" opacity=".1">
            <path d="M156.056 29.066c.106-3.216-.43-6.42-1.572-9.397-3.558.567-7.455-2.366-10.696-.611-2.398 1.298-3.15 4.552-3.284 7.42a36.989 36.989 0 0 0-.025 2.272c0-.269 0-.54.025-.81.126-2.868.878-6.122 3.284-7.42 3.24-1.755 7.133 1.169 10.696.61.967 2.523 1.5 5.211 1.572 7.936zM128.483 28.53c.046-.636.034-1.277-.036-1.911-.29-2.573-1.607-5.032-1.845-7.541-.306 3.026 1.497 5.932 1.845 9.002.036.158.036.299.036.45zM142.904 54.77c-.17 2.169-.649 4.487-2.19 5.926-1.54 1.438-4.379 1.36-5.236-.611-.273-.585-.314-1.266-.58-1.851-.607-1.34-2.102-1.86-3.407-2.383-3.71-1.482-7.287-4.386-8.083-8.54a9.55 9.55 0 0 1-.145-1.14 9.832 9.832 0 0 0 .145 2.601c.796 4.144 4.38 7.059 8.083 8.541 1.305.523 2.8 1.044 3.407 2.383.274.585.32 1.26.58 1.85.863 1.971 3.706 2.047 5.236.612 1.53-1.436 2.007-3.757 2.19-5.927a35.69 35.69 0 0 0 .085-3.432c0 .663-.036 1.318-.085 1.97zM164.045 33.352v1.266c.153-5.438 2.02-10.906 1.837-16.23-.143 4.924-1.733 9.959-1.837 14.964zM158.171 55.351a4.02 4.02 0 0 0 .063-1.055 6.105 6.105 0 0 0-.73-2.138c-1.583-3.216-3.386-6.508-3.6-10.078 0 .152-.019.292-.022.456-.11 3.959 1.892 7.581 3.621 11.084.294.543.519 1.125.668 1.731zM165.619 51.12a25.011 25.011 0 0 1-2.762 10.093c-1.445 2.81-3.999 5.608-6.957 5.067a1.131 1.131 0 0 1-.707-.342.742.742 0 0 1-.128-.228c-.033.228-.06.46-.077.693-.057.348.017.706.205.997.192.197.441.318.707.342 2.958.541 5.512-2.257 6.957-5.067a25.011 25.011 0 0 0 2.762-10.093c.033-.684.035-1.365.016-2.046-.005.195-.005.388-.016.584z"/>
        </g>
        <path stroke="#000" d="M166.065 139.14s6.927 3.104 11.496-3.767M167.428 144.566s5.657-3.93 12.864-.129M129.558 143.674s2.376-5.725 8.72-1.36" opacity=".1"/>
        <path fill="#000" d="M121.856 59.012l4.845-4.678s18.784-1.316 19.561 5.505c0 0 6.66-8.087 20.665-6.286l5.926 5.04-16.379 7.679-15.916 5.897-11.722-5.605-6.98-7.552z" opacity=".1"/>
        <path fill="#D5D6DB" d="M121.856 59.304l4.845-4.678s18.784-1.316 19.561 5.506c0 0 6.66-8.088 20.665-6.287l5.926 5.041-16.379 7.678-15.916 5.897-11.722-5.605-6.98-7.552z"/>
        <path fill="#000" d="M119.713 59.889l2.143 27.387 22.718 1.22-.986-27.27-.019-.46z" opacity=".1"/>
        <path fill="#2EC6FF" d="M119.713 59.304l2.143 27.388 22.718 1.219-.986-27.27-.019-.46z"/>
        <path fill="#000" d="M173.893 59.304l-23.435 3.754v27.51l22.901-3.534z" opacity=".1"/>
        <path fill="#2EC6FF" d="M173.893 58.72l-23.435 3.754v27.51l22.901-3.535z"/>
        <path fill="#FFF" d="M168.367 65.432l-12.66 1.503.277 4.608L168.36 70.1z" opacity=".3"/>
        <path fill="#BE6F72" d="M123.088 101.358l1.289 3.704s1.916 1.754 4.012.877c2.097-.877 3.925-1.313 4.837-2.166.911-.854 2.19-5.143 2.19-5.143s1.278-4.678 2.553-5.848c1.276-1.17 4.653-17.283 0-15.707-4.653 1.576-8.211 16.195-8.211 16.195s-.821 1.07-2.006 1.17c-1.185.1-3.558-.196-4.016.877-.457 1.073-2.017 3.897-.648 6.04z"/>
        <path fill="#000" d="M150.458 63.055c-2.433.586-4.982-.093-6.872-1.83l.988 27.268s2.326 2.69 5.884 2.076V63.055z" opacity=".1"/>
        <path fill="#2EC6FF" d="M150.458 62.47c-2.433.586-4.982-.093-6.872-1.83l.988 27.268s2.326 2.69 5.884 2.076V62.47z"/>
        <path fill="#000" d="M150.458 62.47c-2.433.586-4.982-.093-6.872-1.83l.988 27.268s2.326 2.69 5.884 2.076V62.47zM151.006 59.398s9.533-3.114 12.018-2.676M140.342 58.038s-9.24-2.339-10.784-1.675M157.016 59.787s6.375-2.497 8.68-1.31M153.806 122.424c.987-.793 2.039-1.49 3.142-2.085 1.642-.845 4.653-3.038 4.653-3.038M129.558 92.586s-3.999 3.494-5.2 3.801c-1.202.307-1.944 3.032-1.944 3.032" opacity=".1"/>
        <path fill="#BE6F72" d="M171.542 100.837l-1.276 3.713s-1.916 1.755-4.015.878c-2.1-.878-3.922-1.313-4.836-2.167-.915-.854-2.19-5.143-2.19-5.143s-1.275-4.678-2.554-5.848c-1.278-1.17-4.653-17.282 0-15.707 4.653 1.576 8.212 16.196 8.212 16.196s.82 1.07 2.006 1.17c1.185.099 3.558-.197 4.015.876.457 1.073 2.006 3.898.638 6.032z"/>
        <path fill="#000" d="M169.306 94.007s2.613 1.795 2.603 3.941" opacity=".1"/>
        <ellipse cx="147.127" cy="28.908" fill="#BE6F72" rx="12.226" ry="13.061"/>
        <path fill="#3E373A" d="M139.45 25.402c1.483-.248 2.783-1.17 4.201-1.698 3.172-1.19 6.681-.375 9.892.698 1.232.413 2.482.877 3.774.877 1.292 0 2.663-.564 3.323-1.754.608-1.093.49-2.514-.022-3.663-.512-1.15-1.368-2.073-2.233-2.945-2.847-2.87-6.378-5.555-10.283-5.263-1.571.12-3.074.72-4.52 1.383a48.647 48.647 0 0 0-5.304 2.854c-1.316.816-3.755 1.906-4.513 3.398-1.724 3.359 3.003 6.564 5.685 6.113z"/>
        <path fill="#000" d="M160.64 22.297c-.66 1.19-2.03 1.754-3.323 1.754-1.292 0-2.542-.447-3.777-.86-3.21-1.072-6.717-1.89-9.892-.698-1.415.53-2.717 1.462-4.2 1.696-2.163.362-5.645-1.65-6.022-4.208-.425 2.956 3.613 5.489 6.021 5.085 1.484-.249 2.786-1.17 4.201-1.696 3.175-1.193 6.682-.374 9.892.699 1.235.412 2.483.877 3.777.86 1.295-.018 2.663-.562 3.323-1.755.342-.649.477-1.399.383-2.137a3.304 3.304 0 0 1-.383 1.26z" opacity=".1"/>
        <path fill="#2EC6FF" d="M259.86 180.754s1.624 2.266-.75 5.69c-2.372 3.424-4.326 6.313-3.538 8.447 0 0 3.58-6.356 6.492-6.447 2.912-.09.996-3.868-2.203-7.69z"/>
        <path fill="#000" d="M259.86 180.754c.142.22.254.458.332.71 2.841 3.568 4.357 6.898 1.623 6.98-2.545.079-5.597 4.941-6.328 6.166.023.1.052.197.085.293 0 0 3.58-6.357 6.492-6.447 2.912-.091.996-3.88-2.203-7.702z" opacity=".1"/>
        <path fill="#FFD037" d="M262.872 183.643c0 .798-.085 1.444-.187 1.444-.1 0-.188-.646-.188-1.444 0-.798.104-.421.208-.421s.167-.377.167.421z"/>
        <path fill="#FFD037" d="M263.909 184.596c-.654.38-1.226.611-1.276.515-.049-.097.441-.486 1.095-.877.654-.392.397-.106.446 0 .05.105.392-.02-.265.362z"/>
        <path fill="#2EC6FF" d="M251.283 180.754s-1.623 2.266.75 5.69c2.373 3.424 4.327 6.313 3.536 8.447 0 0-3.577-6.356-6.492-6.447-2.915-.09-.986-3.868 2.206-7.69z"/>
        <path fill="#000" d="M251.283 180.754a2.887 2.887 0 0 0-.331.71c-2.841 3.568-4.358 6.898-1.623 6.98 2.542.079 5.597 4.941 6.328 6.166a2.37 2.37 0 0 1-.088.293s-3.577-6.357-6.492-6.447c-2.915-.091-.986-3.88 2.206-7.702z" opacity=".1"/>
        <path fill="#FFD037" d="M248.267 183.643c0 .798.082 1.444.186 1.444s.189-.646.189-1.444c0-.798-.107-.421-.208-.421-.102 0-.167-.377-.167.421z"/>
        <path fill="#FFD037" d="M247.232 184.596c.654.38 1.226.611 1.276.515.049-.097-.441-.486-1.095-.877-.654-.392-.397-.106-.446 0-.05.105-.392-.02.265.362z"/>
        <ellipse cx="255.572" cy="209.455" fill="#2EC6FF" opacity=".1" rx="16.97" ry="2.781"/>
        <path fill="#65617D" d="M264.306 191.836l-.082.707-.115 1-.047.418-.115 1-.05.418-.111.997-1.3 11.374c-.115 1.015-1.667 1.807-3.542 1.807h-6.747c-1.875 0-3.424-.792-3.542-1.807l-1.3-11.374-.115-.997-.046-.418-.115-1-.05-.418-.112-1-.082-.707c-.063-.585.775-1.059 1.837-1.059h13.8c1.06 0 1.9.483 1.834 1.059z"/>
        <path fill="#9D9CB5" d="M264.224 192.543l-.113 1h-17.079l-.115-1zM264.062 193.961l-.112 1h-16.756l-.115-1zM263.9 195.38l-.114 1h-16.43l-.113-1z"/>
    </g>
</svg>
