<svg xmlns="http://www.w3.org/2000/svg" width="280" height="238" viewBox="0 0 280 238">
    <defs>
        <linearGradient id="a" x1="50.016%" x2="50.016%" y1="99.982%" y2=".001%">
            <stop offset="0%" stop-color="gray" stop-opacity=".25"/>
            <stop offset="54%" stop-color="gray" stop-opacity=".12"/>
            <stop offset="100%" stop-color="gray" stop-opacity=".1"/>
        </linearGradient>
        <linearGradient id="b" x1="50.028%" x2="50.028%" y1="99.976%" y2="-.106%">
            <stop offset="0%" stop-color="gray" stop-opacity=".25"/>
            <stop offset="54%" stop-color="gray" stop-opacity=".12"/>
            <stop offset="100%" stop-color="gray" stop-opacity=".1"/>
        </linearGradient>
        <linearGradient id="c" x1="49.927%" x2="49.927%" y1="99.961%" y2="-.078%">
            <stop offset="0%" stop-color="gray" stop-opacity=".25"/>
            <stop offset="54%" stop-color="gray" stop-opacity=".12"/>
            <stop offset="100%" stop-color="gray" stop-opacity=".1"/>
        </linearGradient>
        <linearGradient id="d" x1="50%" x2="50%" y1="99.99%" y2="0%">
            <stop offset="0%" stop-color="gray" stop-opacity=".25"/>
            <stop offset="54%" stop-color="gray" stop-opacity=".12"/>
            <stop offset="100%" stop-color="gray" stop-opacity=".1"/>
        </linearGradient>
        <linearGradient id="e" x1="49.97%" x2="49.97%" y1="100.035%" y2="0%">
            <stop offset="0%" stop-color="gray" stop-opacity=".25"/>
            <stop offset="54%" stop-color="gray" stop-opacity=".12"/>
            <stop offset="100%" stop-color="gray" stop-opacity=".1"/>
        </linearGradient>
        <linearGradient id="f" x1="50.021%" x2="50.021%" y1="99.979%" y2="-.046%">
            <stop offset="0%" stop-color="gray" stop-opacity=".25"/>
            <stop offset="54%" stop-color="gray" stop-opacity=".12"/>
            <stop offset="100%" stop-color="gray" stop-opacity=".1"/>
        </linearGradient>
        <linearGradient id="g" x1="50.024%" x2="50.024%" y1="78.348%" y2="21.348%">
            <stop offset="0%" stop-color="gray" stop-opacity=".25"/>
            <stop offset="54%" stop-color="gray" stop-opacity=".12"/>
            <stop offset="100%" stop-color="gray" stop-opacity=".1"/>
        </linearGradient>
        <linearGradient id="h" x1="50.001%" x2="50.001%" y1="99.927%" y2=".101%">
            <stop offset="0%" stop-color="gray" stop-opacity=".25"/>
            <stop offset="54%" stop-color="gray" stop-opacity=".12"/>
            <stop offset="100%" stop-color="gray" stop-opacity=".1"/>
        </linearGradient>
        <linearGradient id="i" x1="49.988%" x2="49.988%" y1="99.782%" y2="0%">
            <stop offset="0%" stop-color="gray" stop-opacity=".25"/>
            <stop offset="54%" stop-color="gray" stop-opacity=".12"/>
            <stop offset="100%" stop-color="gray" stop-opacity=".1"/>
        </linearGradient>
        <linearGradient id="j" x1="50.032%" x2="50.032%" y1="100%" y2=".02%">
            <stop offset="0%" stop-color="gray" stop-opacity=".25"/>
            <stop offset="54%" stop-color="gray" stop-opacity=".12"/>
            <stop offset="100%" stop-color="gray" stop-opacity=".1"/>
        </linearGradient>
        <linearGradient id="k" x1="50%" x2="50%" y1="100%" y2="0%">
            <stop offset="0%" stop-color="gray" stop-opacity=".25"/>
            <stop offset="54%" stop-color="gray" stop-opacity=".12"/>
            <stop offset="100%" stop-color="gray" stop-opacity=".1"/>
        </linearGradient>
        <linearGradient id="l" x1="50.004%" x2="50.004%" y1="100%" y2="-.007%">
            <stop offset="0%" stop-color="gray" stop-opacity=".25"/>
            <stop offset="54%" stop-color="gray" stop-opacity=".12"/>
            <stop offset="100%" stop-color="gray" stop-opacity=".1"/>
        </linearGradient>
        <linearGradient id="m" x1="49.994%" x2="49.994%" y1="99.899%" y2="-.124%">
            <stop offset="0%" stop-color="gray" stop-opacity=".25"/>
            <stop offset="54%" stop-color="gray" stop-opacity=".12"/>
            <stop offset="100%" stop-color="gray" stop-opacity=".1"/>
        </linearGradient>
        <linearGradient id="n" x1="49.975%" x2="49.975%" y1="99.987%" y2="-.029%">
            <stop offset="0%" stop-color="gray" stop-opacity=".25"/>
            <stop offset="54%" stop-color="gray" stop-opacity=".12"/>
            <stop offset="100%" stop-color="gray" stop-opacity=".1"/>
        </linearGradient>
        <linearGradient id="o" x1="50.04%" x2="50.04%" y1="99.997%" y2="-.18%">
            <stop offset="0%" stop-color="gray" stop-opacity=".25"/>
            <stop offset="54%" stop-color="gray" stop-opacity=".12"/>
            <stop offset="100%" stop-color="gray" stop-opacity=".1"/>
        </linearGradient>
        <linearGradient id="p" x1="50.04%" x2="50.04%" y1="99.797%" y2="-.19%">
            <stop offset="0%" stop-color="gray" stop-opacity=".25"/>
            <stop offset="54%" stop-color="gray" stop-opacity=".12"/>
            <stop offset="100%" stop-color="gray" stop-opacity=".1"/>
        </linearGradient>
        <linearGradient id="q" x1="49.828%" x2="49.828%" y1="100%" y2="0%">
            <stop offset="0%" stop-color="gray" stop-opacity=".25"/>
            <stop offset="54%" stop-color="gray" stop-opacity=".12"/>
            <stop offset="100%" stop-color="gray" stop-opacity=".1"/>
        </linearGradient>
        <linearGradient id="r" x1="49.939%" x2="49.939%" y1="99.889%" y2="-.222%">
            <stop offset="0%" stop-color="gray" stop-opacity=".25"/>
            <stop offset="54%" stop-color="gray" stop-opacity=".12"/>
            <stop offset="100%" stop-color="gray" stop-opacity=".1"/>
        </linearGradient>
        <linearGradient id="s" x1="50.007%" x2="50.007%" y1="100.021%" y2=".095%">
            <stop offset="0%" stop-color="gray" stop-opacity=".25"/>
            <stop offset="54%" stop-color="gray" stop-opacity=".12"/>
            <stop offset="100%" stop-color="gray" stop-opacity=".1"/>
        </linearGradient>
        <linearGradient id="t" x1="49.986%" x2="49.986%" y1="100.005%" y2="0%">
            <stop offset="0%" stop-color="gray" stop-opacity=".25"/>
            <stop offset="54%" stop-color="gray" stop-opacity=".12"/>
            <stop offset="100%" stop-color="gray" stop-opacity=".1"/>
        </linearGradient>
        <linearGradient id="u" x1="49.783%" x2="49.783%" y1="100.118%" y2="0%">
            <stop offset="0%" stop-color="gray" stop-opacity=".25"/>
            <stop offset="54%" stop-color="gray" stop-opacity=".12"/>
            <stop offset="100%" stop-color="gray" stop-opacity=".1"/>
        </linearGradient>
        <linearGradient id="v" x1="49.791%" x2="49.791%" y1="100.035%" y2="0%">
            <stop offset="0%" stop-color="gray" stop-opacity=".25"/>
            <stop offset="54%" stop-color="gray" stop-opacity=".12"/>
            <stop offset="100%" stop-color="gray" stop-opacity=".1"/>
        </linearGradient>
        <linearGradient id="w" x1="51.108%" x2="51.108%" y1="100.087%" y2="0%">
            <stop offset="0%" stop-color="gray" stop-opacity=".25"/>
            <stop offset="54%" stop-color="gray" stop-opacity=".12"/>
            <stop offset="100%" stop-color="gray" stop-opacity=".1"/>
        </linearGradient>
        <linearGradient id="x" x1="49.981%" x2="49.981%" y1="100.109%" y2=".574%">
            <stop offset="0%" stop-color="gray" stop-opacity=".25"/>
            <stop offset="54%" stop-color="gray" stop-opacity=".12"/>
            <stop offset="100%" stop-color="gray" stop-opacity=".1"/>
        </linearGradient>
        <linearGradient id="y" x1="50%" x2="50%" y1="100.006%" y2="0%">
            <stop offset="0%" stop-color="gray" stop-opacity=".25"/>
            <stop offset="54%" stop-color="gray" stop-opacity=".12"/>
            <stop offset="100%" stop-color="gray" stop-opacity=".1"/>
        </linearGradient>
        <linearGradient id="z" x1="49.993%" x2="49.993%" y1="66.72%" y2="32.72%">
            <stop offset="0%" stop-color="gray" stop-opacity=".25"/>
            <stop offset="54%" stop-color="gray" stop-opacity=".12"/>
            <stop offset="100%" stop-color="gray" stop-opacity=".1"/>
        </linearGradient>
        <linearGradient id="A" x1="49.997%" x2="49.997%" y1="100.025%" y2="0%">
            <stop offset="0%" stop-color="gray" stop-opacity=".25"/>
            <stop offset="54%" stop-color="gray" stop-opacity=".12"/>
            <stop offset="100%" stop-color="gray" stop-opacity=".1"/>
        </linearGradient>
        <linearGradient id="B" x1="49.996%" x2="49.996%" y1="99.974%" y2="-.014%">
            <stop offset="0%" stop-color="gray" stop-opacity=".25"/>
            <stop offset="54%" stop-color="gray" stop-opacity=".12"/>
            <stop offset="100%" stop-color="gray" stop-opacity=".1"/>
        </linearGradient>
        <linearGradient id="C" x1="49.713%" x2="49.713%" y1="100%" y2="0%">
            <stop offset="0%" stop-color="gray" stop-opacity=".25"/>
            <stop offset="54%" stop-color="gray" stop-opacity=".12"/>
            <stop offset="100%" stop-color="gray" stop-opacity=".1"/>
        </linearGradient>
        <linearGradient id="D" x1="49.888%" x2="49.888%" y1="100%" y2="-.036%">
            <stop offset="0%" stop-color="gray" stop-opacity=".25"/>
            <stop offset="54%" stop-color="gray" stop-opacity=".12"/>
            <stop offset="100%" stop-color="gray" stop-opacity=".1"/>
        </linearGradient>
        <linearGradient id="E" x1="50.033%" x2="50.033%" y1="99.858%" y2="-.134%">
            <stop offset="0%" stop-color="gray" stop-opacity=".25"/>
            <stop offset="54%" stop-color="gray" stop-opacity=".12"/>
            <stop offset="100%" stop-color="gray" stop-opacity=".1"/>
        </linearGradient>
        <linearGradient id="F" x1="50.083%" x2="50.083%" y1="100%" y2="0%">
            <stop offset="0%" stop-color="gray" stop-opacity=".25"/>
            <stop offset="54%" stop-color="gray" stop-opacity=".12"/>
            <stop offset="100%" stop-color="gray" stop-opacity=".1"/>
        </linearGradient>
        <linearGradient id="G" x1="50.074%" x2="50.074%" y1="99.959%" y2="0%">
            <stop offset="0%" stop-color="gray" stop-opacity=".25"/>
            <stop offset="54%" stop-color="gray" stop-opacity=".12"/>
            <stop offset="100%" stop-color="gray" stop-opacity=".1"/>
        </linearGradient>
        <linearGradient id="H" x1="50.009%" x2="50.009%" y1="100.128%" y2=".043%">
            <stop offset="0%" stop-color="gray" stop-opacity=".25"/>
            <stop offset="54%" stop-color="gray" stop-opacity=".12"/>
            <stop offset="100%" stop-color="gray" stop-opacity=".1"/>
        </linearGradient>
        <linearGradient id="I" x1="49.992%" x2="49.992%" y1="100.132%" y2=".132%">
            <stop offset="0%" stop-color="gray" stop-opacity=".25"/>
            <stop offset="54%" stop-color="gray" stop-opacity=".12"/>
            <stop offset="100%" stop-color="gray" stop-opacity=".1"/>
        </linearGradient>
    </defs>
    <g fill="none" fill-rule="evenodd">
        <path fill="#2EC6FF" d="M159.74 33.35c-17.064-.67-33.316-6.928-48.834-13.771-15.519-6.844-30.89-14.436-47.545-18.05C52.65-.804 40.397-1.134 31.768 5.39c-8.303 6.274-10.992 17.118-12.434 27.159-1.087 7.562-1.725 15.522 1.25 22.602 2.066 4.916 5.731 9.047 8.268 13.753 8.824 16.385 2.586 36.586-6.974 52.582-4.482 7.502-9.69 14.669-13.151 22.647-3.462 7.978-5.062 17.14-2.033 25.288 3 8.083 10.153 14.142 17.902 18.408 15.738 8.667 34.275 11.146 52.364 12.553 40.031 3.108 80.272 1.763 120.408.413 14.855-.497 29.772-1.003 44.384-3.61 8.115-1.45 16.491-3.748 22.384-9.299 7.477-7.044 9.33-18.97 4.319-27.805-8.406-14.816-31.639-18.495-37.52-34.395-3.233-8.754.086-18.501 4.787-26.617 10.082-17.415 26.98-32.691 27.868-52.594.612-13.669-7.511-27.36-20.072-33.829-13.164-6.78-31.422-5.927-41.13 5.293-10.005 11.559-27.586 16.008-42.648 15.412z" opacity=".1"/>
        <path fill="#E8E9ED" d="M0 36.966h68.421v77.69H0zM211.579 36.966H280v77.69h-68.421z"/>
        <path fill="#3ACC6C" d="M38.333 9.589l-.683-.793a.135.135 0 0 0-.108-.054.13.13 0 0 0-.108.054l-4.72 5.388-1.719-1.949a.14.14 0 0 0-.108-.053.14.14 0 0 0-.108.053l-.688.782a.186.186 0 0 0-.048.125c0 .048.017.093.048.126l2.167 2.458a.651.651 0 0 0 .45.251.686.686 0 0 0 .452-.242l5.175-5.895a.208.208 0 0 0 0-.251h-.002z" opacity=".5"/>
        <path fill="#2EC6FF" fill-rule="nonzero" d="M34.209 4.455c3.319.002 6.174 2.666 6.82 6.363.646 3.696-1.098 7.396-4.165 8.837-3.066 1.441-6.602.222-8.446-2.912-1.843-3.134-1.48-7.31.866-9.974 1.304-1.487 3.077-2.32 4.925-2.314zm0-1.23c-3.256 0-6.191 2.226-7.437 5.642-1.246 3.416-.556 7.347 1.746 9.96 2.303 2.615 5.765 3.396 8.773 1.98 3.008-1.415 4.968-4.749 4.967-8.446.001-2.424-.847-4.749-2.357-6.463-1.51-1.713-3.557-2.675-5.692-2.674z" opacity=".5"/>
        <path fill="#3ACC6C" d="M91.177 35.134l-.86-1a.17.17 0 0 0-.134-.066.165.165 0 0 0-.137.066l-5.94 6.796-2.165-2.455a.175.175 0 0 0-.135-.066.18.18 0 0 0-.137.066l-.867.985a.23.23 0 0 0-.06.157c0 .06.022.117.06.157l2.726 3.09a.82.82 0 0 0 .57.314.863.863 0 0 0 .564-.3l6.512-7.435a.262.262 0 0 0 0-.3l.003-.009z" opacity=".8"/>
        <path fill="#2EC6FF" fill-rule="nonzero" d="M85.983 28.668c4.182 0 7.78 3.356 8.596 8.013.815 4.658-1.38 9.32-5.244 11.138-3.864 1.816-8.32.281-10.643-3.667-2.324-3.948-1.867-9.21 1.09-12.568 1.64-1.875 3.873-2.925 6.2-2.916zm0-1.548c-5.596 0-10.133 5.15-10.133 11.505 0 6.354 4.537 11.505 10.133 11.505 5.596 0 10.132-5.151 10.132-11.505 0-3.052-1.067-5.978-2.967-8.136-1.9-2.158-4.478-3.37-7.165-3.369z" opacity=".8"/>
        <path fill="#2EC6FF" fill-rule="nonzero" d="M245.788 4.455c3.32.002 6.174 2.666 6.82 6.363.646 3.696-1.098 7.396-4.164 8.837-3.067 1.441-6.603.222-8.446-2.912-1.844-3.134-1.481-7.31.865-9.974 1.304-1.487 3.077-2.32 4.925-2.314zm0-1.23c-3.256 0-6.19 2.226-7.437 5.642-1.245 3.416-.556 7.347 1.747 9.96 2.302 2.615 5.765 3.396 8.773 1.98 3.007-1.415 4.968-4.749 4.967-8.446 0-2.424-.848-4.749-2.357-6.463-1.51-1.713-3.558-2.675-5.693-2.674z" opacity=".5"/>
        <path fill="#2EC6FF" fill-rule="nonzero" d="M193.646 28.668c4.183-.006 7.787 3.345 8.607 8.002.82 4.658-1.372 9.325-5.236 11.146-3.864 1.82-8.322.288-10.647-3.66-2.326-3.95-1.87-9.213 1.088-12.572 1.641-1.873 3.874-2.923 6.2-2.916h-.012zm.013-1.548c-5.596 0-10.132 5.15-10.132 11.505 0 6.354 4.536 11.505 10.132 11.505s10.132-5.151 10.132-11.505c0-3.054-1.068-5.983-2.972-8.141-1.903-2.159-4.484-3.369-7.173-3.364h.013z" opacity=".8"/>
        <path fill="#2EC6FF" fill-rule="nonzero" d="M139.56 46.923c5.526.005 10.28 4.44 11.355 10.595 1.076 6.155-1.827 12.315-6.933 14.714-5.106 2.4-10.994.37-14.064-4.848-3.069-5.218-2.465-12.17 1.442-16.608 2.17-2.476 5.123-3.864 8.2-3.853zm0-2.047c-7.399 0-13.397 6.81-13.397 15.21 0 8.402 5.998 15.212 13.397 15.212 7.398 0 13.396-6.81 13.396-15.211 0-4.035-1.41-7.904-3.923-10.757-2.512-2.853-5.92-4.455-9.473-4.454z"/>
        <path fill="#F3F5F7" d="M47.858 57.33h76.249v86.578H47.858zM155.521 57.33h76.249v86.578h-76.249z"/>
        <path fill="#000" d="M6.837 50.758h25.432v3.209H6.837zM223.892 50.758h25.432v3.209h-25.432z" opacity=".1"/>
        <path stroke="#535461" stroke-width="2" d="M184.871 185.134s6.607-13.289 16.558-17.118c4.182-1.576 7.801-4.65 10.314-8.76a40.922 40.922 0 0 0 3.042-6.223"/>
        <path fill="#2EC6FF" d="M221.042 150.587c-1.134 1.248-6.415 2.541-6.415 2.541s1.297-5.954 2.431-7.206c1.134-1.249 2.946-1.217 4.046.07 1.1 1.289 1.072 3.346-.062 4.595zM218.055 161.358c-1.55.35-6.592-1.823-6.592-1.823s3.937-4.191 5.487-4.548c1.531-.304 2.996.837 3.298 2.568.303 1.732-.668 3.42-2.185 3.803h-.008zM207.179 173.019c-1.492-.6-4.886-5.36-4.886-5.36s5.273-1.367 6.758-.78c.966.38 1.68 1.315 1.873 2.455.194 1.14-.163 2.31-.936 3.07-.772.76-1.843.994-2.81.615zM197.213 179.733c-1.561-.299-5.616-4.343-5.616-4.343s4.988-2.357 6.547-2.066c1.016.18 1.869.964 2.234 2.055.366 1.092.187 2.322-.467 3.222-.655.9-1.685 1.333-2.698 1.132zM207.052 154.883c0 1.796 2.858 6.996 2.858 6.996s2.858-5.2 2.858-6.993c0-1.794-1.28-3.249-2.86-3.249-1.58 0-2.86 1.455-2.86 3.249l.004-.003zM195.47 162.912c.472 1.712 4.572 5.706 4.572 5.706s1.36-5.934.888-7.646c-.305-1.108-1.107-1.946-2.105-2.2-.997-.254-2.038.116-2.73.97-.692.854-.93 2.062-.625 3.17zM185.156 172.459c.21 1.778 3.654 6.499 3.654 6.499s2.225-5.586 2.017-7.364c-.136-1.15-.802-2.131-1.748-2.573-.945-.44-2.026-.276-2.835.433-.81.709-1.224 1.854-1.088 3.005z"/>
        <path fill="#000" d="M221.042 150.587c-1.134 1.248-6.415 2.541-6.415 2.541s1.297-5.954 2.431-7.206c1.134-1.249 2.946-1.217 4.046.07 1.1 1.289 1.072 3.346-.062 4.595zM218.055 161.358c-1.55.35-6.592-1.823-6.592-1.823s3.937-4.191 5.487-4.548c1.531-.304 2.996.837 3.298 2.568.303 1.732-.668 3.42-2.185 3.803h-.008zM207.179 173.019c-1.492-.6-4.886-5.36-4.886-5.36s5.273-1.367 6.758-.78c.966.38 1.68 1.315 1.873 2.455.194 1.14-.163 2.31-.936 3.07-.772.76-1.843.994-2.81.615zM197.213 179.733c-1.561-.299-5.616-4.343-5.616-4.343s4.988-2.357 6.547-2.066c1.016.18 1.869.964 2.234 2.055.366 1.092.187 2.322-.467 3.222-.655.9-1.685 1.333-2.698 1.132zM207.052 154.883c0 1.796 2.858 6.996 2.858 6.996s2.858-5.2 2.858-6.993c0-1.794-1.28-3.249-2.86-3.249-1.58 0-2.86 1.455-2.86 3.249l.004-.003zM195.47 162.912c.472 1.712 4.572 5.706 4.572 5.706s1.36-5.934.888-7.646c-.305-1.108-1.107-1.946-2.105-2.2-.997-.254-2.038.116-2.73.97-.692.854-.93 2.062-.625 3.17zM185.156 172.459c.21 1.778 3.654 6.499 3.654 6.499s2.225-5.586 2.017-7.364c-.136-1.15-.802-2.131-1.748-2.573-.945-.44-2.026-.276-2.835.433-.81.709-1.224 1.854-1.088 3.005z" opacity=".25"/>
        <path stroke="#535461" stroke-width="2" d="M185.25 184.87s1.3-15.186 9.028-23.267c3.262-3.368 5.474-7.846 6.304-12.762a44.15 44.15 0 0 0 .562-7.083"/>
        <path fill="#2EC6FF" d="M205.99 136.642c-.59 1.664-4.957 5.275-4.957 5.275s-.941-6.038-.35-7.703c.381-1.076 1.24-1.84 2.252-2.002 1.012-.163 2.024.3 2.654 1.213.63.914.783 2.14.4 3.217zM207.102 147.865c-1.291 1.033-6.683 1.371-6.683 1.371s2.11-5.652 3.393-6.681c1.291-.967 3.024-.593 3.914.843.89 1.436.613 3.414-.624 4.467zM201.32 163.528c-1.581.15-6.377-2.649-6.377-2.649s4.324-3.673 5.898-3.823c1.029-.12 2.034.4 2.63 1.361.595.96.688 2.21.242 3.27-.446 1.06-1.36 1.764-2.392 1.841zM194.597 174.26c-1.531.45-6.683-1.388-6.683-1.388s3.717-4.449 5.246-4.9c1.516-.41 3.041.63 3.433 2.343.39 1.712-.496 3.465-1.996 3.943v.003zM194.732 147.01c.64 1.64 5.11 5.088 5.11 5.088s.761-6.07.123-7.711c-.64-1.641-2.33-2.383-3.775-1.656-1.445.727-2.098 2.646-1.458 4.287v-.009zM187.007 159.673c1.054 1.347 6.217 3.113 6.217 3.113s-.876-6.053-1.917-7.4c-1.043-1.349-2.85-1.482-4.038-.298-1.187 1.184-1.305 3.236-.262 4.585zM180.988 173.15c.825 1.53 5.66 4.263 5.66 4.263s.042-6.134-.79-7.664c-.828-1.528-2.59-2.006-3.936-1.067-1.346.94-1.767 2.94-.94 4.468h.006z"/>
        <path fill="#000" d="M57.701 75.81h25.432v3.209H57.701zM104.565 104.019h15.184v3.209h-15.184zM104.565 125.556h22.484v3.209h-22.484zM57.701 87.12h25.432v3.209H57.701zM172.145 75.81h25.432v3.209h-25.432zM172.145 87.12h25.432v3.209h-25.432z" opacity=".1"/>
        <path fill="#2EC6FF" d="M135.956 64.56l.711-1.06c.685.762 1.604 1.191 2.563 1.197 1.202 0 2.094-.668 2.094-1.748 0-1.174-.855-1.946-3.222-1.946v-1.219c2.109 0 2.9-.787 2.9-1.826 0-.94-.71-1.527-1.761-1.527-.82.028-1.603.392-2.204 1.024l-.757-1.024c.831-.843 1.904-1.317 3.019-1.332 1.822 0 3.164.994 3.164 2.736 0 1.228-.791 2.03-1.93 2.473v.066c1.22.3 2.243 1.219 2.243 2.653 0 1.892-1.582 3.026-3.448 3.026-1.588-.003-2.676-.688-3.372-1.494z"/>
        <path fill="#2EC6FF" d="M194.487 36.972c0-.574.044-1.308.07-1.883h-.065c-.29.51-.62 1.015-.915 1.521l-2.11 3.072h5.6v1.236h-7.044V39.87l4.205-6.287h1.548v9.996h-1.29v-6.607z" opacity=".8"/>
        <path fill="#2EC6FF" d="M243.049 15.531l.477-.74c.462.514 1.081.803 1.727.806.85 0 1.516-.575 1.516-1.518 0-.943-.588-1.452-1.46-1.452a2.045 2.045 0 0 0-1.245.417l-.496-.363.2-3.535h3.692v.973h-2.821l-.156 1.937a2.335 2.335 0 0 1 1.094-.264c1.21 0 2.197.707 2.197 2.27 0 1.562-1.155 2.475-2.402 2.475-.861.029-1.697-.333-2.323-1.006z" opacity=".5"/>
        <path fill="#2EC6FF" d="M91.53 84.818h94.253V191.84H91.53z" opacity=".1"/>
        <path fill="#FFF" d="M94.694 79.729h94.253v107.022H94.694z"/>
        <path fill="#2EC6FF" d="M104.565 91.584h74.508v3.209h-74.508z" opacity=".5"/>
        <path fill="#000" d="M104.565 114.788h47.444v3.209h-47.444zM104.565 136.328h46.034v3.209h-46.034zM104.565 147.096h62.752v3.209h-62.752z" opacity=".1"/>
        <path fill="#3ACC6C" d="M165.448 115.072l-.324-.38a.074.074 0 0 0-.053-.024.067.067 0 0 0-.05.024l-2.25 2.575-.82-.931a.08.08 0 0 0-.052-.024.072.072 0 0 0-.05.024l-.33.374a.09.09 0 0 0-.022.06.09.09 0 0 0 .022.06l1.034 1.17c.056.07.133.112.216.12a.318.318 0 0 0 .214-.117l2.465-2.811a.106.106 0 0 0 0-.12z" opacity=".5"/>
        <path fill="#3ACC6C" fill-rule="nonzero" d="M163.484 112.617c1.585 0 2.95 1.27 3.26 3.035.31 1.765-.521 3.533-1.986 4.222-1.464.69-3.153.108-4.034-1.388-.88-1.497-.708-3.491.413-4.764.62-.71 1.466-1.107 2.347-1.105zm0-.583c-1.552-.002-2.952 1.06-3.547 2.687-.594 1.628-.266 3.502.831 4.749 1.098 1.246 2.749 1.618 4.182.943 1.434-.675 2.368-2.264 2.367-4.027-.003-2.401-1.718-4.346-3.833-4.346v-.006z" opacity=".5"/>
        <path fill="#3ACC6C" d="M165.448 136.609l-.324-.377a.065.065 0 0 0-.053-.024.06.06 0 0 0-.05.024l-2.25 2.571-.82-.928a.07.07 0 0 0-.052-.027c-.02.001-.037.01-.05.027l-.33.372a.09.09 0 0 0-.022.06.09.09 0 0 0 .022.06l1.034 1.173c.056.07.133.112.216.12a.33.33 0 0 0 .214-.117l2.465-2.814a.106.106 0 0 0 0-.12z" opacity=".5"/>
        <path fill="#3ACC6C" fill-rule="nonzero" d="M163.484 134.172c1.585-.001 2.95 1.27 3.26 3.034.31 1.765-.521 3.533-1.986 4.223-1.464.689-3.153.108-4.034-1.389-.88-1.496-.708-3.49.413-4.763.62-.71 1.466-1.107 2.347-1.105zm0-.599c-1.552 0-2.952 1.06-3.546 2.687-.595 1.628-.267 3.502.83 4.748 1.096 1.247 2.747 1.62 4.18.946 1.434-.674 2.37-2.263 2.37-4.025 0-1.155-.404-2.263-1.123-3.08-.719-.817-1.694-1.276-2.711-1.276z" opacity=".5"/>
        <ellipse cx="135.125" cy="234.222" fill="#2EC6FF" opacity=".1" rx="18.827" ry="3.586"/>
        <path fill="#2EC6FF" d="M34.515 207.575s.98 1.458-.454 3.661c-1.434 2.204-2.62 4.06-2.14 5.434 0 0 2.164-4.09 3.928-4.146 1.764-.057.604-2.488-1.334-4.95z"/>
        <path fill="#000" d="M34.515 207.575c.085.141.153.295.2.458 1.72 2.296 2.637 4.437.984 4.49-1.54.051-3.388 3.177-3.831 3.967.014.061.031.121.053.18 0 0 2.164-4.09 3.928-4.146 1.764-.057.604-2.488-1.334-4.95z" opacity=".1"/>
        <path fill="#FFD037" d="M36.34 209.434c0 .515-.05.931-.114.931-.063 0-.113-.416-.113-.931 0-.515.063-.272.126-.272s.1-.24.1.272z"/>
        <path fill="#FFD037" d="M36.967 210.048c-.398.245-.744.395-.773.332-.029-.063.264-.3.665-.56.4-.26.24-.066.263 0 .024.066.24-.018-.155.228z"/>
        <path fill="#2EC6FF" d="M29.326 207.575s-.983 1.458.454 3.661c1.437 2.204 2.618 4.06 2.14 5.434 0 0-2.167-4.09-3.928-4.146-1.761-.057-.606-2.488 1.334-4.95z"/>
        <path fill="#000" d="M29.326 207.575a1.932 1.932 0 0 0-.2.458c-1.722 2.296-2.637 4.437-.984 4.49 1.54.051 3.388 3.177 3.831 3.967-.016.06-.031.12-.052.18 0 0-2.168-4.09-3.929-4.146-1.761-.057-.606-2.488 1.334-4.95z" opacity=".1"/>
        <path fill="#FFD037" d="M27.5 209.434c0 .515.05.931.112.931.064 0 .114-.416.114-.931 0-.515-.063-.272-.127-.272-.063 0-.1-.24-.1.272z"/>
        <path fill="#FFD037" d="M26.874 210.048c.396.245.741.395.773.332.031-.063-.264-.3-.665-.56-.4-.26-.24-.066-.263 0-.024.066-.243-.018.155.228z"/>
        <ellipse cx="31.921" cy="226.037" fill="#2EC6FF" opacity=".1" rx="10.269" ry="1.79"/>
        <path fill="#65617D" d="M37.207 214.703l-.05.458-.069.64-.029.27-.068.644-.03.27-.07.64-.792 7.316c-.068.653-1.01 1.162-2.143 1.162h-4.079c-1.133 0-2.072-.509-2.14-1.162l-.792-7.316-.068-.64-.03-.27-.068-.644-.029-.27-.068-.64-.053-.458c-.04-.368.47-.68 1.11-.68h8.353c.645 0 1.154.312 1.115.68z"/>
        <path fill="#9D9CB5" d="M37.157 215.158l-.069.644H26.753l-.071-.644zM37.06 216.071l-.07.644H26.85l-.068-.644zM36.962 216.981l-.072.644h-9.942l-.069-.644z"/>
        <path fill="#000" fill-rule="nonzero" d="M155.777 138.247c-.177-.41-1.582-5.688-1.582-5.688l-2.708-7.805s-1.642-10.272-4.094-7.709c-2.452 2.563 1.318 8.712 1.318 8.712s1.548 4.49 1.469 5.388c-.08.899.862 4.192.862 4.192l-.306 1.892c-.398-.03-.657-.03-.657-.03s-.242.395-.474.422c-.04.006-.08 0-.116-.018-.264-.135-1.136-.108-1.582-.108a3.253 3.253 0 0 1-1.184-.43c-.153-.348-1.018-.555-1.785-.672-.582-1.646-1.402-3.248-1.516-4.966a2.394 2.394 0 0 1 .232-1.353c.051-.088.11-.17.174-.246.214-.245.475-.46.712-.688.119-.114.227-.23.33-.35 2.011-2.216 1.692-5.647-.132-8.02-2.11-2.746-11.622-8.653-14.501-3.593-.4.706-.414 1.524-.527 2.308-.287 1.918-1.08 3.693-2.273 5.09-.955 1.152-2.207 2.215-2.755 3.52l-.019-.048c-.13.283-.226.585-.284.898-.277 1.59.667 3.12 1.162 4.667.169.526.29 1.07.364 1.623l.032-.341c.121.79.163 1.594.124 2.395-3.454.802-3.457 7.562-3.457 7.562s-.424 2.694-.353 3.655c.071.961.071 3.063.071 3.575 0 .511-.427 3.655-.475 4.032-.06.416-.709 2.41.857 2.859.108.033.224.06.343.084.066 1.613.19 5 .082 5.748 0 0 .57 4.544 1.041 5.688.303.676.656 1.322 1.055 1.93a2.289 2.289 0 0 1-.24.782c-.24.398-.116.725.287.865-.012.138-.028.294-.047.467-.172 1.755-.43 5.236 0 7.003.604 2.419.638 3.224.638 3.224 0 .393.085.781.248 1.128.263.405.712 4.153.712 4.757 0 .605 1.207 6.048.851 7.338-.356 1.29-.071 3.105-.071 3.105s-.214 3.185-.461 3.87c-.248.686-.356 11.733.034 14.595s.64 5.242.64 5.242-.263 2.62-.036 2.993c.226.375.603 2.542.319 2.662-.285.12-.425 1.009-.425 1.009.15.26.312.51.485.751a2.519 2.519 0 0 1-.321-.156c.113.183.282.435.487.71l-.192 2.898c-.017.234.116.449.316.509 1.27.395 2.63-.042 3.528-1.135 1.774-2.056 2.373-1.772 2.7-3.023.031-.135.063-.264.087-.39.1-.492-.06-1.005-.408-1.319a1.042 1.042 0 0 0-1.224-.148c.113-.898.203-1.883.116-2.448-.177-1.168-.143-4.233-.143-4.233l-.247-14.67s.461-2.9.994-4.03c.532-1.128.461-5.089.461-5.089l.604-12.983.6-6.287s.568-2.176 1.277.242c0 0-.39 4.877-.21 6.048.178 1.17.424 6.852.247 8.104-.177 1.251-.96 8.104-.462 9.837.499 1.733 1.029 3.829.923 4.515-.105.685-.461 15.567-.461 15.567s.957 2.862.248 3.79c-.71.928-.035 4.637-.035 4.637s.085.069.232.168l-.02.3-.222 3.334c-.016.234.117.448.316.51 1.27.393 2.629-.043 3.528-1.136 1.774-2.056 2.373-1.775 2.7-3.023.031-.135.063-.267.09-.392.11-.548-.1-1.114-.52-1.408a1.046 1.046 0 0 0-1.382.144 1.85 1.85 0 0 1-.14.123l-.068.051c.177-.922.435-2.494.314-3.236-.177-1.09.177-4.395.177-4.395s1.03-3.952 1.054-5.523c.024-1.572.285-12.574.285-12.574s-.034-5.12.108-6.368c.142-1.248 1.276-12.055 2.412-15.268.873-2.472 1.263-8.774 1.031-11.974-.013-.162-.026-.3-.04-.455 1.39-1.186 1.538-3.138 1.538-3.138s-1.279-2.796-2.51-3.978c-1.231-1.183-1.516-3.225-1.469-4.087a2.315 2.315 0 0 0-.424-1.449s-.57-2.095-.95-2.311a.271.271 0 0 1-.081-.072c-.264-.317-.06-1.218-.06-1.218v-.027c.042-.21.318-1.563.229-1.91-.09-.347.047-2.15.047-2.15s.902-3.062.76-5.481c-.143-2.42 1.845-2.207 1.845-2.207l6.14-.071h.7c.294-.286.56-.608.79-.961.48.102.974-.036 1.358-.378 1.303-1.353 1.142-3.936.965-4.352zm-28.556 20.956l.045-1.228.24.234c.073.322.073.66 0 .982-.076.306-.27.557-.528.682a.58.58 0 0 0-.087.06l-.06-.7c.25-.018.39-.033.39-.033v.003z" opacity=".1"/>
        <path fill="url(#a)" d="M150.256 140.627s3.496 2.553 4.82 1.197c1.323-1.356 1.16-3.973.98-4.386-.179-.413-1.603-5.727-1.603-5.727l-2.75-7.867s-1.671-10.355-4.165-7.784c-2.494 2.572 1.344 8.78 1.344 8.78s1.582 4.53 1.493 5.437c-.09.907.875 4.23.875 4.23l-.994 6.12z"/>
        <path fill="url(#b)" d="M143.736 232.884c-.026.128-.055.26-.092.395-.325 1.26-.939.976-2.742 3.048-.918 1.103-2.296 1.543-3.586 1.143-.202-.06-.337-.275-.322-.512l.227-3.362.108-1.62s2.871.917 4.335-.242c.047-.039.095-.078.14-.123l.042-.038c.385-.36.929-.402 1.355-.107.425.295.64.864.535 1.418z"/>
        <path fill="url(#c)" d="M134.727 231.614c-.024.13-.055.26-.09.396-.324 1.26-.938.976-2.742 3.047-.918 1.103-2.295 1.543-3.585 1.147-.204-.06-.34-.277-.322-.515l.224-3.362.11-1.62s2.872.916 4.333-.242c.05-.04.095-.078.142-.123l.042-.039a1.06 1.06 0 0 1 1.355-.108c.426.296.64.866.533 1.42z"/>
        <path fill="url(#d)" d="M4.145.108l.118 1.745C2.613 3.71.651.955.071.04c1.51.88 4.074.069 4.074.069z" opacity=".1" transform="translate(127.608 232.013)"/>
        <path fill="url(#e)" d="M4.342 1.117l.22-.162c-1.509 2.58-3.745 1.39-4.44.928L.228.263s2.872.917 4.335-.242c-.116.632-.222 1.096-.222 1.096z" opacity=".1" transform="translate(137.1 231.713)"/>
        <path fill="url(#f)" d="M146.027 184.014c-1.155 3.252-2.31 14.146-2.454 15.406-.146 1.26-.109 6.422-.109 6.422l-.3 12.68c-.034 1.588-1.081 5.57-1.081 5.57s-.361 3.334-.182 4.43c.18 1.096-.47 3.985-.47 3.985l.22-.162c-1.807 3.086-4.657.77-4.657.77s-.685-3.74.035-4.674c.72-.934-.25-3.82-.25-3.82s.358-14.998.468-15.69c.111-.691-.41-2.805-.938-4.553-.527-1.749.287-8.658.47-9.919.181-1.26-.075-6.99-.264-8.17-.19-1.179.216-6.098.216-6.098-.723-2.436-1.3-.242-1.3-.242l-.578 6.383-.593 13.103s.074 3.982-.469 5.12c-.543 1.137-1.01 4.065-1.01 4.065l.264 14.795s-.037 3.09.145 4.269c.182 1.18-.398 4.227-.398 4.227-2.02 5.365-5.273-.446-5.273-.446s.142-.898.432-1.018c.29-.12-.108-2.317-.324-2.694-.216-.378.034-2.994.034-2.994s-.25-2.395-.649-5.287c-.398-2.892-.287-14.023-.036-14.714.25-.692.469-3.892.469-3.892s-.288-1.83.074-3.131c.36-1.303-.868-6.787-.868-7.398 0-.61-.47-4.389-.722-4.79-.17-.348-.26-.74-.264-1.137 0 0-.037-.815-.651-3.252-.448-1.796-.185-5.292 0-7.059.063-.655.116-1.072.116-1.072s20.715-3.78 21.546-2.924c.195.197.324.898.398 1.874.234 3.191-.164 9.547-1.047 12.037z"/>
        <path fill="url(#g)" d="M.04.409c.097 0 2.372.414 3.224.05C4.116.098.04.41.04.41z" opacity=".1" transform="translate(138.154 202.075)"/>
        <path fill="url(#h)" d="M.208.299s3.164.787 3.322.378C3.69.27.208.3.208.3z" opacity=".1" transform="translate(138.154 203.572)"/>
        <path fill="url(#i)" d="M.053.235S1.687.337 2.579.92C3.469 1.503.053.235.053.235z" opacity=".1" transform="translate(128.663 202.974)"/>
        <path fill="url(#j)" d="M122.773 157.58s.264 5.664.121 6.664c0 0 .578 4.58 1.055 5.745.43.929.938 1.809 1.516 2.628l1.418-11.244-.33-3.85-3.78.057z"/>
        <ellipse cx="137.69" cy="125.52" fill="url(#k)" rx="5.558" ry="6.26"/>
        <path fill="url(#l)" d="M134.803 128.448s-1.732 3.82-3.464 5.61c-1.732 1.79 10.393 3.82 10.68 3.82.288 0-2.164-8.128-1.732-9.104.433-.975-5.484-.326-5.484-.326z"/>
        <path fill="url(#m)" d="M22.102 2.203a3.505 3.505 0 0 1-.891.563c-2.212.976-4.62 2.332-6.257 1.796-1.637-.535-5.099 0-5.099 0S2.876 3.91 1.482 4.29a2.395 2.395 0 0 1-1.44.042C.105 3.676.158 3.26.158 3.26S20.873-.52 21.704.335c.195.192.324.883.398 1.868z" opacity=".1" transform="translate(124.972 169.743)"/>
        <path fill="url(#n)" d="M148.59 168.336s-.193 2.695-2.407 3.686c-2.215.99-4.62 2.332-6.257 1.796-1.637-.536-5.099 0-5.099 0s-6.979-.653-8.374-.273c-1.394.38-2.109-.107-1.684-.814.424-.706.387-3.033.387-4.008 0-.976-.482-4.934-.05-5.638.433-.703.818-3.412 1.685-3.847.263-.124.462-.377.54-.688a2.191 2.191 0 0 0 0-.991s-.145-.135-.348-.338c-.508-.512-1.373-1.464-1.096-1.776.385-.434 0-3.254 0-3.254s-.915-2.167-.578-2.978c.338-.812-2.934-5.09-2.934-5.09s0-7.37 3.955-7.697c0 0 2.789.111 3.126-1.299.338-1.41 2.55-2.224 2.55-2.224l5.052 1.248s4.482 1.084 5.294.434c.812-.65 1.445.865 1.445.865s2.79.165 3.08.815c.29.65-.916 6.99-.916 6.99s-2.022-.216-1.877 2.224c.145 2.44-.77 5.527-.77 5.527s-.145 1.796-.047 2.167c.097.371-.19 1.713-.235 1.925v.027s-.2.898.06 1.23a.401.401 0 0 0 .085.072c.385.216.962 2.33.962 2.33.301.409.456.93.435 1.463-.047.869.24 2.925 1.49 4.12 1.25 1.194 2.526 3.996 2.526 3.996z"/>
        <path fill="url(#o)" d="M127.126 155.79v.23l-.09 2.536s-2.958.27-4.572-.192c-1.613-.46-.93-2.464-.867-2.883.047-.38.48-3.55.48-4.065 0-.515 0-2.629-.071-3.593-.072-.964.36-3.685.36-3.685l.312-.434 3.393 1.464 1.055 10.622z"/>
        <path fill="url(#p)" d="M5.84.653l-.09 2.535s-2.958.27-4.571-.191C-.435 2.536.248.533.31.114L5.84.653z" opacity=".1" transform="translate(121.28 155.374)"/>
        <path fill="url(#q)" d="M.527 3.47a2.191 2.191 0 0 0 0-.991S.382 2.344.18 2.14C2.73 1.742 12.82.18 16.22.012v.027s-.2.898.06 1.23L.528 3.47z" opacity=".1" transform="translate(126.817 155.074)"/>
        <path fill="url(#r)" d="M1.811.054S2.436 4.039.103 5.443c0 0 1.323-1.985 1.708-5.39z" opacity=".1" transform="translate(141.582 160.463)"/>
        <path fill="url(#s)" d="M.243.754S5.872-.329 6.979.51C8.086 1.347.243.754.243.754z" opacity=".1" transform="translate(127.872 165.253)"/>
        <path fill="url(#t)" d="M.651.018s-.865 4.009-.216 4.93c.649.923.216-4.93.216-4.93z" opacity=".1" transform="translate(140.791 141.303)"/>
        <path fill="url(#u)" d="M.2.03s1 1.497.397 3.036C-.007 4.604.2.03.2.03z" opacity=".1" transform="translate(124.972 138.01)"/>
        <path fill="url(#v)" d="M123.495 151.102s1.01.68.673 1.736c-.338 1.057-.673-1.736-.673-1.736z"/>
        <path fill="url(#w)" d="M0 .123s.939.572 1.055 1.41C1.17 2.37 0 .123 0 .123z" opacity=".1" transform="translate(123.39 147.89)"/>
        <path fill="url(#x)" d="M.206 1.099S6.1 1.779 7.279.2c0 .006-5.317 1.197-7.073.898z" opacity=".1" transform="translate(137.1 179.323)"/>
        <path fill="url(#y)" d="M.047.123s6.328 1.68 7.578.35c0 0-5.437.461-7.578-.35z" opacity=".1" transform="translate(127.081 179.922)"/>
        <path fill="url(#z)" d="M.134.573s2.637 0 3.874.154C5.244.88.134.573.134.573z" opacity=".1" transform="translate(137.627 182.317)"/>
        <path fill="url(#A)" d="M.216.078s1.3 1.652 2.766 1.356C4.448 1.138.216.078.216.078z" opacity=".1" transform="translate(127.345 183.814)"/>
        <path fill="url(#B)" d="M130.113 116.21c-.409.712-.422 1.536-.527 2.326-.29 1.942-1.097 3.738-2.31 5.146-1.155 1.383-2.74 2.635-3.037 4.323-.282 1.605.677 3.146 1.181 4.706 1.318 4.117-.527 8.43-1.068 12.679-.147 1.173.032 2.673 1.318 3.062.401.123.86.108 1.219.3.485.26.632.802.722 1.29.321 1.744.432 3.53.33 5.308-.059 1-.122 2.146.714 2.832.426.298.896.51 1.387.622 1.318.402 3.024.722 3.912-.215.375-.392.528-.95.979-1.26.696-.465 1.684-.15 2.562-.102 1.69.082 3.286-.883 4.169-2.521.709-1.44.648-3.08.385-4.631-.264-1.551-.718-3.084-.752-4.653-.04-.55.068-1.1.311-1.577.528-.934 1.785-1.36 2.637-2.096 1.598-1.377 1.582-3.634 1.012-5.523-.57-1.89-1.624-3.694-1.753-5.646a2.39 2.39 0 0 1 .237-1.365c.28-.392.606-.737.97-1.024 2.334-2.219 2.06-5.865.13-8.359-2.141-2.775-11.815-8.732-14.728-3.622z"/>
        <g opacity=".1">
            <path fill="url(#C)" d="M1.798 11.972c.23-1.638.104-3.315-.366-4.886C1.168 6.3.807 5.514.54 4.727a3.65 3.65 0 0 0-.29.898c-.284 1.602.678 3.144 1.182 4.706a9.46 9.46 0 0 1 .366 1.64z" transform="translate(123.917 122.443)"/>
            <path fill="url(#D)" d="M3.955 29.725a22.137 22.137 0 0 0-.332-5.308c-.09-.488-.238-1.03-.72-1.29-.361-.195-.82-.18-1.22-.3-.497-.135-.911-.521-1.124-1.048-.071.413-.137.827-.19 1.237-.15 1.173.03 2.673 1.318 3.062.401.123.86.108 1.221.3.483.26.63.802.72 1.29.15.809.253 1.628.311 2.452-.005-.129.016-.264.016-.395z" transform="translate(123.917 122.443)"/>
            <path fill="url(#E)" d="M17.665 29.093c-.882 1.637-2.477 2.602-4.166 2.52-.878-.047-1.867-.362-2.563.102-.464.3-.606.869-.978 1.26-.888.938-2.594.617-3.912.216a3.941 3.941 0 0 1-1.387-.622 1.984 1.984 0 0 1-.683-1.252c0 .557 0 1.117-.032 1.674-.058.997-.121 2.143.715 2.829.426.3.895.51 1.387.622 1.318.405 3.024.722 3.912-.215.372-.392.527-.946.978-1.257.696-.467 1.685-.153 2.563-.102 1.69.082 3.285-.884 4.166-2.524.683-1.383.654-2.952.416-4.449a5.248 5.248 0 0 1-.416 1.198z" transform="translate(123.917 122.443)"/>
            <path fill="url(#F)" d="M20.72 2.569a5 5 0 0 0-.972 1.023c-.21.413-.292.894-.235 1.366.045.593.156 1.177.33 1.739.269-.321.563-.615.878-.877 1.581-1.497 1.961-3.653 1.45-5.661a5.272 5.272 0 0 1-1.45 2.41z" transform="translate(123.917 122.443)"/>
            <path fill="url(#G)" d="M20.254 16.127c-.854.734-2.11 1.159-2.637 2.096a2.972 2.972 0 0 0-.31 1.577c.02.635.088 1.266.205 1.886.031-.073.067-.144.105-.212.528-.931 1.783-1.36 2.637-2.096 1.458-1.257 1.582-3.248 1.15-5.023a3.8 3.8 0 0 1-1.15 1.772z" transform="translate(123.917 122.443)"/>
        </g>
        <path fill="url(#H)" d="M155.157 139.234c-.986 2.818-2.262 3.928-2.262 3.928h-.709l-6.243.072-.723-2.221 1.013-4.79.622.045c.375.223.782.37 1.202.434.456 0 1.348-.027 1.611.108a.186.186 0 0 0 .119.018c.234-.027.485-.426.485-.426s5.872.012 4.885 2.832z"/>
        <path fill="url(#I)" d="M5.402 3.02C4.416 5.839 3.14 6.949 3.14 6.949h-.71c.37-1.116 1.15-3.41 1.456-3.936C4.192 2.485 1.563 1.263.034.59.27.563.52.165.52.165S6.39.2 5.402 3.02z" opacity=".1" transform="translate(149.755 136.214)"/>
        <path fill="#EFB7B9" d="M150.072 141.417s3.427 2.533 4.745 1.18c1.319-1.354 1.142-3.94.965-4.35-.176-.41-1.582-5.688-1.582-5.688l-2.707-7.805s-1.643-10.272-4.095-7.709c-2.452 2.563 1.318 8.712 1.318 8.712s1.548 4.49 1.469 5.388c-.08.899.862 4.192.862 4.192l-.975 6.08z"/>
        <path fill="#2EC6FF" d="M143.657 232.923c-.026.125-.058.257-.09.392-.321 1.248-.925.967-2.7 3.023-.899 1.093-2.257 1.53-3.527 1.135-.2-.061-.333-.275-.317-.509l.222-3.335.108-1.604s2.826.898 4.263-.243a1.85 1.85 0 0 0 .18-.162c.38-.357.92-.4 1.34-.105.422.294.63.86.52 1.408zM134.785 231.665c-.024.126-.055.255-.087.39-.322 1.25-.925.966-2.7 3.023-.899 1.093-2.257 1.53-3.528 1.135-.2-.06-.333-.275-.316-.51l.222-3.334.108-1.605s2.826.898 4.263-.242c.048-.037.095-.077.14-.12l.04-.042c.38-.356.92-.397 1.34-.102.42.295.628.86.518 1.407z"/>
        <path fill="#000" d="M131.866 232.165l.116 1.734c-1.621 1.838-3.554-.898-4.123-1.797 1.492.863 4.007.063 4.007.063zM141.4 232.869l.214-.159c-1.482 2.557-3.692 1.377-4.37.92l.109-1.605s2.826.898 4.263-.243c-.113.626-.216 1.087-.216 1.087z" opacity=".1"/>
        <path fill="#444053" d="M145.908 184.466c-1.136 3.225-2.272 14.029-2.412 15.268-.14 1.24-.108 6.368-.108 6.368l-.285 12.574c-.034 1.571-1.054 5.523-1.054 5.523s-.354 3.293-.177 4.395c.177 1.101-.461 3.951-.461 3.951l.213-.161c-1.774 3.062-4.58.766-4.58.766s-.675-3.709.035-4.637c.709-.928-.248-3.79-.248-3.79s.356-14.876.461-15.567c.106-.692-.427-2.782-.923-4.515-.495-1.733.285-8.589.462-9.837.177-1.249-.071-6.937-.248-8.104-.177-1.168.211-6.048.211-6.048-.71-2.418-1.276-.242-1.276-.242l-.57 6.329-.614 12.995s.071 3.95-.461 5.09c-.533 1.14-.992 4.017-.992 4.017l.248 14.67s-.034 3.065.143 4.233c.176 1.167-.39 4.19-.39 4.19-1.989 5.32-5.184-.442-5.184-.442s.142-.898.424-1.01c.283-.11-.105-2.298-.319-2.66-.213-.363.037-2.994.037-2.994s-.263-2.38-.64-5.242-.282-13.91-.035-14.595c.248-.685.462-3.87.462-3.87s-.285-1.815.07-3.105c.357-1.29-.85-6.733-.85-7.338 0-.604-.462-4.352-.713-4.757a2.658 2.658 0 0 1-.247-1.128s-.035-.806-.638-3.224c-.44-1.767-.182-5.248 0-7.003.063-.65.116-1.063.116-1.063s20.38-3.748 21.197-2.9c.19.197.32.898.39 1.859.22 3.215-.17 9.517-1.044 12.004z"/>
        <path fill="#000" d="M138.205 202.578c.094 0 2.343.216 3.163.027.82-.188-3.163-.027-3.163-.027zM138.37 204.084s3.101.62 3.267.3c.166-.32-3.266-.3-3.266-.3zM128.88 203.44s1.607.081 2.483.536c.875.456-2.484-.535-2.484-.535z" opacity=".1"/>
        <path fill="#EFB7B9" d="M123.031 158.233s.264 5.616.119 6.61c0 0 .57 4.544 1.041 5.688.424.92.924 1.793 1.493 2.607l1.397-11.142-.33-3.817-3.72.054z"/>
        <ellipse cx="137.709" cy="126.436" fill="#EFB7B9" rx="5.468" ry="6.209"/>
        <path fill="#EFB7B9" d="M134.867 129.34s-1.704 3.787-3.41 5.563c-1.705 1.775 10.228 3.79 10.512 3.79.285 0-2.13-8.065-1.705-9.032.424-.967-5.397-.32-5.397-.32z"/>
        <path fill="#000" d="M146.94 172.492a3.483 3.483 0 0 1-.876.56c-2.178.966-4.545 2.31-6.156 1.772-1.611-.54-5.01 0-5.01 0s-6.855-.644-8.236-.27c-.464.159-.957.17-1.427.033.064-.65.116-1.063.116-1.063s20.38-3.748 21.198-2.9c.19.197.32.883.39 1.868z" opacity=".1"/>
        <path fill="#2EC6FF" d="M148.437 168.9s-.19 2.694-2.373 3.654c-2.183.961-4.545 2.312-6.156 1.776-1.611-.536-5.01 0-5.01 0s-6.855-.647-8.236-.27c-1.382.378-2.083-.107-1.659-.808.425-.7.38-2.994.38-3.976 0-.982-.475-4.891-.047-5.592.427-.7.79-3.386 1.658-3.817.258-.125.452-.376.527-.682.074-.322.074-.66 0-.982 0 0-.142-.135-.342-.336-.501-.509-1.35-1.452-1.076-1.76.377-.431 0-3.227 0-3.227s-.902-2.15-.57-2.955c.333-.805-2.9-5.053-2.9-5.053s0-7.311 3.884-7.634c0 0 2.744.107 3.077-1.29.332-1.399 2.51-2.204 2.51-2.204l4.97 1.236s4.402 1.075 5.207.432c.804-.644 1.41.856 1.41.856s2.745.161 3.03.805c.284.644-.9 6.933-.9 6.933s-1.987-.212-1.845 2.207c.142 2.419-.76 5.481-.76 5.481s-.142 1.776-.047 2.15c.095.374-.187 1.7-.23 1.91v.027s-.194.898.061 1.218c.023.03.051.054.082.072.38.213.95 2.311.95 2.311.294.407.445.923.424 1.45-.048.861.237 2.903 1.468 4.086 1.232 1.182 2.513 3.981 2.513 3.981z"/>
        <path fill="#2EC6FF" d="M127.316 156.457v.228l-.087 2.515s-2.9.269-4.482-.19c-1.582-.457-.918-2.442-.857-2.858.047-.377.474-3.524.474-4.033 0-.509 0-2.607-.071-3.574-.071-.967.353-3.655.353-3.655l.309-.431 3.338 1.451 1.023 10.547z"/>
        <path fill="#000" d="M127.308 156.685l-.087 2.515s-2.9.269-4.482-.19c-1.582-.457-.918-2.442-.857-2.858l5.426.533z" opacity=".1"/>
        <path fill="#000" d="M127.519 159.188c.073-.322.073-.66 0-.982 0 0-.143-.135-.343-.336 2.51-.395 12.436-1.943 15.782-2.095v.027s-.195.898.06 1.218l-15.5 2.168zM143.317 161.133s.617 3.952-1.68 5.35c0 0 1.303-1.96 1.68-5.35zM128.286 166.591s5.537-1.075 6.628-.242c1.092.832-6.628.242-6.628.242zM141.4 142.105s-.852 3.98-.214 4.892c.638.913.214-4.892.214-4.892zM125.351 138.854s.791 1.476.309 3.009c-.483 1.533-.309-3.009-.309-3.009z" opacity=".1"/>
        <path fill="#2EC6FF" d="M123.743 151.808s.994.674.662 1.721c-.332 1.048-.662-1.72-.662-1.72z"/>
        <path fill="#000" d="M123.653 148.746s.923.562 1.042 1.395c.119.832-1.042-1.395-1.042-1.395zM137.33 180.889s5.8.674 6.957-.898c0 .012-5.23 1.182-6.958.898zM127.316 180.512s6.224 1.667 7.456.35c0 .012-5.35.458-7.456-.35zM137.777 183.065s2.605 0 3.813.081c1.207.081-3.813-.08-3.813-.08zM127.743 184.329s1.278 1.64 2.72 1.344c1.443-.296-2.72-1.344-2.72-1.344z" opacity=".1"/>
        <path fill="#E3787D" d="M130.245 117.186c-.4.706-.414 1.524-.527 2.308-.287 1.918-1.08 3.693-2.273 5.09-1.134 1.37-2.692 2.613-2.987 4.286-.277 1.59.667 3.12 1.162 4.667 1.319 4.08-.527 8.362-1.054 12.574-.148 1.165.029 2.652 1.292 3.039.395.12.846.104 1.202.299.474.257.62.796.706 1.278.318 1.73.428 3.502.327 5.266-.058.991-.12 2.129.702 2.811.42.295.882.503 1.365.617 1.298.398 2.974.713 3.85-.215.366-.39.503-.94.962-1.249.686-.46 1.659-.15 2.52-.102 1.667.079 3.238-.88 4.1-2.5.7-1.43.639-3.053.38-4.592-.258-1.538-.706-3.06-.738-4.616a2.966 2.966 0 0 1 .306-1.563c.527-.928 1.753-1.35 2.594-2.077 1.582-1.366 1.566-3.593.997-5.479-.57-1.886-1.6-3.664-1.727-5.601a2.394 2.394 0 0 1 .232-1.353c.284-.38.613-.713.978-.991 2.296-2.2 2.025-5.817.126-8.29-2.103-2.754-11.621-8.66-14.495-3.607z"/>
        <g fill="#000" opacity=".1">
            <path d="M125.929 135.256a11.55 11.55 0 0 0-.364-4.847c-.248-.781-.612-1.557-.878-2.338-.13.283-.227.585-.285.898-.277 1.59.667 3.12 1.163 4.667.168.525.29 1.068.364 1.62zM128.043 152.865c.101-1.764-.009-3.536-.327-5.266-.087-.482-.232-1.02-.706-1.278-.356-.195-.807-.18-1.202-.3-.489-.137-.896-.52-1.105-1.039-.071.408-.135.818-.187 1.225-.148 1.164.029 2.652 1.292 3.038.395.12.846.105 1.202.3.474.26.62.796.706 1.281.147.802.249 1.614.306 2.431.005-.132.013-.263.021-.392zM141.542 152.227c-.862 1.62-2.433 2.58-4.1 2.5-.862-.048-1.845-.36-2.52.102-.456.3-.596.859-.962 1.248-.876.928-2.552.614-3.85.216a3.884 3.884 0 0 1-1.363-.62 2.004 2.004 0 0 1-.675-1.24c0 .551 0 1.105-.029 1.656-.058.991-.121 2.129.704 2.811.42.295.88.503 1.363.617 1.298.398 2.974.712 3.85-.213.366-.392.506-.943.962-1.251.686-.461 1.658-.15 2.52-.102 1.667.08 3.238-.879 4.1-2.5.673-1.374.644-2.927.409-4.412-.09.414-.227.814-.409 1.188zM144.543 125.93c-.36.286-.682.627-.957 1.015-.207.41-.288.886-.232 1.353.046.59.156 1.17.327 1.728.263-.32.551-.612.862-.871 1.553-1.497 1.93-3.623 1.426-5.614a5.22 5.22 0 0 1-1.426 2.39zM144.084 139.378c-.841.728-2.067 1.15-2.594 2.075a2.997 2.997 0 0 0-.306 1.566c.02.629.088 1.255.203 1.87.029-.072.063-.142.103-.209.527-.928 1.753-1.35 2.594-2.078 1.434-1.248 1.556-3.22 1.131-4.981a3.795 3.795 0 0 1-1.131 1.757z"/>
        </g>
        <path fill="#2EC6FF" d="M154.894 140.037c-.97 2.796-2.228 3.892-2.228 3.892h-.699l-6.14.071-.71-2.203.994-4.757.615.027c.369.222.77.368 1.184.431.45 0 1.318-.027 1.582.108a.195.195 0 0 0 .116.018c.232-.027.474-.422.474-.422s5.78.039 4.812 2.835z"/>
        <path fill="#000" d="M154.894 140.037c-.97 2.796-2.228 3.892-2.228 3.892h-.699c.367-1.108 1.134-3.38 1.435-3.892.3-.512-2.286-1.734-3.79-2.395.233-.027.475-.422.475-.422s5.774.02 4.807 2.817z" opacity=".1"/>
    </g>
</svg>
