<svg xmlns="http://www.w3.org/2000/svg" width="426" height="378" viewBox="0 0 426 378">
    <g fill="none" fill-rule="evenodd">
        <path fill="#2EC6FF" d="M190.57 146.477c-16.669-5.39-34.293-9.91-52.305-9.444-26.48.687-51.941 13.018-64.498 31.242-10.615 15.444-12.031 33.594-16.665 50.767-5.708 21.157-16.544 41.235-28.11 60.87-6.21 10.546-12.764 21.314-13.844 32.902-1.481 16.09 8.275 32.174 23.656 42.955 15.382 10.782 35.849 16.527 56.413 17.87 10.942.71 22.378.16 32.12-3.777 10.305-4.15 17.84-11.746 28.187-15.85 9.59-3.8 20.768-4.288 31.525-3.73a175.516 175.516 0 0 1 41.1 7.037c14.994 4.482 28.927 10.933 43.888 15.48 14.962 4.547 31.686 7.12 47.017 3.463 14.394-3.43 25.811-11.888 36.107-20.456a392.43 392.43 0 0 0 46.126-45.191c9.299-10.786 17.961-22.177 22.115-34.78 7.933-24.099-2.695-51.384-26.476-67.98-19.701-13.756-46.205-19.83-72.159-23.518-23.67-3.399-51.055-3.736-72.81-12.391-20.748-8.278-39.623-18.432-61.387-25.469z" opacity=".1"/>
        <ellipse cx="403.5" cy="226.5" fill="#2EC6FF" opacity=".1" rx="10.5" ry="1.5"/>
        <ellipse cx="362.5" cy="230.5" fill="#2EC6FF" opacity=".1" rx="10.5" ry="1.5"/>
        <ellipse cx="314.5" cy="225.5" fill="#2EC6FF" opacity=".1" rx="10.5" ry="1.5"/>
        <ellipse cx="378.5" cy="243" fill="#2EC6FF" opacity=".1" rx="7.5" ry="1"/>
        <ellipse cx="336.5" cy="242" fill="#2EC6FF" opacity=".1" rx="7.5" ry="1"/>
        <path fill="#2EC6FF" d="M362.042 231s14.84-49.05-2.32-68.695c-12.817-14.697-27.41-12.924-33.933-11.12a12.073 12.073 0 0 0-7.781 6.523c-2.29 4.962-1.868 13.017 14.235 22.42 26.965 15.745 28.645 37.343 28.645 37.343L362.042 231z"/>
        <path stroke="#565987" d="M328 158s44.526 13.82 34.54 73M354 163s-6.705 3.997-4.586 10M332 166s3.59-3.255 8-1.46M350 185.199s6.357-3.17 8 .801M366 192.024s-4.912-.392-5 1.976"/>
        <path fill="#2EC6FF" d="M363 231s-17.25-35.77-21.966-34.987c-2.27.37-3.287 2.63-3.754 4.895a14.664 14.664 0 0 0 .94 8.708c2.446 5.724 9.015 16.595 24.78 21.384z"/>
        <path stroke="#565987" d="M341 203s18.437 26.821 22 28M339 207h4M344 216.857l7 .286M348 209l-1 3M355.065 220l-.13 3"/>
        <path fill="#2EC6FF" d="M362 231s17.25-35.77 21.966-34.987c2.27.37 3.287 2.63 3.754 4.895a14.664 14.664 0 0 1-.94 8.708C384.334 215.34 377.765 226.21 362 231z"/>
        <path stroke="#565987" d="M384 203s-18.437 26.821-22 28M386 207h-4M381 216.857l-7 .286M377 209l1 3M369.933 220l.134 3"/>
        <path fill="#2EC6FF" d="M332.069 239.517a2.869 2.869 0 0 1-1.025-1.41c-.163-.574.136-1.174.717-1.44.66-.229 1.361.186 1.897.61s1.144.895 1.84.809c-.727-.604-1.055-1.512-.862-2.392a.963.963 0 0 1 .237-.488c.365-.355 1.03-.2 1.466.077 1.39.896 1.779 2.617 1.788 4.165a7.375 7.375 0 0 0 0-1.73c-.055-.581.21-1.15.707-1.518.33-.164.701-.245 1.077-.233a2.395 2.395 0 0 1 1.75.454c.527.519.39 1.388-.07 1.959a6.767 6.767 0 0 1-1.808 1.297c-.52.28-.963.665-1.295 1.124a1.32 1.32 0 0 0-.095.199h-3.919a10.92 10.92 0 0 1-2.405-1.483zM399.068 224.51a2.827 2.827 0 0 1-1.024-1.409c-.163-.572.136-1.17.716-1.434.66-.229 1.361.186 1.897.605s1.148.898 1.845.808c-.732-.602-1.061-1.51-.868-2.39a.918.918 0 0 1 .242-.483c.365-.355 1.024-.203 1.46.078 1.39.89 1.78 2.592 1.789 4.16.07-.574.07-1.154 0-1.728-.055-.581.21-1.15.706-1.517.331-.16.702-.239 1.077-.229.624-.09 1.26.068 1.75.432.531.515.394 1.383-.071 1.953a6.672 6.672 0 0 1-1.807 1.322c-.52.28-.962.664-1.295 1.123-.039.063-.07.13-.095.199h-3.917a11.04 11.04 0 0 1-2.405-1.49zM376.067 239.517a2.868 2.868 0 0 1-1.023-1.41c-.163-.574.135-1.174.715-1.44.658-.229 1.359.186 1.894.61.534.424 1.14.895 1.836.809-.728-.604-1.056-1.511-.866-2.392a1.01 1.01 0 0 1 .241-.488c.365-.355 1.028-.2 1.463.077 1.387.896 1.775 2.617 1.785 4.165a7.39 7.39 0 0 0 .023-1.73c-.054-.581.21-1.15.706-1.518.329-.164.7-.245 1.074-.233a2.386 2.386 0 0 1 1.747.454c.526.519.388 1.388-.07 1.959a6.752 6.752 0 0 1-1.804 1.297c-.52.28-.961.665-1.293 1.124a1.32 1.32 0 0 0-.094.199h-3.91a10.905 10.905 0 0 1-2.424-1.483zM313.146 210s-1.403 1.925.647 4.829c2.05 2.903 3.733 5.36 3.054 7.171 0 0-3.09-5.394-5.606-5.47-2.516-.076-.864-3.284 1.905-6.53z"/>
        <path fill="#000" d="M313.182 210a2.36 2.36 0 0 0-.292.604c-2.481 3.028-3.804 5.857-1.42 5.928 2.225.067 4.894 4.194 5.53 5.23 0 .081-.046.162-.073.238 0 0-3.127-5.396-5.672-5.472-2.545-.076-.874-3.28 1.927-6.528z" opacity=".1"/>
        <path fill="#FFD037" d="M310.836 212.522c0 .82.074 1.478.166 1.478.093 0 .162-.659.162-1.478s-.093-.43-.18-.43c-.088 0-.148-.383-.148.43z"/>
        <path fill="#FFD037" d="M310.238 213.5c.39.356.732.568.76.48.028-.088-.262-.449-.651-.8-.39-.35-.237-.098-.268 0-.032.098-.231-.03.159.32z"/>
        <path fill="#2EC6FF" d="M320.853 210s1.403 1.925-.647 4.829c-2.051 2.903-3.735 5.36-3.051 7.171 0 0 3.087-5.394 5.604-5.47 2.516-.076.864-3.284-1.906-6.53z"/>
        <path fill="#000" d="M320.818 210c.125.185.224.389.292.604 2.481 3.028 3.804 5.857 1.42 5.928-2.225.067-4.894 4.194-5.53 5.23.021.081.047.16.078.238 0 0 3.122-5.396 5.667-5.472 2.545-.076.874-3.28-1.927-6.528z" opacity=".1"/>
        <path fill="#FFD037" d="M324.164 212.522c0 .82-.074 1.478-.166 1.478-.093 0-.162-.659-.162-1.478s.093-.43.18-.43c.088 0 .148-.383.148.43z"/>
        <path fill="#FFD037" d="M324.762 213.5c-.39.356-.732.568-.76.48-.028-.088.262-.449.651-.8.39-.35.237-.098.268 0 .032.098.231-.03-.159.32z"/>
        <path fill="#A8A8A8" d="M323 221.287s-4.024-.127-5.238-1.037c-1.214-.91-6.196-1.995-6.512-.538-.317 1.458-6.048 7.247-1.508 7.287 4.54.039 10.57-.744 11.779-1.521 1.21-.778 1.479-4.191 1.479-4.191z"/>
        <path fill="#000" d="M309.682 226.558c4.55.034 10.575-.65 11.79-1.331.932-.514 1.29-2.371 1.398-3.227h.13s-.251 2.996-1.467 3.668c-1.215.672-7.236 1.365-11.79 1.33-1.314 0-1.765-.427-1.742-1.073.2.389.703.629 1.68.633z" opacity=".2"/>
        <circle cx="59" cy="28" r="10" fill="#2EC6FF" opacity=".1"/>
        <circle cx="232" cy="12" r="10" fill="#2EC6FF" opacity=".1"/>
        <circle cx="390" cy="52" r="10" fill="#2EC6FF" opacity=".1"/>
        <circle cx="16.5" cy="119.5" r="16.5" fill="#2EC6FF" opacity=".1"/>
        <circle cx="32.5" cy="201.5" r="16.5" fill="#2EC6FF" opacity=".1"/>
        <circle cx="345.5" cy="129.5" r="16.5" fill="#2EC6FF" opacity=".1"/>
        <path fill="#65617D" d="M207.797 160.195c-.598.055-1.206.027-1.8.118a8.33 8.33 0 0 0-2.806 1.097c-4.255 2.356-8.271 5.595-10.034 10.034a1.332 1.332 0 0 0-.131.887c.104.249.275.466.495.628l1.656 1.465c.209.211.458.381.734.5.446.114.917.1 1.356-.04 4.55-1.015 9.385-2.184 12.578-5.496 1.515-1.57 2.913-3.73 5.144-3.789.935 0 1.81.35 2.73.455.922.105 2.03-.278 2.25-1.15a2.36 2.36 0 0 0-.15-1.288l-1.375-4.454c-.374-1.219-4.147-1.282-5.405-1.064-1.917.323-3.208 1.915-5.242 2.097zM223.893 185.37c-.066 1.555.06 3.128-.198 4.67a13.487 13.487 0 0 1-1.173 3.504 22.967 22.967 0 0 1-3.202 4.971c-1.192 1.393-2.618 2.702-4.384 3.25-1.766.547-3.937.152-5.04-1.314-.899-1.193-.941-2.785-.875-4.275.16-3.662.744-7.376 2.41-10.653.717-1.392 1.626-2.72 2.356-4.126 1.525-2.92 2.397-6.383 5.029-8.397a16.722 16.722 0 0 0 5.227 1.416c.702.074 2.708.12 2.944 1.007.16.599-1.159 2.274-1.413 2.864a19.314 19.314 0 0 0-1.681 7.083z"/>
        <path fill="#3F3D56" d="M205.482 119.06c.557 1.404 1.262 2.78 1.391 4.274.093.917 0 1.834 0 2.75.079 1.257.29 2.501.631 3.714l2.583 10.453c.385 1.563.77 3.168.57 4.763-.134 1.064-.523 2.095-.519 3.164.05.81.18 1.613.39 2.397a14.61 14.61 0 0 1-.39 7.29 1.08 1.08 0 0 0-.079.564c.065.298.357.481.622.623a26.695 26.695 0 0 0 8.95 2.948 85.907 85.907 0 0 0 5.89-20.791c.658-4.328.978-8.71 1.822-13.006.02-.249.126-.482.301-.66.316-.262.793-.097 1.164.077a104.203 104.203 0 0 1 13.639 7.794 16.696 16.696 0 0 0 3.149-13.942 28.682 28.682 0 0 0-2.319-5.996 33.796 33.796 0 0 0-3.942-6.542c-3.44-4.264-8.486-6.987-13.68-8.835-3.158-1.128-6.409-1.962-9.655-2.815-1.818-.481-4.865-2.05-6.632-.83-1.855 1.27-3.088 4.42-3.849 6.419a23.41 23.41 0 0 0-1.511 7.743 21.655 21.655 0 0 0 1.474 8.445z"/>
        <path fill="#3F3D56" d="M242 132.039c-.953 1.051-.15 2.73-.333 4.15a5.771 5.771 0 0 1-.67 1.822l-4.366 8.665a16.17 16.17 0 0 0-1.624 4.15c-.598 3.127.63 6.641-.94 9.403-.507.89-1.291 1.656-1.501 2.661-.155.734 0 1.5-.078 2.242-.104.871-.565 1.655-.82 2.494-.2.807-.342 1.627-.425 2.454a14.469 14.469 0 0 1-5.128 8.965 8.101 8.101 0 0 1-5.656 1.946c-2.035-.175-4.056-1.573-4.471-3.593-.141-.687-.114-1.452-.538-2.01-.602-.798-1.87-.83-2.45-1.647l2.244-3.735c.698-1.157 1.41-2.366 1.524-3.717.137-1.655-.652-3.306-.37-4.944.242-1.406 1.241-2.577 1.543-3.97.374-1.73-.375-3.477-.78-5.202-.995-4.247.118-8.674 1.227-12.912 1.473-5.608 2.983-11.304 5.967-16.261 5.953 3.242 11.427 6.355 17.645 9.039z"/>
        <path fill="#2EC6FF" d="M242.666 44.482c.364.97.168 2.046.098 3.076-.163 2.29.331 4.578.22 6.9-.113 2.32-.84 4.536-1.343 6.793-1.43 6.44-1.086 13.152-2.381 19.62-1.599 8.011-5.686 15.473-6.492 23.603-.257 2.582-.224 5.347-1.664 7.526A120.821 120.821 0 0 1 207 98.093c1.64-11.953 3.262-23.965 3.043-36.023a15.196 15.196 0 0 1 .308-4.34 13.28 13.28 0 0 1 1.659-3.378c1.804-2.88 3.789-5.645 5.77-8.405 1.267-1.767 2.637-3.621 4.66-4.45 2.023-.828 4.418-.457 6.623-.064 2.653.476 5.303.952 7.95 1.429 1.655.297 4.945-.27 5.653 1.62z"/>
        <path fill="#BE6F72" d="M179.565 89.965A24.87 24.87 0 0 0 176 87.1c1.665-1.962 1.337-4.8 1.745-7.312a23.552 23.552 0 0 1 1.515-4.755c.169-.431.408-.908.872-1.022.285-.034.575.01.835.127 1.407.482 4.344.455 5.436 1.336 1.318 1.071.113 3.315-.384 4.655-.352.899-5.755 10.518-6.454 9.836z"/>
        <path fill="#65617D" d="M182.676 176.547a9.43 9.43 0 0 1 1.309 3.634c.108 1.29-.363 2.703-1.459 3.385-1.096.681-2.668.454-3.972.045a20.694 20.694 0 0 1-12.524-11.356c-.412-.954-.77-1.967-1.5-2.703a8.296 8.296 0 0 0-1.788-1.204c-1.78-1.008-3.497-2.335-4.321-4.215-.825-1.88-.453-4.393 1.254-5.51a4.617 4.617 0 0 1 3.551-.455c1.181.337 2.311.83 3.361 1.468 1.758.958 3.905 1.785 5.436 3.061 1.358 1.122 2.577 2.64 3.736 3.961a55.682 55.682 0 0 1 3.728 4.77c.371.486 3.501 4.679 3.189 5.12zM149.705 166.495a32.633 32.633 0 0 1-1.224 6.931c-.374 1.27-.868 2.59-1.908 3.398a6.934 6.934 0 0 1-2.914 1.078c-.363.1-.742.124-1.114.07-.637-.135-1.09-.69-1.482-1.218-1.543-2.063-3.044-4.243-3.696-6.744-.924-3.627 0-7.515 1.603-10.904a11.164 11.164 0 0 1 2.471-3.636 9.419 9.419 0 0 1 4.536-2.058c1.705-.345 3.797-1.083 3.922 1.013a98.4 98.4 0 0 1-.194 12.07z"/>
        <path fill="#3F3D56" d="M174.988 80c3.203 1.652 6.759 3.753 7.427 7.284.414 2.156-.38 4.363-.25 6.557.116 1.93.928 3.794.826 5.72-.108.909-.263 1.812-.464 2.706-.274 1.708-.112 3.448-.181 5.174-.153 3.887-1.458 7.626-2.09 11.462a33.47 33.47 0 0 0-.31 8.288c.153 1.786.464 3.563.464 5.358 0 1.293-.107 2.584-.32 3.86a38.412 38.412 0 0 1-3.714 11.508c-2.233 4.382-1.918 10.037-1.68 14.947a3.691 3.691 0 0 1-.252 1.999c-.585 1.06-2.042 1.212-3.25 1.11a17.661 17.661 0 0 1-11.605-5.858 2.963 2.963 0 0 1-.845-1.56c-.103-.99.696-1.804 1.272-2.623 1.959-2.777 1.462-6.539 1.694-9.95.17-2.48.765-4.914 1.76-7.195.575-1.319 1.295-2.62 1.425-4.054.12-1.337-.288-2.66-.692-3.938l-1.393-4.405c-2.158-6.844-4.331-13.73-7.6-20.12a10.066 10.066 0 0 0-4.294 6.016c-1.216 4.359.516 9.227-1.142 13.42a12.247 12.247 0 0 0-.682 1.8 7.219 7.219 0 0 0-.111 1.614c.043 4.51.318 9.016.826 13.499.025.678.216 1.34.557 1.93.274.393.673.684.966 1.059.812 1.05.659 2.522.464 3.831l-.929 6.192a1.676 1.676 0 0 1-.301.875 1.664 1.664 0 0 1-.79.425 22.073 22.073 0 0 1-9.127.833c-.905-.106-1.727-.712-2.483-1.221-.08-.926 1.077-1.541 1.118-2.462a2.122 2.122 0 0 0-.71-1.416c-1.727-1.944-3.788-4.008-3.77-6.604 0-.68.163-1.36.14-2.04-.06-1.745-1.268-3.24-1.69-4.92-.52-2.077.172-4.233.436-6.357.362-2.86-.065-5.757-.464-8.612l-1.555-10.477a27.981 27.981 0 0 0-.966-4.803 37.548 37.548 0 0 0-2.056-4.507c-1.486-3.008-2.707-6.136-3.923-9.255a8.414 8.414 0 0 1-.72-2.68c-.07-1.586.752-3.086 1.774-4.307a13.522 13.522 0 0 1 7.427-4.489 3.26 3.26 0 0 1 1.49-.06c.417.137.807.342 1.157.606a27.848 27.848 0 0 0 24.544 2.901c.465.352 1.323.2 1.857-.05 1.49-.68 2.707-1.814 4.016-2.777 2.437-1.842 5.724-3.59 8.719-4.234zM79.178 198.379c.247.705.619 1.36 1.098 1.937 1.686 2.172 4.036 3.907 5.12 6.443.229.543.397 1.113.606 1.665a10.955 10.955 0 0 0 3.026 4.335 18.639 18.639 0 0 0 3.337 2.186c2.058 1.11 4.283 2.112 6.62 2.052.47-.01.937-.065 1.396-.165a7.61 7.61 0 0 0 2.08-.755c1.504-.819 2.794-2.42 2.496-4.09a3.711 3.711 0 0 0-.303-.921 9.649 9.649 0 0 0-.852-1.33c-.786-1.077-1.596-2.181-2.746-2.872-1.294-.782-2.923-.975-4.087-1.941a6.367 6.367 0 0 1-1.178-1.409 17.652 17.652 0 0 1-2.327-5.213c-.354-1.38-.591-2.895-1.61-3.907-1.02-1.013-2.421-1.243-3.78-1.473a6.641 6.641 0 0 0-1.397-.133c-.666.023-1.355.212-1.978-.097-.624-.308-.834-.745-1.588-.685-.6.08-1.166.323-1.634.704-1.768 1.293-2.941 3.594-2.3 5.669z"/>
        <path fill="#FBBEBE" d="M95.785 200.182c.292 1.561.74 3.224 1.917 4.242.75.663 1.795 1.078 2.167 2.013.373.935-.107 2.11-.727 2.966a10.754 10.754 0 0 1-2.89 2.722c-.951.604-2.087 1.065-3.177.797-.898-.216-1.607-.88-2.276-1.52-1.534-1.46-3.105-2.975-3.967-4.933-.897-2.063-.942-4.454-1.92-6.485-.57-1.184-1.45-2.22-1.796-3.492a2.224 2.224 0 0 1 0-1.418 1.941 1.941 0 0 1 1.76-1.074c.722.025 1.435.181 2.104.46 2.026.742 4.1 1.338 6.207 1.783.84.162 1.346.157 1.795.99.415.935.686 1.93.803 2.949zM100.878 213.733c-.37.54-.632 1.14-.773 1.771-.118.491-.137.999-.055 1.496a8.344 8.344 0 0 0 2.23-.781c1.611-.848 2.993-2.505 2.674-4.234a3.75 3.75 0 0 0-.325-.953 1.434 1.434 0 0 0-1.327.395 10.788 10.788 0 0 0-2.424 2.306z"/>
        <path fill="#3F3D56" d="M84.214 178.953a2.284 2.284 0 0 0-.173 1.397c.215.931 1.173 1.467 2.038 1.89l8.22 4.005c.57.263 1.125.557 1.663.88 1.402.857 2.505 2.068 3.701 3.176 1.197 1.109 2.529 2.147 4.113 2.538a6.97 6.97 0 0 0 4.673-.61 9.661 9.661 0 0 0 2.14-1.448 13.134 13.134 0 0 0 1.542-1.597c.402-.423.69-.94.837-1.504.154-.853-.271-1.69-.766-2.394a11.063 11.063 0 0 0-.935-1.155c-3.117-3.432-8.225-5.211-12.618-5.91-1.747-.279-3.406-.93-5.089-1.462-1.682-.53-3.462-.931-5.21-.684-1.748.246-3.468 1.248-4.136 2.878z"/>
        <path fill="#000" d="M84.214 178.953a2.284 2.284 0 0 0-.173 1.397c.215.931 1.173 1.467 2.038 1.89l8.22 4.005c.57.263 1.125.557 1.663.88 1.402.857 2.505 2.068 3.701 3.176 1.197 1.109 2.529 2.147 4.113 2.538a6.97 6.97 0 0 0 4.673-.61 9.661 9.661 0 0 0 2.14-1.448 13.134 13.134 0 0 0 1.542-1.597c.402-.423.69-.94.837-1.504.154-.853-.271-1.69-.766-2.394a11.063 11.063 0 0 0-.935-1.155c-3.117-3.432-8.225-5.211-12.618-5.91-1.747-.279-3.406-.93-5.089-1.462-1.682-.53-3.462-.931-5.21-.684-1.748.246-3.468 1.248-4.136 2.878z" opacity=".1"/>
        <path fill="#FBBEBE" d="M105.134 181.326a8.888 8.888 0 0 1 1.483 2.264c.338.54.458 1.187.337 1.81-.176.42-.46.788-.822 1.068l-.787.72a3.144 3.144 0 0 1-.818.606c-.43.16-.89.228-1.348.2-1.056 0-2.193 0-3.051-.627-1.173-.837-1.384-2.567-.85-3.897.535-1.33 1.654-2.335 2.782-3.234.917-.734 2.431.418 3.074 1.09zM110.07 186.324a4.996 4.996 0 0 0 .19 2.426c.187.735.37 1.47.552 2.22v.03a13.15 13.15 0 0 0 1.4-1.681c.364-.446.626-.99.759-1.584.14-.897-.246-1.78-.696-2.52a11.5 11.5 0 0 0-.848-1.215c-.2.299-.373.593-.517.784a4.468 4.468 0 0 0-.84 1.54z"/>
        <path fill="#3F3D56" d="M88.878 152.12c-.972 4.043-.559 8.272-.042 12.4.395 3.14.836 6.394-.103 9.42-.348 1.129-.897 2.277-.686 3.443.4 2.198 3.077 3.044 5.293 3.458.64.16 1.305.2 1.96.116a4.667 4.667 0 0 0 1.784-.93 19.326 19.326 0 0 0 6.872-9.039c.84-2.426 1.108-5.005 1.366-7.556.432-4.295.87-8.64.235-12.906-.188-1.255-.47-2.496-.587-3.76a26.887 26.887 0 0 1 .366-6.576A105.133 105.133 0 0 1 109 124.324 21.804 21.804 0 0 1 95.999 122c.77.409-.113 6.93-.207 7.845a52.74 52.74 0 0 1-1.489 8.086c-1.31 4.96-4.236 9.263-5.425 14.189z"/>
        <path fill="#000" d="M88.878 152.12c-.972 4.043-.559 8.272-.042 12.4.395 3.14.836 6.394-.103 9.42-.348 1.129-.897 2.277-.686 3.443.4 2.198 3.077 3.044 5.293 3.458.64.16 1.305.2 1.96.116a4.667 4.667 0 0 0 1.784-.93 19.326 19.326 0 0 0 6.872-9.039c.84-2.426 1.108-5.005 1.366-7.556.432-4.295.87-8.64.235-12.906-.188-1.255-.47-2.496-.587-3.76a26.887 26.887 0 0 1 .366-6.576A105.133 105.133 0 0 1 109 124.324 21.804 21.804 0 0 1 95.999 122c.77.409-.113 6.93-.207 7.845a52.74 52.74 0 0 1-1.489 8.086c-1.31 4.96-4.236 9.263-5.425 14.189z" opacity=".1"/>
        <path fill="#3F3D56" d="M112.672 128.237c1.865 5.331 1.455 11.155.648 16.74-.806 5.585-1.995 11.17-1.645 16.796.135 2.208.498 4.476-.154 6.588a14.317 14.317 0 0 1-1.432 2.94l-14.876 25.384a4.632 4.632 0 0 1-3.73 2.3c-1.59.11-3.151-.405-4.634-.98a8.368 8.368 0 0 1-2.7-1.477 3.131 3.131 0 0 1-1.137-2.695c.667-4.407 1.67-8.92 2.41-13.341.505-3 1.604-5.872 3.236-8.451 1.151-1.84 2.569-3.492 3.562-5.405 2.853-5.484 1.865-12.173-.336-17.942-2.2-5.769-5.478-11.123-7.226-17.02a19.28 19.28 0 0 1-.881-5.061 13.399 13.399 0 0 1 3.897-9.597c.367-.41.83-.725 1.348-.92a3.825 3.825 0 0 1 1.836.033c8.285 1.587 19.078 4.232 21.814 12.108z"/>
        <path fill="#FBBEBE" d="M244.944 48.371c.271 2.051-.468 4.126-1.521 5.9-3.983 6.65-13.165 9.591-20.265 6.496-2.925-1.278-5.4-3.386-7.824-5.465-.815-.703-1.662-1.438-2.074-2.43-.725-1.757.15-3.85 1.578-5.105 1.427-1.255 3.275-1.873 5.115-2.43 6.07-1.892 23.544-7.859 24.99 3.034z"/>
        <path fill="#3F3D56" d="M240.998 42.044c5.447 4.4 13.375 8.593 19.546 11.854 2.099 1.112 4.428 2.363 5.184 4.633.406 1.213.273 2.534.139 3.812-.258 2.46-.526 4.957-1.471 7.24-1.112 2.674-3.077 4.879-4.654 7.306-2.768 4.252-4.391 9.265-7.809 13.022 2.306 7.694 4.83 15.38 5.65 23.365.046.22.021.449-.069.654a1.118 1.118 0 0 1-.36.329l-5.737 3.78a6.464 6.464 0 0 0-1.656 1.39c-1.015 1.324-.881 3.186-1.508 4.729a6.13 6.13 0 0 1-3.552 3.243 10.89 10.89 0 0 1-4.884.519 11.324 11.324 0 0 1-5.83-2.062c-1.462-1.112-2.505-2.673-3.51-4.21a16.416 16.416 0 0 1-1.845-3.378c-.613-1.705-.65-3.562-.627-5.378.015-3.455.344-6.902.982-10.298.268-1.348.6-2.677.812-4.035.424-2.733.341-5.521.655-8.269a55.823 55.823 0 0 1 2.052-9.111 47.183 47.183 0 0 0 1.2-5.606c.54-3.326 1.614-6.536 2.689-9.728l1.844-5.47c.392-1.182.79-2.358 1.255-3.512.867-2.154 1.983-4.252 2.278-6.55.328-2.506-2.366-5.48-1.457-7.834.074-.259.475-.602.683-.435z"/>
        <path fill="#3F3D56" d="M264.449 57c1.267.578 1.967 1.957 2.42 3.289a18.84 18.84 0 0 1 .713 9.344 16.9 16.9 0 0 0-.366 2.387c.01.931.1 1.86.27 2.775.458 3.539 0 7.133.151 10.704.156 4.016 1.02 8.257-.645 11.907-1.107 2.424-3.202 4.228-5.27 5.866A105.178 105.178 0 0 1 236.483 118c1.56-1.897 1.588-4.75.55-6.985-1.04-2.234-2.97-3.913-5.033-5.218a32.193 32.193 0 0 0 7.571-2.734c4.795-2.46 8.903-6.064 12.96-9.63a3.98 3.98 0 0 0 1.345-1.721c.412-1.388-.722-2.706-1.51-3.923-2.383-3.7-1.83-8.534-.832-12.818 1.112-4.695 2.745-9.372 5.723-13.146 1.858-2.36 4.282-4.173 7.192-4.825z"/>
        <path fill="#FBBEBE" d="M235.923 117.65a6.408 6.408 0 0 1-1.603 1.778c-1.398.94-3.318.583-4.879-.085a14.22 14.22 0 0 1-3.96-2.544 6.211 6.211 0 0 0-1.757-1.317c-1.22-.47-2.926-.117-3.611-1.25a.668.668 0 0 1-.112-.405c.042-.41.573-.522.983-.546a12.123 12.123 0 0 0 5.391-1.679 5.205 5.205 0 0 1-1.323-1.41 1.107 1.107 0 0 1-.224-.669c.057-.262.2-.497.406-.668a10.3 10.3 0 0 1 11.407-1.918c.366.15.687.392.932.705.172.289.288.608.34.94.303 1.318 1.398 3.293 1.002 4.624-.438 1.528-2.093 3.15-2.992 4.444z"/>
        <path fill="#3F3D56" d="M204.238 111.729c5.72-6.586 8.277-15.252 10.65-23.635l1.697-5.957 4.092-14.35c.603-2.117 1.205-4.234 1.605-6.393.685-3.726.75-7.534.708-11.32a12.216 12.216 0 0 0-1.062-4.546c-.4-.99-.593-2.044-.92-3.066a15.274 15.274 0 0 0-1.844-4.028 4.22 4.22 0 0 0-.832-.99 4.847 4.847 0 0 0-1.88-.761A16.605 16.605 0 0 0 211.95 36c-1.527.055-3.1.582-4.084 1.737-.75.884-1.094 2.03-1.687 3.025-.276.407-.527.83-.75 1.27a6.397 6.397 0 0 0-.414 2.08c-.239 2.887-.443 5.777-.611 8.67-.078 1.316-.147 2.64-.097 3.96.042 1.027.152 2.049.262 3.071l1.09 10.01c.253 2.35.074 4.55.285 6.906.515 5.687-.713 11.375-1.973 16.957-.602 2.653-1.223 5.343-2.51 7.745-1.136 2.126-2.837 4.285-2.387 6.654.157.825.575 1.595.64 2.43a4.86 4.86 0 0 0 .151 1.535 1.841 1.841 0 0 0 1.964.916c.91-.16 1.75-.59 2.41-1.237z"/>
        <path fill="#FBBEBE" d="M205.625 85.474c.178 1.323.042 2.664.107 3.996.147 1.716.46 3.414.935 5.07.467 1.845 1.065 3.91 2.714 4.933.413.212.808.457 1.181.733.377.293.53.785.383 1.235l-1.284-.212c.398.3.586.799.485 1.283a1.294 1.294 0 0 1-.96.987 1.314 1.314 0 0 1-1.319-.426c.049.416.01.836-.117 1.236a1.017 1.017 0 0 1-.934.691 1.515 1.515 0 0 1-.668-.277l-3.354-2.05a6.153 6.153 0 0 1-2.415-2.306l-1.466-2.18a5.188 5.188 0 0 1-.762-1.383c-.546-1.844.981-3.89.187-5.628a7.56 7.56 0 0 0-.836-1.208c-1.696-2.305-1.588-5.439-1.401-8.297.06-.963.238-2.106 1.12-2.526.701-.336 1.542-.037 2.191.383.65.42 1.224.972 1.962 1.221.467.157.981.175 1.448.341.654.226 1.262 1.107 1.7 1.627.621.8 1.003 1.755 1.103 2.757z"/>
        <path fill="#BE6F72" d="M164.72 44.62a8.217 8.217 0 0 1-1.601 2.428 3.068 3.068 0 0 1-2.637.923c-1.009-.203-1.75-1.048-2.418-1.846-1.746-2.082-3.514-4.192-4.687-6.657-1.791-3.753-2.078-8.037-2.337-12.196-.063-1.071-.118-2.207.387-3.144.64-1.195 2-1.759 3.255-2.234l6.932-2.631a2.651 2.651 0 0 1 1.364-.254c1.087.184 1.487 1.514 1.782 2.59a16.26 16.26 0 0 0 2.591 5.354c1.555 2.105 5.042 4.94 3.05 7.566-2.404 3.149-3.932 6.546-5.682 10.1z"/>
        <path fill="#E3E8F4" d="M173.638 32.397c3.11 2.878 4.161 7.36 4.012 11.554-.149 4.194-1.33 8.282-2.006 12.425-.675 4.143-.81 8.566 1.02 12.375.628 1.306 1.484 2.516 1.922 3.896.367 1.363.491 2.779.368 4.184a11.788 11.788 0 0 1-.847 4.327c-.992 2.163-3.03 3.666-4.98 5.041-3.98 2.833-8.04 5.71-12.713 7.191-3.165 1.004-6.516 1.334-9.83 1.513-2.244.176-4.501.113-6.731-.188a18.37 18.37 0 0 1-10.217-5.326 5.642 5.642 0 0 1-1.16-1.572 6.44 6.44 0 0 1-.404-2.383c-.112-3.01-.093-6.02.056-9.03a39.12 39.12 0 0 1 1.196-8.501c.889-3.208 2.43-6.215 3.598-9.34 4.068-10.867 3.659-23.233 9.31-33.38 1.219-2.19 3.258-4.496 5.771-4.148a1.95 1.95 0 0 1 1.276.578c.288.417.45.907.465 1.411.6 4.932 1.452 9.992 3.812 14.442.931 1.746 2.328 4.404 4.473 4.872 2.146.467 3.412-1.55 4.562-2.98a36.866 36.866 0 0 1 7.047-6.961z"/>
        <path fill="#3F3D56" d="M188.44 24.89a9.016 9.016 0 0 1 1.714 1.219c1.357 1.3 1.855 3.292 1.846 5.178-.01 1.886-.452 3.745-.724 5.614-.728 5.036-.108 10.192.181 15.292.088.824.04 1.656-.145 2.464-.221.769-.678 1.446-.972 2.193-.864 2.207-.213 4.725-.72 7.042-.542 2.468-2.402 4.711-2.053 7.216.14.98.606 1.882.805 2.852.199.971.027 2.143-.8 2.665-.829.522-2.032.142-3.018.43-.4.15-.79.328-1.167.532-1.525.696-3.343.457-4.845-.303a14.714 14.714 0 0 1-3.913-3.14c-1.723-1.786-3.393-3.741-4.148-6.118-1.104-3.443-.122-7.193 1.077-10.608 1.198-3.416 2.628-6.868 2.415-10.5-.117-2.032-.75-3.987-1.13-5.984a38.736 38.736 0 0 1-.503-8.379c.059-2.05.195-4.166 1.068-6.02a8.193 8.193 0 0 1 6.478-4.488c3.166-.348 5.88 1.287 8.554 2.844z"/>
        <path fill="#000" d="M180.058 69.6c.035 1.5.32 2.984.846 4.4.891-1.912.996-4.058 1.115-6.138.498-7.165 2.185-13.922 3.981-20.862-1.309.937-2.045 3.28-2.672 4.686a39.18 39.18 0 0 0-3.27 17.914z" opacity=".1"/>
        <path fill="#3F3D56" d="M148.69 20.282c-2.213.588-4.131 1.911-6.275 2.776-2.227.925-4.623 1.319-6.96 1.888-5.408 1.323-10.839 3.78-14.103 8.327-2.406 3.344-3.402 7.476-5.05 11.264-1.377 3.179-3.214 6.158-4.228 9.466-1.327 4.316-1.175 8.942-.85 13.448.267 3.701.67 7.444 2.337 10.724.872 1.72 2.075 3.261 2.948 4.982 1.046 2.068 1.597 4.349 2.47 6.477.872 2.128 2.153 4.256 4.177 5.366l3.351-1.975c5-2.947 10-5.899 14.843-9.1 4.223-2.776 8.483-5.963 10.733-10.525 1.992-4.03 2.19-8.739 1.676-13.212-.515-4.474-1.69-8.85-2.296-13.31a54.006 54.006 0 0 1 .344-16.89c.46-2.517 1.68-5.116 1.933-7.624.28-2.678-3.135-2.59-5.05-2.082z"/>
        <path fill="#FBBEBE" d="M128.334 93.78c2.61 2.45 6.364 3.163 9.628 4.632a20.665 20.665 0 0 1 6.43 4.633c1.004 1.093 1.975 2.58 1.47 3.97-.424 1.195-1.727 1.806-2.923 2.251-1.484.556-3.142 1.047-4.622.486-.869-.328-1.569-.986-2.367-1.454-1.957-1.154-4.422-1.158-6.43-2.224-2.83-1.5-4.24-4.804-6.901-6.587-1.457-.973-3.47-1.77-3.619-3.507a4.21 4.21 0 0 1 .392-1.82c.537-1.418 1.453-6.287 3.498-6.157 2.227.143 3.786 4.604 5.444 5.776z"/>
        <path fill="#FBBEBE" d="M114.076 72.108c.84 3.054 2.793 5.657 4.818 8.08 1.456 1.74 3.054 3.634 3.105 5.913.046 2.153-1.378 4.135-3.215 5.235-1.837 1.1-4 1.453-6.127 1.592a15.3 15.3 0 0 1-5.08-.357c-4.198-1.151-7.11-4.85-10.412-7.71-1.961-1.693-4.166-3.17-5.668-5.29-1.502-2.121-2.136-5.166-.657-7.305a10.518 10.518 0 0 1 1.838-1.857 30.958 30.958 0 0 0 6.333-7.681c.68-1.165 1.332-2.427 2.476-3.128 1.64-1.007 3.743-.548 5.599-.056 2.016.534 7.697 1.578 8.092 4.177.161 1.068-1.148 2.73-1.345 3.876a10.37 10.37 0 0 0 .243 4.51z"/>
        <path fill="#F86D70" d="M125.082 77.834c.61 1.1 1.111 2.254 1.498 3.45 1.42 4.907-1.116 9.962-2.326 14.925-1.544 6.357-.888 13.005-.963 19.546-.032 2.991-.353 6.283-2.517 8.357-.558.528-1.228.972-1.605 1.639a6.76 6.76 0 0 0-.516 1.532 7.912 7.912 0 0 1-4.606 5.122 7.971 7.971 0 0 1-6.894-.409c-1.763-.977-3.294-2.671-5.313-2.722-.635.03-1.267.1-1.893.208-2.01.2-3.978-.541-5.862-1.268a3.83 3.83 0 0 1-1.238-.658c-.34-.31-.558-.727-.87-1.06-1.149-1.231-3.112-1.018-4.768-1.361a6.66 6.66 0 0 1-5.057-5.032c-.335-1.593-.051-3.241.228-4.848l1.247-7.157c.523-2.625.885-5.28 1.084-7.95a33.177 33.177 0 0 0-.773-8.985c-.549-2.408-1.367-4.764-1.665-7.218a17.57 17.57 0 0 1 3.256-12.412c.647-.884 1.494-1.768 2.592-1.852.888-.078 1.721.394 2.493.848a966.044 966.044 0 0 0 20.265 11.606c1.861 1.042 3.764 2.088 5.839 2.602.623.157 1.516.092 1.605-.537a1.167 1.167 0 0 0-.182-.68c-1.163-2.228-2.847-4.14-4.187-6.26-1.34-2.12-2.372-4.63-1.977-7.093.54-3.407 3.722-5.662 6.322-2.99 2.917 3.032 4.871 6.93 6.783 10.657z"/>
        <path fill="#FBBEBE" d="M104.188 120.902c5.346.353 10.81.73 15.76 2.852 1.59.68 3.276 1.556 4.949 1.137a6.55 6.55 0 0 0 2.279-1.264 52.647 52.647 0 0 0 5.824-5.14c-.182-1.032-1.536-1.174-2.548-1.164-2.467.015-4.9-.59-7.09-1.764a11.77 11.77 0 0 0-2.28-1.099c-2.164-.617-4.37.562-6.544 1.137-3.218.849-6.608.353-9.894-.146l-8.869-1.354c-.825-.122-1.754-.221-2.41.307-.44.429-.74.987-.862 1.598-1.085 3.773-.565 4.088 3.044 4.324l8.641.576z"/>
        <ellipse cx="227" cy="41.5" fill="#000" opacity=".1" rx="15" ry="14.5"/>
        <ellipse cx="227" cy="41.5" fill="#FBBEBE" rx="15" ry="14.5"/>
        <path fill="#3F3D56" d="M239.146 22.234c1.166.74 2.386 1.536 3.023 2.782.343.846.604 1.724.779 2.623.797 2.81 2.918 5.25 3.046 8.178.141 3.208-2.2 5.995-4.849 7.676a3.531 3.531 0 0 1-2.085.721c-.77-.051-1.434-.548-2.14-.866-2.991-1.368-6.338.365-9.507 1.161-3.293.819-6.748.61-9.925-.6-1.708-.655-3.365-1.638-4.435-3.16-1.07-1.523-1.452-3.654-.542-5.288.456-.834 1.211-1.588 1.161-2.539-.027-.571-.355-1.087-.455-1.649-.146-.894.31-1.765.774-2.529a36.3 36.3 0 0 1 7.877-9.166c.91-.768 1.962-1.517 3.155-1.573 2.395-.108 4.453 1.728 6.916 1.737 2.795.01 4.803.965 7.207 2.492z"/>
        <circle cx="172" cy="23" r="15" fill="#000" opacity=".1"/>
        <circle cx="173" cy="23" r="15" fill="#BE6F72"/>
        <path fill="#3F3D56" d="M180.87 31.073c2.17 1.198 4.846 1.074 7.267.528a9.849 9.849 0 0 0 3.816-1.588 4.523 4.523 0 0 0 1.923-3.488c0-1.538-1.024-2.924-1.15-4.461-.154-1.937 1.126-3.727 1.261-5.673.135-1.946-.837-3.7-1.787-5.37-1.634-2.868-3.333-5.773-5.818-7.967-2.486-2.194-5.93-3.594-9.188-2.855-1.601.363-3.086 1.212-4.72 1.377-1.452.133-2.886-.298-4.333-.482-1.448-.184-3.072-.069-4.11.918-.568.55-.931 1.326-1.597 1.73a9.666 9.666 0 0 1-1.396.51c-1.68.665-2.449 2.533-3.044 4.213L154 19.75c1.336.918 2.946 1.335 4.408 2.042 1.461.707 2.881 1.836 3.179 3.415.228 1.198-.205 2.574.503 3.575.647.918 1.964 1.074 3.081.918 1.117-.156 2.239-.537 3.356-.367 2.793.417 3.83 2.106 6.414 0 2.583-2.107 3.528.408 5.93 1.74z"/>
        <circle cx="108" cy="57" r="14" fill="#000" opacity=".1"/>
        <circle cx="108" cy="56" r="14" fill="#FBBEBE"/>
        <path fill="#3F3D56" d="M118.367 42.767a35.883 35.883 0 0 0-10.819-5.78c-2.498-.824-5.215-1.389-7.75-.63-3.438.996-8.038 2.483-10.167 5.405-1.049 1.436-2.111 2.913-2.617 4.631-1.012 3.455.428 7.137.333 10.74-.114 4.2-2.307 8.035-4.7 11.462-2.394 3.427-2.878 8.336-4.29 12.291-.484 1.357-.64 3.242.606 3.923 1.094.616 2.416-.153 3.428-.894l6.086-4.47a4.614 4.614 0 0 1 1.605-.87c1.254-.296 2.48.5 3.529 1.255L106.376 89c.511-1.06.533-2.294.06-3.371 1.199.375 2.07 1.389 3.123 2.111 1.053.723 2.653.959 3.419-.05.766-1.01.187-2.367-.666-3.182-.852-.815-1.974-1.302-2.808-2.14-1.655-1.672-1.824-4.311-2.868-6.423-.747-1.482-1.956-2.723-2.484-4.303-.862-2.58.264-5.358 1.367-7.84 1.318-2.946 2.809-6.09 5.613-7.628.943-.518 1.987-.824 2.954-1.296 2.407-1.172 5.412-3.937 6.588-6.415 1.03-2.2-.556-4.325-2.307-5.696z"/>
        <path fill="#000" d="M98.416 88.453c1.321.846 2.813 1.387 4.11 2.27 1.3.883 2.436 2.224 2.473 3.796.037 1.502-.92 2.82-1.841 4.013l-11.215 14.78 5.718 1.52c-.92 1.277-1.156 2.904-1.634 4.402-.48 1.498-1.381 3.056-2.91 3.45-1.38.355-2.826-.375-4.254-.292-1.054.065-2.048.564-3.102.605-1.358.051-2.62-.665-3.752-1.423-2.523-1.697-5.027-4.129-5.009-7.18a10.9 10.9 0 0 1 .612-3.024c1.653-5.414 3.366-10.957 6.79-15.46 1.842-2.404 4.093-4.433 6.344-6.45a5.915 5.915 0 0 1 1.777-1.233c1.473-.555 3.08.129 4.604.573 1.524.444 3.443.508 4.323-.8" opacity=".1"/>
        <path fill="#F86D70" d="M97.411 87.485c1.321.841 2.813 1.387 4.111 2.27 1.298.882 2.435 2.222 2.477 3.789.041 1.566-.921 2.823-1.842 4.016L90.94 112.32l5.717 1.52c-.92 1.276-1.155 2.898-1.634 4.4-.479 1.502-1.381 3.055-2.91 3.448-1.38.356-2.826-.375-4.253-.291-1.054.06-2.049.563-3.103.6-1.358.051-2.62-.665-3.752-1.423-2.523-1.691-5.027-4.127-5.004-7.172.055-1.032.26-2.05.608-3.023 1.652-5.416 3.365-10.957 6.79-15.453 1.841-2.408 4.097-4.437 6.344-6.47a6.085 6.085 0 0 1 1.777-1.234c1.473-.555 3.08.13 4.603.577 1.524.449 3.444.509 4.323-.799"/>
        <g fill="#000" opacity=".1">
            <path d="M212.99 37.645c1.082 1.485 2.763 2.45 4.485 3.085a17.303 17.303 0 0 0 10.04.585c3.223-.777 6.59-2.468 9.615-1.133.714.315 1.382.795 2.16.85a3.702 3.702 0 0 0 2.114-.709c1.865-1.142 3.578-2.806 4.398-4.768 0 .101 0 .202.028.307.142 3.131-2.225 5.851-4.905 7.492a3.656 3.656 0 0 1-2.11.704c-.777-.05-1.45-.535-2.164-.845-3.025-1.335-6.41.356-9.615 1.133-3.331.799-6.826.595-10.04-.585-1.727-.64-3.403-1.6-4.485-3.086-1.083-1.485-1.47-3.565-.548-5.16l.069-.115a5.57 5.57 0 0 0 .957 2.245zM213.602 30.006c.037.704-.391 1.293-.801 1.892a2.873 2.873 0 0 1-.134-.457c-.138-.818.258-1.614.695-2.331.126.284.207.587.24.896z"/>
        </g>
        <path fill="#000" d="M159.027 6.981l-3.943 11.274c1.319.917 2.909 1.339 4.352 2.04 1.442.702 2.844 1.835 3.138 3.413.225 1.197-.202 2.573.496 3.577.639.918 1.939 1.069 3.042.918 1.102-.152 2.21-.537 3.312-.367 2.757.417 3.782 2.105 6.332.023 2.55-2.083 3.474.39 5.844 1.72 2.142 1.201 4.784 1.077 7.173.527a9.658 9.658 0 0 0 3.768-1.582c.16-.131.313-.27.459-.418a5.111 5.111 0 0 1-1.544 1.908 9.658 9.658 0 0 1-3.767 1.587c-2.39.546-5.055.67-7.173-.527-2.37-1.33-3.345-3.757-5.844-1.72-2.5 2.036-3.584.394-6.332 0-1.103-.17-2.205.21-3.313.367-1.107.156-2.403 0-3.041-.918-.699-1-.271-2.375-.497-3.572-.294-1.578-1.695-2.71-3.138-3.413-1.443-.701-3.032-1.128-4.351-2.04l3.96-11.306c.46-1.243.966-2.587 1.884-3.472-.318.64-.591 1.303-.817 1.981z" opacity=".1"/>
        <g fill="#000" opacity=".1">
            <path d="M108.249 85.873c1.023.457 2.316.526 2.964-.329.727-.914.19-2.331-.676-3.14-.866-.81-2.006-1.285-2.853-2.113-1.681-1.645-1.853-4.251-2.913-6.336-.76-1.467-1.987-2.692-2.525-4.251-.875-2.542.269-5.29 1.39-7.735 1.338-2.907 2.853-6.011 5.701-7.529.959-.512 2.02-.814 3.002-1.28 2.445-1.157 5.497-3.89 6.692-6.336 1.005-2.062-.412-4.064-2.098-5.422.82.526 1.621 1.08 2.4 1.669 1.782 1.371 3.39 3.451 2.315 5.614-1.195 2.445-4.247 5.174-6.693 6.331-.982.457-2.042.768-3 1.28-2.85 1.518-4.364 4.622-5.702 7.53-1.126 2.45-2.27 5.192-1.39 7.739.537 1.558 1.765 2.784 2.524 4.246 1.075 2.085 1.232 4.69 2.914 6.341.847.827 1.987 1.303 2.853 2.112.866.81 1.39 2.208.676 3.14-.713.933-2.409.741-3.474.05-.718-.48-1.37-1.11-2.107-1.58zM80.158 81.818l6.183-4.407a4.744 4.744 0 0 1 1.63-.864c1.274-.288 2.52.499 3.586 1.244l12.968 9.051a3.89 3.89 0 0 0 .06-3.332c1.19.365 2.057 1.344 3.09 2.03a3.494 3.494 0 0 0-.464-.17 3.88 3.88 0 0 1-.06 3.328l-12.968-9.051c-1.066-.745-2.316-1.532-3.585-1.239a4.73 4.73 0 0 0-1.63.86l-6.184 4.41c-1.028.732-2.37 1.491-3.483.883a2 2 0 0 1-.968-1.764 6.739 6.739 0 0 0 1.825-.979z"/>
        </g>
        <path fill="#E3E8F4" d="M234 111.399s-26.69 2.134-32-1.642L226.417 106l7.583 5.399z"/>
        <path fill="#000" d="M234 111.399s-26.69 2.134-32-1.642L226.417 106l7.583 5.399z" opacity=".1"/>
        <path fill="#E3E8F4" d="M234 112l-7.499-4.882S204.13 113.73 198 111l6.238-9 22.165 4.445L234 112z"/>
        <path fill="#3F3D56" d="M201.447 49.263a13.164 13.164 0 0 0-1.924 3.44c-.21.657-.316 1.342-.494 2.008a15.534 15.534 0 0 1-2.286 4.615c-2.254 3.338-5.07 6.56-5.637 10.57-.274 1.98.027 3.99.411 5.951.208 1.293.57 2.555 1.08 3.758.58 1.276 1.444 2.398 2.107 3.632A26.064 26.064 0 0 1 196.23 87c.782-.796 1.243-1.863 1.87-2.794.626-.931 1.559-1.77 2.66-1.783 1.271 0 2.318 1.07 3.576 1.238.196.04.4.021.585-.056.457-.219.494-.847.457-1.35-.361-3.516-2.336-6.985-1.404-10.394.86-3.152 3.932-5.122 5.546-7.949 1.17-2.053 1.518-4.475 1.829-6.83.388-2.818.781-5.659.608-8.495-.087-1.43-1.203-10.463-3.242-9.518-.708.326-1.325 1.71-1.769 2.328l-1.829 2.64-3.67 5.226z"/>
        <path fill="#E3E8F4" d="M146 107.372L131.13 119 112 115.714 124.882 106z"/>
        <path fill="#000" d="M146 106.372L131.13 118 112 114.714 124.882 105z" opacity=".1"/>
        <path fill="#E3E8F4" d="M146 106.376L131.133 118 112 114.719 124.885 105z"/>
        <path fill="#000" d="M147 104.372L132.128 116 113 112.714 125.885 103z" opacity=".1"/>
        <path fill="#E3E8F4" d="M147 104.372L132.13 116 113 112.714 125.882 103z"/>
        <path fill="#3F3D56" d="M342.021 269.244a2.082 2.082 0 0 1 2.088.076c.642.398 1.06 1.115 1.118 1.914l.773 10.867-4.583.899-2.417-7.856 3.021-5.9z"/>
        <path fill="#3F3D56" d="M170.69 197.562L95.842 235.6A5.217 5.217 0 0 0 93 240.267a5.217 5.217 0 0 0 2.878 4.644l161.207 81.015a19.543 19.543 0 0 0 18.388-.461l67.9-38.343a5.217 5.217 0 0 0-.309-9.223L175.291 197.51a5.202 5.202 0 0 0-4.6.051z"/>
        <path fill="#3F3D56" d="M94.538 228l-2.352 1.747-.185 8.366a3.476 3.476 0 0 0 1.886 3.17l164.54 84.444A2.45 2.45 0 0 0 262 323.55V311.4L94.538 228z"/>
        <path fill="#E3E8F4" d="M170.695 187.564L95.848 225.6A5.217 5.217 0 0 0 93 230.262a5.217 5.217 0 0 0 2.871 4.648l161.216 81.017a19.555 19.555 0 0 0 18.388-.46l67.898-38.349a5.218 5.218 0 0 0-.309-9.223l-167.768-80.386a5.201 5.201 0 0 0-4.6.055z"/>
        <path fill="#3F3D56" d="M185.545 194L103 235.968 244.873 307 330 263.735z"/>
        <ellipse cx="297.5" cy="289" fill="#3F3D56" rx="8.5" ry="5"/>
        <circle cx="138" cy="208" r="1" fill="#3F3D56"/>
        <circle cx="136" cy="214" r="1" fill="#3F3D56"/>
        <path stroke="#3F3D56" d="M139 213l10-5"/>
        <path fill="#2EC6FF" d="M197.866 249.251l27.323-15.77a8.3 8.3 0 0 1 11.336 3.038 8.295 8.295 0 0 1-3.034 11.332h-.002l-27.324 15.77a8.3 8.3 0 0 1-11.336-3.037 8.295 8.295 0 0 1 3.035-11.332h.002zM222.303 261.697l27.323-15.77a8.3 8.3 0 0 1 11.336 3.038 8.295 8.295 0 0 1-3.034 11.332l-.003.001-27.323 15.77a8.3 8.3 0 0 1-11.336-3.038 8.295 8.295 0 0 1 3.035-11.331l.002-.002zM175.734 234.964l27.324-15.77a8.3 8.3 0 0 1 11.336 3.038 8.295 8.295 0 0 1-3.035 11.331l-.002.002-27.323 15.77a8.3 8.3 0 0 1-11.336-3.038 8.295 8.295 0 0 1 3.034-11.332l.002-.001z"/>
    </g>
</svg>
